<svg width="16" height="16" fill="none" xmlns="http://www.w3.org/2000/svg"><path fill-rule="evenodd" clip-rule="evenodd" d="m9.675 3.33.622-.62a.244.244 0 0 0 0-.338.244.244 0 0 0-.337 0l-.703.702A2.867 2.867 0 0 0 8 2.78c-.456 0-.883.11-1.263.3l-.707-.708a.238.238 0 0 0-.332 0 .235.235 0 0 0 0 .337l.622.622a2.84 2.84 0 0 0-1.168 2.297h5.695c0-.95-.474-1.78-1.172-2.297ZM6.576 4.68h.475v-.475h-.475v.475Zm2.373 0h.475v-.475h-.475v.475Zm2.373 2.135a.712.712 0 0 1 1.424 0v3.322a.712.712 0 1 1-1.424 0V6.814Zm-7.356-.712a.712.712 0 0 0-.712.712v3.322a.712.712 0 1 0 1.424 0V6.814a.712.712 0 0 0-.712-.712Zm1.66 5.22a.475.475 0 0 1-.474-.474V6.102h5.695v4.746a.475.475 0 0 1-.474.475h-.475v1.66a.712.712 0 0 1-1.424 0v-1.66h-.949v1.66a.712.712 0 0 1-1.424 0v-1.66h-.474Z" fill="#C3E88D"/></svg>