<svg width="16" height="16" fill="none" xmlns="http://www.w3.org/2000/svg"><g fill-rule="evenodd" clip-rule="evenodd"><path d="M2.381 13.7V2.299h1.846v1.14h-.923v9.124h.923V13.7H2.38Zm9.393-10.262v-1.14h1.845v11.404h-1.845v-1.14h.923V3.438h-.923Z" fill="#F78C6C"/><path d="M9.023 3.763a1.83 1.83 0 0 1 .703-.122c.285 0 .523.042.716.127.192.083.35.208.473.374.122.163.21.364.265.604.055.238.083.513.083.826 0 .312-.029.592-.085.84a1.58 1.58 0 0 1-.264.606 1.163 1.163 0 0 1-.474.366 1.828 1.828 0 0 1-.714.123 1.82 1.82 0 0 1-.71-.126 1.13 1.13 0 0 1-.477-.369 1.568 1.568 0 0 1-.267-.605 3.8 3.8 0 0 1-.082-.833c0-.323.028-.602.085-.84.056-.238.146-.44.27-.605a1.13 1.13 0 0 1 .478-.366Zm-3.088.193a.513.513 0 0 0 .074-.25h.825v3.075h.767v.648H5.12v-.648h.784V4.818h-.783v-.606c.12 0 .234-.006.344-.02a.934.934 0 0 0 .274-.075.463.463 0 0 0 .195-.161Zm3.791.37c.205 0 .351.097.44.288.087.19.131.509.131.958 0 .444-.045.763-.135.958-.09.194-.234.29-.436.29-.2 0-.347-.096-.437-.29-.09-.195-.134-.513-.134-.954 0-.452.044-.772.132-.962a.452.452 0 0 1 .44-.287ZM5.57 8.617a1.83 1.83 0 0 1 .704-.122c.284 0 .523.042.716.127.193.083.35.207.473.374.121.163.21.364.265.603a3.7 3.7 0 0 1 .082.826c0 .313-.028.592-.085.84a1.579 1.579 0 0 1-.264.607 1.164 1.164 0 0 1-.474.366c-.193.081-.43.123-.713.123-.278 0-.514-.042-.71-.125a1.134 1.134 0 0 1-.477-.37 1.574 1.574 0 0 1-.268-.606 3.8 3.8 0 0 1-.082-.833c0-.322.029-.602.085-.84.057-.238.146-.439.27-.603.123-.163.282-.286.478-.367Zm3.892-.057Zm0 0h.825v3.074h.766v.649H8.574v-.649h.783V9.671h-.783v-.607c.12 0 .235-.006.344-.02a.933.933 0 0 0 .275-.074.463.463 0 0 0 .194-.162.513.513 0 0 0 .075-.25Zm-2.75.908a.452.452 0 0 0-.438-.288.452.452 0 0 0-.44.288c-.087.19-.13.51-.13.962 0 .44.043.758.133.953.09.194.236.291.437.291.2 0 .347-.097.437-.291.09-.195.133-.514.133-.958 0-.449-.043-.768-.131-.957Z" fill="#FFCB6B"/></g></svg>