<svg width="16" height="16" fill="none" xmlns="http://www.w3.org/2000/svg"><path d="M6.124 13.849c-.606-.575-.783-1.784-.53-2.66.437.552 1.043.727 1.671.826.97.152 1.922.095 2.822-.365.103-.053.198-.123.31-.194.085.255.107.512.078.774-.072.637-.377 1.13-.863 1.503-.194.15-.4.283-.6.423-.616.433-.783.94-.551 1.678l.023.08a1.638 1.638 0 0 1-.72-.639 1.85 1.85 0 0 1-.277-.976c-.002-.172-.002-.346-.025-.516-.054-.414-.241-.599-.593-.61-.362-.01-.647.222-.723.587-.006.028-.014.056-.023.089Z" fill="#F78C6C"/><path d="M3.078 11.457s1.656-.847 3.317-.847l1.252-4.07c.046-.198.183-.332.338-.332.154 0 .291.134.338.331l1.252 4.07c1.967 0 3.317.848 3.317.848l-2.819-8.066c-.08-.238-.217-.391-.4-.391H6.297c-.183 0-.314.153-.4.391l-2.819 8.066Z" fill="#F78C6C"/></svg>