<svg width="16" height="16" fill="none" xmlns="http://www.w3.org/2000/svg"><g fill-rule="evenodd" clip-rule="evenodd"><path d="M8 13.915a5.915 5.915 0 1 0 0-11.83 5.915 5.915 0 0 0 0 11.83Z" fill="#FFCB6B"/><path d="M7.775 3.963a3.745 3.745 0 0 1-.253-1.01c-.484.343-.878.84-1.168 1.41a3.737 3.737 0 0 1-.602-.857c-.328.492-.518 1.096-.585 1.73a3.761 3.761 0 0 1-.851-.575c-.13.576-.09 1.208.074 1.823a3.736 3.736 0 0 1-1.023-.233c.086.585.35 1.162.724 1.677a3.76 3.76 0 0 1-1.017.142c.29.518.745.962 1.282 1.31-.248.193-.542.36-.919.513.455.377 1.036.628 1.658.761-.16.261-.371.516-.66.786.559.189 1.19.216 1.817.117a3.744 3.744 0 0 1-.337.984c.59-.023 1.191-.226 1.743-.544.06.307.074.643.039 1.046 1.192-.513 2.118-1.844 2.444-3.161.088-.238.135-.582.135-1.056 0-.127-.003-.25-.007-.37a6.136 6.136 0 0 0 2.067-.731c.147-.087.296-.213.345-.318a.507.507 0 1 0-.879-.45c-.783-.408-1.68-1.235-1.461-2.43.163-.226.392-.453.706-.691-.589-.07-1.215.037-1.81.266a3.75 3.75 0 0 1 .125-1.03c-.571.146-1.115.467-1.587.89Zm2.486 4.323c.108-.019.216-.04.321-.064a5.82 5.82 0 0 0 1.668-.643.99.99 0 0 0 .128-.087c.034-.052.033-.09.007-.122-.478-.123-1.08-.45-1.514-.874-.473-.462-.737-1.009-.733-1.617-.241.546-.166 1.118-.055 1.86a.211.211 0 0 0 .028-.413.338.338 0 1 1 .01.663c.056.382.114.809.14 1.297Z" fill="#212431"/><path d="M10.267 8.21a16.614 16.614 0 0 0-.125-1.133l-.011-.073.094-.011a.345.345 0 0 0 .238-.54.452.452 0 0 0-.285-.144h-.068l.072.068c.054.05.073.085.073.133 0 .086-.047.171-.11.2-.048.022-.051.02-.062-.042-.086-.487-.113-1.063-.064-1.342a2.3 2.3 0 0 1 .071-.293l.04-.112.002.091c0 .05.019.174.04.274.138.665.59 1.248 1.319 1.697.193.12.534.282.726.346a.871.871 0 0 1 .168.069c.034.034-.005.084-.132.164-.388.246-1.012.492-1.593.63-.413.097-.381.096-.393.018Z" fill="#fff"/></g></svg>