<svg width="16" height="16" fill="none" xmlns="http://www.w3.org/2000/svg"><path fill-rule="evenodd" clip-rule="evenodd" d="m11.51 11.403.347 2.091c-.22.12-.574.232-1.046.335A7.557 7.557 0 0 1 9.116 14c-1.864-.034-3.263-.6-4.2-1.68C3.973 11.231 3.5 9.851 3.5 8.18c.042-1.98.607-3.497 1.687-4.56C6.3 2.549 7.683 2 9.352 2c.633 0 1.18.06 1.636.163.456.103.793.214 1.012.343l-.49 2.134-.893-.291a4.77 4.77 0 0 0-1.172-.129c-.978-.009-1.788.309-2.42.943-.641.626-.97 1.586-.995 2.863 0 1.165.312 2.074.91 2.743.6.66 1.442 1.002 2.522 1.011l1.121-.103a4.46 4.46 0 0 0 .928-.274Z" fill="#3965BD"/></svg>