<svg width="16" height="16" fill="none" xmlns="http://www.w3.org/2000/svg"><path d="M3.8 2c-.424 0-.8.358-.8.776l.887 7.828c.04.313.191.489.464.646l3.36 1.675c.21.091.433.108.676 0l3.351-1.675a.784.784 0 0 0 .426-.733L13 2.754c0-.392-.348-.754-.774-.754H3.801Zm2.481 5.912c-.001.625-.007.806.13.946.139.106.388.123.788.119v.602h-.675c-.614-.014-1.306-.1-1.305-.99 0-.54.036-.876-.168-1.073-.16-.15-.51-.176-.801-.159V6.76c.4.013.674-.036.8-.154.406-.376-.137-1.384.481-1.857.325-.263.906-.245 1.668-.238v.602c-.403-.01-.7.024-.789.12-.287.284.036 1.088-.27 1.551-.093.127-.255.213-.484.258.497.094.63.386.625.87Zm4.063-.871c-.229-.045-.391-.13-.485-.258-.305-.463.018-1.267-.27-1.552-.088-.095-.385-.129-.788-.119V4.51c.762-.007 1.343-.025 1.668.238.618.473.075 1.481.48 1.857.127.118.401.167.801.154v.598c-.291-.017-.64.008-.8.159-.204.197-.169.533-.169 1.073.002.89-.691.976-1.304.99H8.8v-.602c.4.004.65-.013.789-.119.136-.14.13-.321.129-.946-.004-.485.128-.777.625-.871Z" fill="#89DDFF"/></svg>