<svg width="16" height="16" fill="none" xmlns="http://www.w3.org/2000/svg"><path d="M4 3h5l2 1 1 2v7H4V3Z" fill="#A9B4CB"/><path fill-rule="evenodd" clip-rule="evenodd" d="M9 2a1 1 0 0 1 .707.293l3 3A1 1 0 0 1 13 6v6a2 2 0 0 1-2 2H5a2 2 0 0 1-2-2V4a2 2 0 0 1 2-2h4Zm3 4v6a1 1 0 0 1-1 1H5a1 1 0 0 1-1-1V4a1 1 0 0 1 1-1h4l3 3Z" fill="#A9B4CB"/><path d="M9 3v3h3" fill="#F5F7F9"/><path d="M10 8.5H6m4 2H6" stroke="#434F65" stroke-linecap="round" stroke-linejoin="round"/><path d="M7 6.5H6" stroke="#252D3A" stroke-linecap="round" stroke-linejoin="round"/></svg>