<svg width="16" height="16" fill="none" xmlns="http://www.w3.org/2000/svg"><path d="M2.179 2.937H1a1 1 0 0 0-1 1v8.125a1 1 0 0 0 1 1h1.51C1.266 11.746.541 9.928.541 7.76c0-1.918.6-3.568 1.637-4.822Zm11.8 10.126a10.436 10.436 0 0 0 1.449-2.019l-2.41-1.206c-.847 1.377-2.085 2.644-3.797 2.652-2.492-.008-3.471-2.139-3.466-4.881h9.311c.012-.31 0-.603 0-.603.06-1.632-.372-3.002-1.158-4.07H15a1 1 0 0 1 1 1v8.127a1 1 0 0 1-1 1h-1.02ZM5.906 5.258c.103-1.241 1.082-2.077 2.23-2.08 1.155.003 1.99.838 2.019 2.08h-4.25Z" fill="#FC8289"/></svg>