<svg width="16" height="16" fill="none" xmlns="http://www.w3.org/2000/svg"><path d="m5.676 6.824 2.26-1.303a.183.183 0 0 1 .183 0l2.26 1.303a.183.183 0 0 1 .091.158V9.59a.183.183 0 0 1-.091.158l-2.26 1.304a.183.183 0 0 1-.183 0l-2.26-1.304a.183.183 0 0 1-.092-.158V6.982c0-.065.035-.125.092-.158Z" fill="#9883EC"/><path fill-rule="evenodd" clip-rule="evenodd" d="m11.203 3.319 2.7 4.693a.529.529 0 0 1 0 .538l-2.7 4.662a.53.53 0 0 1-.475.254H5.327a.533.533 0 0 1-.476-.257l-2.7-4.654a.558.558 0 0 1 0-.554l2.7-4.682a.57.57 0 0 1 .476-.295h5.4a.57.57 0 0 1 .476.295Zm.363 7.117a.198.198 0 0 0 .102-.168V6.304a.198.198 0 0 0-.102-.168L8.123 4.154a.195.195 0 0 0-.194 0l-3.44 1.982a.197.197 0 0 0-.101.168v3.964c0 .07.042.133.102.168l3.442 1.982c.06.035.135.035.194 0l3.44-1.982Z" fill="#3965BD"/></svg>