<svg width="16" height="16" fill="none" xmlns="http://www.w3.org/2000/svg"><path fill-rule="evenodd" clip-rule="evenodd" d="M8 3.375h5.6c.77 0 1.4.619 1.4 1.375v.834a1.81 1.81 0 0 0-.35-.034H13.6v-.8H2.4v6.875h4.15V13H2.4c-.77 0-1.4-.619-1.4-1.375l.007-8.25C1.007 2.619 1.63 2 2.4 2h4.2L8 3.375Z" fill="#84FFFF"/><path d="M10.15 8.8c.95-.95 2.55-.95 3.5 0 .35.35.6.85.7 1.35l1-.15c-.1-.75-.45-1.4-.95-1.9-1.35-1.35-3.55-1.35-4.95 0L8.35 7 8 10.2l3.2-.35-1.05-1.05Z" fill="#C3E88D"/><path d="m15.8 10.9-3.2.35 1.05 1.05c-.95.95-2.55.95-3.5 0-.35-.35-.6-.85-.7-1.35l-1 .15c.1.75.45 1.4.95 1.9.7.7 1.55 1 2.45 1 .9 0 1.8-.35 2.45-1l1.1 1.1.4-3.2Z" fill="#FC8289"/></svg>