<svg width="16" height="16" fill="none" xmlns="http://www.w3.org/2000/svg"><path fill-rule="evenodd" clip-rule="evenodd" d="M8 3.375h5.6c.77 0 1.4.619 1.4 1.375v.834a1.81 1.81 0 0 0-.35-.034H13.6v-.8H2.4v6.875h4.15V13H2.4c-.77 0-1.4-.619-1.4-1.375l.007-8.25C1.007 2.619 1.63 2 2.4 2h4.2L8 3.375Z" fill="#2979FF"/><path d="M8.054 13a.402.402 0 0 0 .151.15l3.09 1.794a.404.404 0 0 0 .41 0l3.09-1.793a.408.408 0 0 0 .205-.358V9.207a.408.408 0 0 0-.206-.358l-3.089-1.793a.404.404 0 0 0-.41 0L8.205 8.85A.408.408 0 0 0 8 9.207v3.586c0 .073.018.144.054.207" fill="#2ECC71"/><path d="M10.668 12.547c0 .249-.15.453-.334.453-.183 0-.334-.204-.334-.453V9.44c0-.24.157-.44.38-.44.174-.003.34.098.455.276l.101.164 1.396 2.263v-2.25c0-.249.15-.452.334-.452.183 0 .334.203.334.452v3.107c0 .24-.157.44-.38.44-.174.003-.34-.098-.455-.276l-1.497-2.427v2.25Z" fill="#343944"/></svg>