<svg width="16" height="16" fill="none" xmlns="http://www.w3.org/2000/svg"><path opacity=".8" fill-rule="evenodd" clip-rule="evenodd" d="M2.4 2h4.2L8 3.375h5.6c.77 0 1.4.619 1.4 1.375v.518A1.99 1.99 0 0 0 14 5H7a2 2 0 0 0-2 2v6H2.4c-.77 0-1.4-.619-1.4-1.375l.007-8.25C1.007 2.619 1.63 2 2.4 2Z" fill="#4A616C"/><path d="M8.73 13.508c-.13-1.352-.236-2.475-.235-2.496.001-.021-.11-.038-.247-.038H8v-.968h1.937v-1.88l.914-.563c.557-.343.966-.563 1.047-.563.196 0 .423.253.423.47a.537.537 0 0 1-.062.26c-.034.047-.352.265-.707.483l-.646.397-.014.698-.014.698h1.94v.968h-.478l-.242 2.496-.154 1.593a1 1 0 0 1-.996.903H9.875a1 1 0 0 1-.995-.904l-.15-1.554Z" fill="#F07178"/></svg>