<svg width="16" height="16" fill="none" xmlns="http://www.w3.org/2000/svg"><path opacity=".8" fill-rule="evenodd" clip-rule="evenodd" d="M2.4 2h4.2L8 3.375h5.6c.77 0 1.4.619 1.4 1.375v.518A1.99 1.99 0 0 0 14 5H7a2 2 0 0 0-2 2v6H2.4c-.77 0-1.4-.619-1.4-1.375l.007-8.25C1.007 2.619 1.63 2 2.4 2Z" fill="#4E5579"/><path d="M7.491 7c-.309 0-.582.26-.582.564l.645 5.694c.03.227.14.355.338.47l2.443 1.217c.153.067.315.08.492 0l2.437-1.218a.57.57 0 0 0 .31-.533l.608-5.645A.568.568 0 0 0 13.619 7H7.491Zm1.804 4.3c0 .454-.005.586.094.688.102.077.283.089.574.086v.438h-.491c-.446-.01-.95-.072-.95-.72 0-.393.027-.637-.121-.78-.117-.11-.371-.128-.583-.116v-.435c.29.01.49-.026.583-.112.294-.273-.1-1.006.349-1.35.236-.192.659-.179 1.213-.173v.437c-.293-.007-.509.018-.574.087-.209.207.027.792-.196 1.129-.068.092-.186.154-.352.187.361.068.457.281.454.633Zm2.955-.634c-.166-.033-.284-.095-.352-.187-.223-.337.013-.922-.196-1.13-.065-.068-.281-.093-.574-.086v-.437c.554-.006.977-.019 1.213.173.45.344.055 1.077.35 1.35.092.086.291.121.582.112v.435c-.212-.012-.466.006-.583.115-.148.144-.122.388-.122.78.001.649-.503.711-.949.72h-.491v-.437c.29.003.472-.01.574-.086.099-.102.095-.234.094-.689-.003-.352.093-.565.454-.633Z" fill="#89DDFF"/></svg>