<svg id="Layer_1" data-name="Layer 1" xmlns="http://www.w3.org/2000/svg" viewBox="0 0 24 24"><defs><clipPath id="clip-path"><path class="cls-1" d="M23.73 17.79c-.71-.68-4.29-1.11-5.42-1.23a1.9 1.9 0 0 0 .14-.4A3.68 3.68 0 0 1 19 16c0 .06.11.29.17.41a2.19 2.19 0 0 0 2.48-2.15 2.65 2.65 0 0 1 .86-1.74 3.18 3.18 0 0 0-3.38 1.79 3.68 3.68 0 0 0-.63-.17 3 3 0 0 0-3-2.26 5.52 5.52 0 0 0-5.4 5.69c0 3 2.07 5.64 3.24 5.64a1.14 1.14 0 0 0 1.05-.72c.09.24.35 1 .44 1.15s.72.51 1 .22a1 1 0 0 0 1.29-.19 1 1 0 0 0 1.23-.71c.31 0 .47-.45.4-.8a8.68 8.68 0 0 0-.81-1.51c.42.34 1.48.43 1.61 0 .68.53 1.74.25 1.82-.18.82.21 1.77-.25 1.61-.82a1.1 1.1 0 0 0 .78-1.84Z"/></clipPath><clipPath id="clip-path-2"><path class="cls-1" d="M7.72 8.31h18.66v18.66H7.72z"/></clipPath><clipPath id="clip-path-3"><path class="cls-1" d="M19.6 15.72a1.7 1.7 0 0 1 0-.26 1.91 1.91 0 0 0-.42-.05 1.52 1.52 0 0 0 .15.6 2.11 2.11 0 0 0 1.13-.32 4.74 4.74 0 0 0-.77-.21 1.34 1.34 0 0 1-.09.24Zm.45-.91a5.17 5.17 0 0 1 1.1-1.55 2.8 2.8 0 0 0-1.28 1.43 3.37 3.37 0 0 0-.45-.25 2.9 2.9 0 0 1 2.38-1.63c-.69.62-.45 1.92-1 2.61a7.15 7.15 0 0 0-.75-.61Z"/></clipPath><clipPath id="clip-path-5"><path class="cls-1" d="M19.36 18c1 .07 2.67.22 3.69.37-.06-.34-.24-.43-.8-.58-.6.06-2.12.21-2.89.21Zm-1.72 2.15-.22-.54c.33.48 1.37.23 1.31-.2.51.38 1.55-.06 1.32-.59.5.24 1.08-.24.95-.44.87.16 1.7.33 2 .39a1 1 0 0 1-1.16.34c.32.44-.31 1-1.17.67.19.43-.58.81-1.46.37 0 .42-1.09.47-1.53 0Z"/></clipPath><clipPath id="clip-path-7"><path class="cls-1" d="M18.73 19.42c.51.38 1.55-.06 1.32-.59.5.24 1.08-.24.95-.44-1-.2-2.09-.4-2.34-.43l.7.05c.77 0 2.29-.15 2.89-.21a28.78 28.78 0 0 0-4.32-.69 1.94 1.94 0 0 1-.39.41 3.34 3.34 0 0 1-2.89 2.1 3.89 3.89 0 0 1-1.18-.2 2.48 2.48 0 0 1-2.39 0 4.84 4.84 0 0 0 4.43 2.92 2.19 2.19 0 0 0 2.19-2.08c0-.11-.19-.46-.28-.69.33.48 1.37.23 1.31-.2Z"/></clipPath><clipPath id="clip-path-9"><path class="cls-1" d="M17.75 16.11a4.48 4.48 0 0 1 1.11-.49s0-.11 0-.16c-.31.07-.89.32-1.23 0 .71.21 1.06-.19 1.58-.19a3.52 3.52 0 0 1 1.1.22 3.75 3.75 0 0 0-2.33-1 1.6 1.6 0 0 0-.21 1.67Z"/></clipPath><clipPath id="clip-path-11"><path class="cls-1" d="M13.47 19.42a3.89 3.89 0 0 0 1.18.2 3.34 3.34 0 0 0 2.89-2.1 3.7 3.7 0 0 1-2.42.69 3.8 3.8 0 0 0 2.47-1.55 2.07 2.07 0 0 1 .22-2.59 2.44 2.44 0 0 0-2.32-1.62 4.91 4.91 0 0 0-4.8 5.1 4.84 4.84 0 0 0 .39 1.92 2.48 2.48 0 0 0 2.39 0Z"/></clipPath><clipPath id="clip-path-13"><path class="cls-1" d="M14.26 15a1.21 1.21 0 1 0 1.21-1.21A1.21 1.21 0 0 0 14.26 15Z"/></clipPath><clipPath id="clip-path-15"><path class="cls-1" d="M14.74 15a.73.73 0 0 0 .73.72.72.72 0 1 0-.73-.72Z"/></clipPath><clipPath id="clip-path-17"><path class="cls-1" d="M15.47 14.92c.23 0 .42-.12.42-.26s-.19-.26-.42-.26-.42.11-.42.26.19.26.42.26Z"/></clipPath><style>.cls-1{fill:none}.cls-3{clip-path:url(#clip-path-2)}.cls-4{fill:#343944}.cls-10{fill:#f4bf75}</style></defs><g class="cls-3" style="clip-path:url(#clip-path)"><path class="cls-4" d="M7.18 8.94h19.74v17.97H7.18z"/></g><g style="clip-path:url(#clip-path-3)"><path style="fill:#7accee" d="M16.3 9.89h8.42v9.03H16.3z" class="cls-3"/></g><g style="clip-path:url(#clip-path-5)"><path style="fill:#2ecc71" d="M14.51 14.88h11.46v8.53H14.51z" class="cls-3"/></g><g class="cls-3" style="clip-path:url(#clip-path-7)"><path class="cls-10" d="M8.17 14.19h17V25.3h-17z"/></g><g style="clip-path:url(#clip-path-9)"><path style="fill:#cfd2d3" d="M14.69 11.52h8.52v7.5h-8.52z" class="cls-3"/></g><g style="clip-path:url(#clip-path-11)"><path style="fill:#d14748" d="M7.77 9.53h12.95v13.12H7.77z" class="cls-3"/></g><g class="cls-3" style="clip-path:url(#clip-path-13)"><path class="cls-10" d="M11.34 10.86h8.25v8.24h-8.25z"/></g><g class="cls-3" style="clip-path:url(#clip-path-15)"><path class="cls-4" d="M11.83 11.34h7.28v7.27h-7.28z"/></g><g style="clip-path:url(#clip-path-17)"><path style="fill:#fff" d="M12.13 11.48h6.68v6.35h-6.68z" class="cls-3"/></g><path d="M9.09 17.55a6.56 6.56 0 0 1 6.4-6.69 3.94 3.94 0 0 1 3.44 1.91 4.32 4.32 0 0 1 3-1.35 2.76 2.76 0 0 1 .82.12l.26.07V7.4a2.22 2.22 0 0 0-2.2-2.2H12L9.8 3H3.2A2.22 2.22 0 0 0 1 5.2v13.6a2 2 0 0 0 2.2 2h6.59a8.24 8.24 0 0 1-.7-3.25Z" style="fill:#4a616c"/></svg>