<svg width="16" height="16" fill="none" xmlns="http://www.w3.org/2000/svg"><path fill-rule="evenodd" clip-rule="evenodd" d="M8 3.375h5.6c.77 0 1.4.619 1.4 1.375v.518A1.99 1.99 0 0 0 14 5h-.4v-.25H2.4v6.875H5V13H2.4c-.77 0-1.4-.619-1.4-1.375l.007-8.25C1.007 2.619 1.63 2 2.4 2h4.2L8 3.375Z" fill="#E57373"/><path fill-rule="evenodd" clip-rule="evenodd" d="M7.222 6.222a1 1 0 0 0-1 1v6.556a1 1 0 0 0 1 1h6.556a1 1 0 0 0 1-1V7.222a1 1 0 0 0-1-1H7.222ZM9.791 8.65a.663.663 0 0 0-.882 0l-1.556 1.383a.618.618 0 0 0 0 .936L8.91 12.35a.664.664 0 0 0 .882-.993l-.966-.858.966-.859a.663.663 0 0 0 0-.992Zm2.3 0a.663.663 0 1 0-.882.992l.966.859-.966.858a.663.663 0 1 0 .882.992l1.556-1.382a.618.618 0 0 0 0-.936L12.09 8.65Z" fill="#3965BD"/></svg>