<svg width="16" height="16" fill="none" xmlns="http://www.w3.org/2000/svg"><path d="M4 13v-.802l1.315-.078c.155-.01.185-.055.185-.22V4H3.094c-.121 0-.155.011-.177.122L2.741 5H2V3h8v2h-.74l-.177-.878C9.06 4.01 9.027 4 8.906 4H6.5v7.9c0 .154.02.198.185.21L8 12.197V13H4Z" fill="#F07178"/><path d="M9.5 13v-.802l.815-.078c.155-.01.185-.055.185-.22V7.5H9.094c-.121 0-.155.011-.177.122l-.176.878H8v-2h6v2h-.74l-.177-.878c-.022-.111-.056-.122-.177-.122H11.5v4.4c0 .154.02.198.185.21l.815.088V13h-3Z" fill="#9883EC"/></svg>