<svg width="16" height="16" fill="none" xmlns="http://www.w3.org/2000/svg"><path d="M8.25 2C4.798 2 2 4.754 2 8.151c0 2.718 1.79 5.024 4.275 5.837.312.056.426-.134.426-.296 0-.146-.005-.632-.008-1.145-1.739.372-2.106-.725-2.106-.725-.284-.71-.694-.9-.694-.9-.568-.382.043-.374.043-.374.627.043.958.634.958.634.558.94 1.464.668 1.82.51.056-.396.218-.668.396-.821-1.387-.155-2.847-.683-2.847-3.04 0-.673.244-1.22.643-1.651-.064-.157-.28-.782.062-1.629 0 0 .524-.165 1.718.63a6.034 6.034 0 0 1 3.13.002c1.191-.797 1.717-.63 1.717-.63.341.846.126 1.472.062 1.627.4.43.643.979.643 1.651 0 2.363-1.462 2.884-2.855 3.036.226.191.424.565.424 1.138 0 .823-.008 1.486-.008 1.689 0 .164.114.355.43.295 2.482-.815 4.271-3.12 4.271-5.837C14.5 4.755 11.702 2 8.25 2Z" fill="#6B7394"/></svg>