<svg width="16" height="16" fill="none" xmlns="http://www.w3.org/2000/svg"><path d="M2.806 3.88s.276 1.055.315 1.407c.04.351-.709 1.132-.709 1.523 0 .39.158 1.094 1.024 1.445.866.352.984 1.25.984 1.797 0 .547-.315 1.601-.315 1.601s-.197 2.617.866 3.086c1.063.469.827.469 1.063.469s1.968.703 2.992.43c1.023-.274 1.299-.586 1.299-.586s1.023.078 1.338-.82c.315-.899.512-2.774.393-3.633-.118-.86-.275-1.992.434-2.383.708-.39 1.456-.859 1.338-1.25-.118-.39-.748-.937-.748-.937s-.157-.976-.04-1.21c.119-.235.827-.821.434-1.25-.394-.43-1.103-.43-1.103-.43l-.905.078S9.931 1.85 7.923 1.927c-2.007.079-3.267 1.29-3.267 1.29s-.67-.235-1.26 0c-.59.234-.708 0-.59.664Z" fill="#FFCB6B"/><path fill-rule="evenodd" clip-rule="evenodd" d="M6.41 8.134c.13-.308.364-.89.364-.89l-.362-.05s-.398.121-.398.427c0 .728-.276 1.015-.276 1.015s.533-.167.672-.502Zm-.007 1.562Zm0 0c-.006.01-.782 1.186-1.351 2.022-.089.13.571.139.571.139l.78-2.16Z" fill="#F78C6C"/><path fill-rule="evenodd" clip-rule="evenodd" d="M4.535 1.77c-.55-.433-1.375-.273-1.375-.273.415.089.447.277.508.64.017.1.036.211.065.338.138.591.586.797.586.797l.927-.73s-.16-.34-.71-.773Zm.627 6.053c.893.319 1.375-.25 1.375-.25.23-.387-.206-.933-.435-1.07-.23-.136-1.926-.773-1.926-.454 0 .318.091 1.456.986 1.774Z" fill="#F78C6C"/><path fill-rule="evenodd" clip-rule="evenodd" d="M5.99 2.387Zm0 0c-.298.41-.158.779-.158.779s.492.804.66 1.317c-.503-.38-1.324-.97-1.324-.97l-.336-.151s.015-.03.046-.08l-.327-.163s.832-.426 1.44-.732ZM4.888 5.175c.467.037 1.053.255 1.408.755.035.049.069.102.104.157.08.124.164.255.26.346.223.208.431.301.62.292-.163.2-1.185.126-1.886-.787-.376-.49-1.682-.545-1.682-.545s.379-.28 1.176-.218Zm-1.969 1.53c-.275.5 1.173.995 1.173.995.605.22.648.948.664 1.481.05 1.737-.691 2.116-.735 2.1-.005 0 .004-.052.018-.14.074-.455.307-1.894-.16-2.756-1.167-.543-1.38-.826-1.507-1.217-.206-.637.603-1.236.603-1.236s.22.273-.056.773Zm2.59 7.222s.632.94 2.5.94l-.004 1.019c-.918 0-2.094-.95-2.204-1.254l-.292-.705Z" fill="#F78C6C"/><path fill-rule="evenodd" clip-rule="evenodd" d="M3.413 6.179c-.115.841-.505.978-.505.978a1.877 1.877 0 0 0-.023-.023c-.102-.097-.286-.273-.137-.546.09-.167.167-.262.24-.354.057-.07.113-.139.172-.237.138-.228.115-1.388.115-1.388s.252.728.138 1.57Zm1.156 5.541c.061-.166.275-.841.344-1.455.082-.736.052-1.812.052-1.812s-.183.706-.344.82c-.16.113-.458.886-.458.886s-.16 1.152-.236 1.539c.088.017.17.006.253-.005.118-.016.24-.033.39.027Zm1.145 1.571s.171 1.042.86 1.042c.584 0 .756-.88.756-1.062l-1.616.02Z" fill="#F78C6C"/><path d="m3.457 1.896-.12-.25c-.352.039.12.25.12.25Z" fill="#F78C6C"/><path d="M6.308 2.137s-.367-.06-.55-.333c-.184-.273-.704-.82-1.532-.825a6.942 6.942 0 0 0-1.647.218l.715.449c.075-.003.208-.002.426.006.898.03 1.61 1.017 1.61 1.017l2.59-.54" fill="#FFCB6B"/><path d="M6.613 7.003s-.428.425-1.085.289c-.657-.137-1.055-.425-1.085-.926-.03-.5.138-.697.138-.697s.733.228 1.085.53c.351.304.611.79.947.804Z" fill="#fff"/><path d="M6.095 6.852s-.37.168-.786.031c-.543-.18-.579-.74-.579-.74s-.333.97.6 1.157c.75.15 1.193-.281 1.193-.281l-.428-.167Z" fill="#C9C9C9"/><path fill-rule="evenodd" clip-rule="evenodd" d="M7.245.409c-.239.028-.926.69-.886 1.523.003.064.445.044 1.044.016.65-.03 1.482-.068 2.142-.017-.172-.493.267-1.245.267-1.245s-.426-.094-1.058.475C8.672.96 8.501.521 8.7 0c-.926.324-1.16.82-1.23 1.269-.2-.142-.213-.552-.22-.764A1.87 1.87 0 0 0 7.245.41ZM3.538 2.7c-.037.172-.072.332.131.499l.49-.159c-.184-.152-.204-.386-.225-.634v-.001c-.017-.188-.033-.382-.131-.536-.208-.326-.554-.516-.818-.621a2.007 2.007 0 0 1 1.458-.116c.76.243 1.284 1.13 1.314 1.181l.002.002.455-.212c-.025-.04-.697-1.025-1.605-1.315-1.298-.416-2.136.378-2.163.409l-.204.237.309.06c.019.004.666.138.942.57.05.078.062.219.075.369v.002a.86.86 0 0 1-.03.265Z" fill="#AB633B"/><path d="M2.86 6.837s.382-.47.495-1.383c.044-.36-.035-1.069-.16-1.342.022.671-.15 1.342-.15 1.342S2.93 6.701 2.86 6.837Z" fill="#212431"/><path fill-rule="evenodd" clip-rule="evenodd" d="M4.872 2.725Zm0 0 .396-.157c-.007-.043-.08-.434-.7-.865-.614-.429-1.28-.22-1.31-.21l.086.259c.02-.007.595-.198 1.067.175.337.266.46.792.46.798Zm-.978 3.179c-.036.312.165.596.165.596.063-.718.4-.8.4-.8s-.107-.27-.346-.165c-.129.056-.2.214-.219.369Z" fill="#212431"/><path d="M6.256 6.934a.863.863 0 0 1 .012.024s-.624.465-1.263-.007c-.343-.253-.31-.878-.206-1.143.273.061.505.172.698.301-.244-.216-.458-.376-.458-.38l-.278-.077-.54-.184c-.006.04-.203.957.365 1.58.252.278 1.433.897 1.994-.162l-.324.048Z" fill="#212431"/><path d="M6.197 7.002c.352.53 1.238.227 1.223-.334 0 0-.592.325-1.116-.273-.305-.348-1.285-1.31-2.613-.99.917.2 2.132 1.03 2.506 1.597Z" fill="#212431"/><path d="M3.567 8.5c.085.048.383.354.383.813 0 .23-.023 1.384-.137 2.089.172.111.292.135.464.248.086-.817.147-2 .119-2.478-.033-.545-.327-.91-.6-1.066a11.483 11.483 0 0 0-.264-.145c-.467-.25-.95-.51-.95-.952 0-.346.136-.454.28-.568l.015-.013a.828.828 0 0 0 .266-.305c.175-.388.203-1.378 0-1.63-.1-.125-.371-.546-.294-.829a.38.38 0 0 1 .21-.244c.118-.06.278-.09.474-.09.386 0 .814.116 1.034.185.79.248 1.74.963 2.014 1.176l.013.01.174.12-.109-.18c-.007-.012-.698-1.14-1.934-1.553-.24-.08-.713-.216-1.178-.216-.276 0-.51.048-.696.142a.834.834 0 0 0-.444.53c-.156.569.353 1.201.37 1.222.06.104.084.867-.053 1.172-.018.043-.07.084-.136.136-.02.017-.043.034-.067.052-.193.145-.486.363-.486.867 0 .69.705 1.064 1.27 1.364.094.05.182.097.262.143Z" fill="#212431"/><path d="m3.66 3.25-.02-.016c-.225-.185-.185-.367-.146-.543.017-.082.036-.166.028-.252-.012-.145-.024-.282-.068-.35-.265-.416-.906-.55-.913-.55l-.385-.076.256-.296A2.156 2.156 0 0 1 3.866.622c.25 0 .504.041.757.122.948.303 1.623 1.325 1.63 1.335l.027.043-.538.252-.022-.034c-.058-.098-.568-.934-1.29-1.165a1.819 1.819 0 0 0-.556-.085 2.04 2.04 0 0 0-.776.156c.25.111.552.3.744.599.104.163.12.362.137.555.02.24.04.465.21.605l.063.052-.593.193Z" fill="#212431"/><path d="M4.872 2.725c0-.001-.123-.531-.461-.798-.478-.378-1.062-.177-1.067-.175l-.085-.26c.028-.009.695-.218 1.31.211.618.431.692.822.699.865l-.396.157Z" fill="#463014"/><path fill-rule="evenodd" clip-rule="evenodd" d="m4.827 2.735.012.052.48-.19-.006-.035c-.006-.045-.084-.454-.718-.896a1.57 1.57 0 0 0-.903-.278c-.25 0-.428.055-.447.06l-.044.015.114.346.044-.014c.016-.006.163-.053.362-.053.254 0 .476.074.661.22.322.255.443.762.445.773Zm1.348 11.217a.58.58 0 0 0 .37.131c.138 0 .261-.05.346-.14.236-.25.376-.52.41-.602.019-.047.041-.137-.028-.208-.054-.055-.148-.083-.279-.083H6.07c-.172 0-.257.05-.297.09-.06.06-.069.143-.028.246.11.277.358.503.43.566Zm.511-6.919-.489-.031s.125.218.206.501c.092.32-.083.788-.083.788s.652-.733.366-1.258ZM3.723 13.26c0 .34.612 1.972 2.353 2.104l.035-.45c-1.469-.111-1.931-1.507-1.934-1.654H3.95h.227-.454Z" fill="#212431"/><path d="M5.587 12.44a1.124 1.124 0 0 1 .003-.449c-.133-.099-.37-.135-.548-.192-.146-.092-.89.093-1.432-.556-.677-.813-.535-1.299-.535-1.299-.173.192-.342.119-.606 1.012-.266.893.124 1.516.85 2.14.343.296.828.418 1.245.464-.14-.14.239-.153.5-.25-.02-.209.014-.412.17-.575a.89.89 0 0 1 .344-.204l.02-.047a.397.397 0 0 1-.011-.044Z" fill="#fff"/><path d="M5.06 13.305a1.567 1.567 0 0 1-.037-.134c-.012-.049-.072-.188.002-.03a.585.585 0 0 1-.041-.124c-1.176-.002-2.2-.803-2.001-2.487-.154-.203-.37.409-.37.409s-.589 1.696.932 2.353c.506.22.954.377 1.06.313.22.045.418-.107.493-.208a1.135 1.135 0 0 1-.038-.092Z" fill="#C9C9C9"/><path d="M5.565 12.196a.93.93 0 0 1 .1-.417l.016-.028c-.452-.003-.973-.046-1.417-.223-.488-.193-1.098-.856-1.203-1.634 0 0-.918.704-.649 2.21.254 1.413 1.446 1.874 2.806 1.952 0-.01-.153-.324-.105-.517-.772.055-1.635-.24-2.052-.921-.381-.623-.274-1.686-.118-1.842.383 1.198 1.76 1.441 2.622 1.42Z" fill="#212431"/><path d="M5.708 11.339c-.245.712-.745 1.289-.745 1.289s.688-.031.726-.152c.028-.089.62-1.466.848-3.078-.214.349-.808 1.88-.83 1.94Z" fill="#212431"/><path fill-rule="evenodd" clip-rule="evenodd" d="M9.595 8.134c-.128-.308-.363-.89-.363-.89l.362-.05s.398.121.398.427c0 .728.276 1.015.276 1.015s-.533-.167-.673-.502Zm.008 1.562Zm0 0 .78 2.161s.66-.009.571-.139c-.57-.836-1.345-2.012-1.351-2.022Z" fill="#F78C6C"/><path fill-rule="evenodd" clip-rule="evenodd" d="M11.47 1.77c.55-.433 1.376-.273 1.376-.273-.415.089-.447.277-.508.64-.017.1-.036.211-.065.338-.138.591-.586.797-.586.797l-.927-.73s.16-.34.71-.773Zm-.625 6.053c-.894.319-1.376-.25-1.376-.25-.23-.387.206-.933.436-1.07.23-.136 1.925-.773 1.925-.454 0 .318-.091 1.456-.985 1.774Z" fill="#F78C6C"/><path fill-rule="evenodd" clip-rule="evenodd" d="M10.016 2.387c.607.306 1.44.732 1.44.732l-.328.163c.031.05.046.08.046.08l-.336.152s-.82.59-1.323.969c.167-.513.66-1.317.66-1.317s.139-.37-.16-.78Zm1.102 2.788c-.467.037-1.053.255-1.408.755a4.765 4.765 0 0 0-.104.157c-.08.124-.164.255-.26.346-.223.208-.43.301-.62.292.164.2 1.185.126 1.886-.787.376-.49 1.682-.545 1.682-.545s-.379-.28-1.176-.218Zm1.97 1.53c.274.5-1.174.995-1.174.995-.605.22-.648.948-.664 1.481-.05 1.737.691 2.115.736 2.1.004 0-.005-.052-.019-.14-.074-.454-.308-1.894.16-2.756 1.167-.543 1.38-.826 1.507-1.217.206-.637-.603-1.236-.603-1.236s-.219.273.056.773Zm-2.591 7.222s-.632.94-2.499.94l.003 1.019c.918 0 2.094-.95 2.204-1.254l.292-.705Z" fill="#F78C6C"/><path fill-rule="evenodd" clip-rule="evenodd" d="M12.594 6.179c.114.841.504.978.504.978l.024-.023c.1-.097.284-.273.136-.546a2.103 2.103 0 0 0-.24-.353 1.94 1.94 0 0 1-.172-.238c-.138-.228-.115-1.388-.115-1.388s-.252.728-.137 1.57Zm-1.157 5.541a7.467 7.467 0 0 1-.344-1.455c-.082-.736-.052-1.812-.052-1.812s.183.706.344.82c.16.113.458.886.458.886s.16 1.152.236 1.539a.743.743 0 0 1-.253-.005c-.118-.016-.24-.033-.389.027Zm-1.144 1.571s-.172 1.042-.86 1.042c-.584 0-.757-.88-.757-1.062l1.617.02Z" fill="#F78C6C"/><path d="m12.633 1.896.12-.25c.351.039-.12.25-.12.25Z" fill="#F78C6C"/><path d="M9.698 2.137s.367-.06.55-.333c.184-.273.704-.82 1.532-.825a6.942 6.942 0 0 1 1.648.218l-.716.449a7.316 7.316 0 0 0-.426.006c-.898.03-1.618 1.017-1.618 1.017l-2.582-.54" fill="#FFCB6B"/><path d="M9.393 7.003s.428.425 1.085.289c.657-.137 1.055-.425 1.085-.926.03-.5-.137-.697-.137-.697s-.734.228-1.086.53c-.351.304-.61.79-.947.804Z" fill="#fff"/><path d="M9.91 6.852s.372.168.787.031c.543-.18.579-.74.579-.74s.333.97-.601 1.157c-.75.15-1.192-.281-1.192-.281l.428-.167Z" fill="#C9C9C9"/><path fill-rule="evenodd" clip-rule="evenodd" d="M12.468 2.7c.037.172.072.332-.131.499l-.49-.159c.185-.152.205-.387.226-.635.016-.188.032-.382.13-.536.209-.326.554-.516.818-.621a2.006 2.006 0 0 0-1.458-.116c-.757.242-1.28 1.124-1.314 1.18 0 .002-.001.003-.002.003l-.455-.212c.025-.04.697-1.025 1.605-1.315 1.298-.416 2.136.378 2.163.409l.204.237-.308.06c-.015.003-.666.136-.943.57-.05.078-.062.22-.075.37v.001a.86.86 0 0 0 .03.265Zm.183 2.755c.113.913.494 1.382.494 1.382-.068-.136-.184-1.382-.184-1.382s-.172-.672-.15-1.343c-.126.273-.204.983-.16 1.343Z" fill="#212431"/><path fill-rule="evenodd" clip-rule="evenodd" d="M11.595 1.927c-.338.267-.46.797-.46.798l-.397-.157c.007-.043.08-.434.7-.865.614-.429 1.28-.22 1.31-.21l-.086.259c-.017-.006-.593-.199-1.067.175Zm.516 3.977c.037.312-.163.596-.163.596-.064-.718-.4-.8-.4-.8s.106-.27.345-.165c.129.056.2.214.218.369Z" fill="#212431"/><path d="M9.75 6.934a.863.863 0 0 0-.012.024s.624.465 1.263-.007c.343-.253.31-.878.206-1.143a2.069 2.069 0 0 0-.698.301c.245-.216.458-.376.458-.38l.278-.077.54-.184c.006.041.203.957-.365 1.581-.252.277-1.433.896-1.994-.163l.324.048Z" fill="#212431"/><path d="M9.809 7.002c-.352.53-1.238.227-1.223-.334 0 0 .592.325 1.116-.273.305-.348 1.285-1.31 2.613-.99-.917.2-2.131 1.03-2.506 1.597Z" fill="#212431"/><path d="M12.439 8.5c-.085.048-.383.354-.383.813 0 .23.023 1.384.138 2.089-.173.111-.293.135-.465.248-.086-.817-.147-2-.118-2.478.032-.545.326-.91.599-1.066.085-.05.174-.097.264-.145.467-.25.95-.51.95-.952 0-.346-.136-.454-.28-.568l-.014-.013a.827.827 0 0 1-.267-.305c-.174-.388-.203-1.378 0-1.63.1-.125.372-.546.294-.829a.38.38 0 0 0-.21-.244 1.056 1.056 0 0 0-.474-.09c-.386 0-.814.116-1.034.185-.789.248-1.74.963-2.014 1.176l-.013.01-.174.12.109-.18c.007-.012.698-1.14 1.934-1.553.24-.08.713-.216 1.178-.216.276 0 .51.048.696.142.227.115.38.299.444.53.156.569-.353 1.201-.37 1.222-.06.104-.084.867.053 1.172.018.043.07.084.136.136.02.017.043.034.067.052.193.145.485.363.485.867 0 .69-.704 1.064-1.27 1.364-.093.05-.181.097-.261.143Z" fill="#212431"/><path d="M11.599 3.118c-.112-.188-.399-.552-1.059-.871-.737-.357-1.59-.538-2.535-.538H8c-.945 0-1.798.181-2.535.537-.66.32-.947.683-1.059.872l-.048.063.566.125.018-.023.009-.02c.009-.037.085-.238.715-.543.674-.326 1.46-.491 2.336-.491.876 0 1.662.165 2.336.491.63.305.706.506.715.543l.01.02.017.023.566-.125-.048-.063Z" fill="#212431"/><path d="M12.337 3.199c.303-.25.077-.48.101-.764.013-.15.025-.293.075-.371.279-.437.936-.569.943-.57l.308-.06-.204-.237c-.027-.031-.865-.825-2.163-.41-.908.291-1.58 1.276-1.605 1.316l.455.212c.006-.008.537-.934 1.316-1.183.63-.202 1.21-.01 1.458.116-.264.105-.61.295-.818.621-.098.154-.114.348-.13.536-.021.248-.041.483-.226.635l.49.159Z" fill="#463014"/><path d="m11.754 3.057.064-.052c.17-.14.188-.365.209-.605.016-.193.033-.392.137-.555.192-.3.495-.487.744-.599a2.04 2.04 0 0 0-.776-.156c-.191 0-.378.028-.555.085-.723.231-1.233 1.067-1.29 1.165l-.023.034-.538-.251.028-.044c.006-.01.682-1.031 1.629-1.334a2.48 2.48 0 0 1 .757-.123c.912 0 1.45.54 1.455.545l.255.296-.385.075c-.007.002-.648.135-.913.55-.044.07-.056.206-.068.351-.007.087.01.17.029.252.038.176.078.358-.147.543l-.02.016-.592-.193Z" fill="#212431"/><path d="M11.134 2.725c0-.001.123-.531.461-.798.478-.378 1.062-.177 1.067-.175l.085-.26c-.028-.009-.695-.218-1.31.211-.618.431-.692.822-.699.865l.396.157Z" fill="#463014"/><path fill-rule="evenodd" clip-rule="evenodd" d="m10.688 2.597.005-.035c.007-.045.084-.454.718-.896a1.57 1.57 0 0 1 .903-.278c.25 0 .428.055.447.06l.044.015-.114.346-.043-.014a1.23 1.23 0 0 0-.362-.053 1.04 1.04 0 0 0-.662.22c-.324.256-.444.768-.445.773l-.012.052-.48-.19ZM9.115 13.944a2.275 2.275 0 0 1-.41-.603c-.019-.047-.04-.137.029-.208.054-.055.147-.083.278-.083h.925c.172 0 .257.05.297.09.06.06.069.143.028.246-.11.277-.357.503-.43.566a.581.581 0 0 1-.37.131.468.468 0 0 1-.347-.14Zm.694-6.942-.49.031c-.285.525.367 1.258.367 1.258s-.175-.468-.083-.788c.08-.283.206-.501.206-.501Z" fill="#212431"/><path d="M8.003 5.3c-.312 0-.718-.008-1.023-.225 0 0 .4.694 1.023.694v-.088.088c.624 0 1.023-.694 1.023-.694-.305.217-.711.225-1.023.225Z" fill="#F78C6C"/><path fill-rule="evenodd" clip-rule="evenodd" d="M8.003 5.556c.266-.006.546-.071.858-.259 0 0-.455.551-.856.556h-.004c-.4-.005-.856-.556-.856-.556.313.188.592.253.858.259Zm1.893 9.359.034.45c1.74-.133 2.354-1.765 2.353-2.105h-.454c-.003.147-.465 1.543-1.933 1.655Z" fill="#212431"/><path d="M10.42 12.44c.027-.156.03-.303-.004-.449.133-.099.37-.135.548-.192.146-.092.891.093 1.432-.556.677-.813.535-1.299.535-1.299.173.192.342.119.607 1.012.265.893-.125 1.516-.851 2.14-.343.296-.828.418-1.245.464.14-.14-.239-.153-.5-.25.021-.209-.014-.412-.17-.575a.888.888 0 0 0-.344-.204l-.02-.047a.402.402 0 0 0 .011-.044Z" fill="#fff"/><path d="M10.945 13.305c.016-.044.027-.089.038-.134.012-.049.072-.188-.002-.03a.577.577 0 0 0 .04-.124c1.177-.002 2.2-.803 2.002-2.487.154-.203.37.409.37.409s.589 1.696-.932 2.353c-.507.22-.954.377-1.06.313-.22.045-.419-.107-.493-.208a.803.803 0 0 0 .037-.092Z" fill="#C9C9C9"/><path d="M10.44 12.196a.93.93 0 0 0-.1-.417l-.015-.028c.452-.003.973-.046 1.417-.223.488-.193 1.098-.856 1.203-1.634 0 0 .919.704.649 2.21-.254 1.413-1.446 1.874-2.806 1.952 0-.01.153-.324.105-.517.771.055 1.635-.24 2.052-.921.381-.623.274-1.686.117-1.842-.382 1.198-1.758 1.441-2.622 1.42Z" fill="#3F445A"/><path fill-rule="evenodd" clip-rule="evenodd" d="M9.84 12.169c.688 0 .987.208 1.15.382.236.253.273.606.11 1.047-.436 1.174-1.047 2.366-3.095 2.368h-.004c-2.048-.002-2.66-1.194-3.095-2.368-.163-.44-.126-.794.11-1.047.163-.174.462-.382 1.15-.382l1.835-.001H9.84Zm-1.837 3.365c1.903-.002 2.46-1.429 2.668-2.018.115-.327.106-.569-.027-.72-.09-.102-.3-.225-.774-.225h-.497a2695.031 2695.031 0 0 0-2.74 0h-.497c-.475 0-.683.123-.774.226-.133.15-.142.392-.027.719.208.59.765 2.016 2.668 2.018Z" fill="#212431"/><path d="M10.298 11.339c.245.712.745 1.289.745 1.289s-.688-.031-.726-.152c-.028-.089-.62-1.466-.848-3.078.214.349.808 1.88.83 1.94Z" fill="#212431"/></svg>