<svg width="16" height="16" fill="none" xmlns="http://www.w3.org/2000/svg"><path fill-rule="evenodd" clip-rule="evenodd" d="M3 2.287s.678-.3 1.227-.286c.079.002.155.01.226.027l1.971 3.9L9.84 2.88s1.15.419 1.253.82L9.762 4.924a1.344 1.344 0 0 1-.027.21c-.02.074-.04.136-.06.199-.02.063-.04.126-.05.188-.05.25-.04.49.06.647a.628.628 0 0 0 .28.238c.03.016.063.032.099.044l.09.032.109.031c.279.094.558.23.807.397.259.157.498.355.697.595.1.126.19.261.259.408.07.146.13.313.14.48a.954.954 0 0 1-.12.501 1.37 1.37 0 0 1-.309.366c-.1.083-.199.146-.298.208v.011l-.03.282v.01l-.01.011c-.08.22-.21.428-.39.585-.178.157-.408.25-.637.282-.219.031-.448.01-.657-.031a2.398 2.398 0 0 1-.608-.24h-.01a.058.058 0 0 1-.03-.053c-.01-.22.04-.418.12-.606a5.438 5.438 0 0 1-1.325-.345 3.398 3.398 0 0 1-.757-.417 2.51 2.51 0 0 1-.218-.191l-.55 4.125s-1.198.46-2.283-.502l1.189-5.33L3 2.287Zm6.107 3.557c0-.118.01-.236.03-.347L7.07 7.392l-.11.82c.097.136.23.255.373.368.2.157.429.293.668.407.228.125.476.23.724.333l.003.002.264.104.264.104a2.834 2.834 0 0 1 .167-.296 4.32 4.32 0 0 1 .172-.247c.02-.02.06-.031.09-.02l.02.01.004.001c.148.052.295.104.443.145.15.042.3.073.439.063a.664.664 0 0 0 .388-.146c.11-.094.21-.23.27-.387 0-.01.01-.01.019-.01a.236.236 0 0 1 .083.11l.007.015a1.357 1.357 0 0 1 .07.428c.04-.031.09-.073.129-.115.09-.094.17-.198.219-.313a.79.79 0 0 0 .06-.397c-.02-.24-.16-.48-.339-.668a3.097 3.097 0 0 0-1.365-.804l-.1-.021-.119-.032c-.07-.02-.15-.052-.229-.094a1.052 1.052 0 0 1-.408-.365 1.117 1.117 0 0 1-.17-.543Z" fill="#F78C6C"/></svg>