<svg width="16" height="16" fill="none" xmlns="http://www.w3.org/2000/svg"><g fill="#89DDFF"><path fill-rule="evenodd" clip-rule="evenodd" d="M12.159 4.61a.766.766 0 0 1-.13.429 5 5 0 1 1-1.067-1.067.77.77 0 0 1 1.197.64Zm-2.362 7.645a4.602 4.602 0 0 0 1.468-.99A4.6 4.6 0 0 0 12.618 8a4.588 4.588 0 0 0-.876-2.706.77.77 0 0 1-1.036-1.036A4.597 4.597 0 0 0 8 3.382a4.588 4.588 0 0 0-3.265 1.353A4.603 4.603 0 0 0 3.382 8a4.588 4.588 0 0 0 1.353 3.265A4.604 4.604 0 0 0 8 12.618a4.59 4.59 0 0 0 1.797-.363Z"/><path d="m12.029 5.039-.208-.14-.098.146.104.142.202-.148ZM10.96 3.97l-.148.202.142.104.146-.098-.14-.208Zm.304 7.294-.177-.177.177.177Zm-1.468.99.098.23-.098-.23Zm2.458-2.458-.23-.097.23.097Zm0-3.594-.23.097.23-.097Zm-.513-.909.203-.147-.127-.174-.19.099.114.222Zm-1.036-1.036.222.115.099-.191-.174-.127-.147.203Zm-.909-.513.098-.23-.098.23Zm-3.594 0 .097.23-.097-.23Zm-1.468.99-.177-.177.177.177Zm-.99 1.468.23.097-.23-.097Zm0 3.594.23-.097-.23.097Zm.99 1.468-.177.177.177-.177Zm1.468.99-.098.23.098-.23Zm6.033-7.077c.11-.162.173-.358.173-.567h-.5a.515.515 0 0 1-.088.288l.415.279ZM13.25 8c0-1.164-.38-2.24-1.02-3.11l-.403.297c.58.787.923 1.76.923 2.813h.5ZM8 13.25c2.9 0 5.25-2.35 5.25-5.25h-.5A4.75 4.75 0 0 1 8 12.75v.5ZM2.75 8c0 2.9 2.35 5.25 5.25 5.25v-.5A4.75 4.75 0 0 1 3.25 8h-.5ZM8 2.75A5.25 5.25 0 0 0 2.75 8h.5A4.75 4.75 0 0 1 8 3.25v-.5Zm3.11 1.02A5.227 5.227 0 0 0 8 2.75v.5c1.053 0 2.026.343 2.813.923l.297-.403Zm.28-.179c-.21 0-.406.064-.568.173l.279.415a.516.516 0 0 1 .288-.088v-.5Zm1.019 1.02a1.02 1.02 0 0 0-1.02-1.02v.5a.52.52 0 0 1 .52.52h.5Zm-1.32 6.477a4.355 4.355 0 0 1-1.39.937l.196.46c.58-.245 1.1-.596 1.547-1.043l-.354-.354Zm.936-1.388a4.34 4.34 0 0 1-.937 1.388l.354.354a4.854 4.854 0 0 0 1.043-1.547l-.46-.195Zm.343-1.7a4.34 4.34 0 0 1-.343 1.7l.46.195A4.84 4.84 0 0 0 12.868 8h-.5Zm-.343-1.7a4.35 4.35 0 0 1 .343 1.7h.5a4.84 4.84 0 0 0-.383-1.895l-.46.195Zm-.485-.86c.193.267.355.554.485.86l.46-.195a4.847 4.847 0 0 0-.54-.958l-.405.294Zm-.15.19c.168 0 .327-.041.467-.114l-.23-.444a.516.516 0 0 1-.238.058v.5Zm-1.02-1.02c0 .564.457 1.02 1.02 1.02v-.5a.52.52 0 0 1-.52-.52h-.5Zm.114-.467c-.073.14-.114.3-.114.468h.5c0-.086.021-.167.058-.238l-.444-.23ZM9.7 3.975c.306.13.593.292.86.485l.293-.405a4.847 4.847 0 0 0-.958-.54l-.195.46ZM8 3.632c.59 0 1.162.116 1.7.343l.195-.46A4.838 4.838 0 0 0 8 3.132v.5Zm-1.7.343A4.338 4.338 0 0 1 8 3.632v-.5c-.657 0-1.295.129-1.895.383l.195.46Zm-1.388.937A4.353 4.353 0 0 1 6.3 3.975l-.195-.46c-.58.245-1.1.596-1.547 1.043l.354.354ZM3.975 6.3c.22-.52.535-.987.937-1.388l-.354-.354a4.852 4.852 0 0 0-1.043 1.547l.46.195ZM3.632 8c0-.59.116-1.162.343-1.7l-.46-.195A4.838 4.838 0 0 0 3.132 8h.5Zm.343 1.7A4.338 4.338 0 0 1 3.632 8h-.5c0 .657.129 1.295.383 1.895l.46-.195Zm.937 1.388A4.352 4.352 0 0 1 3.975 9.7l-.46.195c.245.58.596 1.1 1.043 1.547l.354-.354Zm1.388.937a4.353 4.353 0 0 1-1.388-.937l-.354.354c.447.447.968.798 1.547 1.043l.195-.46Zm1.7.343a4.35 4.35 0 0 1-1.7-.343l-.195.46A4.84 4.84 0 0 0 8 12.868v-.5Zm1.7-.343a4.339 4.339 0 0 1-1.7.343v.5c.657 0 1.295-.129 1.895-.383l-.195-.46Z"/></g><path d="M8 10.308a2.308 2.308 0 1 0 0-4.616 2.308 2.308 0 0 0 0 4.616Z" fill="#3965BD"/></svg>