<svg width="16" height="16" fill="none" xmlns="http://www.w3.org/2000/svg"><mask id="a" mask-type="alpha" maskUnits="userSpaceOnUse" x="2" y="1" width="12" height="12"><path fill="#fff" d="M2.507 1.593h11.354V13H2.507z"/></mask><g mask="url(#a)"><path d="m10.286 10.053-.84.127-1.136.127-.736.02-.714-.02-.547-.17-.483-.527-.379-1.078-.084-.232-.504-.169-.295-.486-.21-.697.231-.612.547-.19.441.211.21.465.253-.042.084-.106-.084-.486-.021-.612.126-.845-.005-.483.383-.615.673-.486 1.177-.507 1.304.19 1.135.824.525.845.337.612.084 1.52-.252 1.31-.463 1.162-.441.612" fill="#F0D6B7"/><path d="m9.572 13.707-3.006.127v.506l.252 1.774-.126.148-2.102-.718-.148-.253-.21-2.387-.483-1.436-.105-.338 1.681-1.16.526-.212.462.57.4.36.462.148.21.063.253 1.098.189.232.484-.168-.337.654 1.829.866-.231.127" fill="#335061"/><path d="m4.59 6.336.546-.19.442.211.21.465.252-.043.063-.253-.126-.486.126-1.161-.105-.634.379-.443.82-.655-.232-.317-1.156.57-.484.38-.273.592-.42.57-.126.676.084.718" fill="#6D6B6D"/><path d="M5.452 4.351s.315-.781 1.576-1.162c1.261-.38.063-.274.063-.274l-1.366.528-.526.528-.23.422.483-.042M4.82 6.188s-.44-1.478 1.241-1.69l-.063-.253-1.156.275-.336 1.098.084.718.23-.148" fill="#DCD9D8"/><g fill="#F7E4CD"><path d="m5.494 8.152.275-.268s.124.015.145.163c.021.148.084 1.478.988 2.196.083.066-.673-.105-.673-.105l-.672-1.056m3.805-1.331s.049-.64.22-.59c.172.048.172.22.172.22s-.417.272-.392.37m1.745-2.344s-.347.073-.379.38c-.032.307.379.063.442.042m-2.607-.401s-.463.063-.463.359.526.275.673.148M5.704 6.8s-.799-.485-.883-.02c-.084.464-.273.802.126 1.288l-.273-.085-.252-.654-.085-.634.484-.507.546.042.316.254.02.317m.379-1.331s.358-1.858 2.166-2.217c1.488-.296 2.27.063 2.564.4 0 0-1.324-1.583-2.586-1.097-1.26.485-2.186 1.372-2.165 1.943.036.97.021.971.021.971m4.878-1.605s-.61-.021-.631.528c0 0 0 .084.042.169 0 0 .483-.55.778-.254"/><path d="M8.29 4.62s-.105-.844-.82-.354c-.463.317-.42.76-.337.845.084.085.062.255.126.138.064-.117.042-.497.274-.602.231-.106.61-.224.757-.028"/></g><path d="m6.313 10.328-1.976.887s.82 3.273.4 4.287l-.294-.106-.021-1.246-.547-2.365-.231-.655 2.06-1.393.61.59m.203 1.811.28.344v1.267h-.336s-.042-.887-.042-.992c0-.106.042-.486.042-.486" fill-rule="evenodd" clip-rule="evenodd" fill="#49728B"/><path d="m9.971 13.728 1.177-.063s.484-1.225.484-1.289c0-.063.42-1.774.42-1.774l-.946-.992-.189-.17-.505.508v1.964l-.441 1.816" fill="#335061"/><path d="m10.518 9.884 1.471 1.098.042-.506-1.114-1.035-.4.443" fill="#49728B"/><path d="m9.923 13.56-.462-1.183-.484-.697s.105-.296.253-.296h.483l.463.169-.043.781-.21 1.225M7.442 10.37l-.582-.063-.547-.17v.19l.268.296.84.38" fill="#fff"/><path fill-rule="evenodd" clip-rule="evenodd" d="M6.503 10.434s.651.274.862.21l.02.254-.588-.127-.357-.253.063-.085" fill="#DCD9D8"/><path fill-rule="evenodd" clip-rule="evenodd" d="M10.762 11.456a3.974 3.974 0 0 1-.961-.133c.019-.117-.017-.23.012-.314.078-.057.21-.056.33-.07a.571.571 0 0 0-.367-.041c-.003-.08-.039-.13-.06-.194.2-.072.674-.543.94-.387.127.074.18.498.19.704.009.172-.015.344-.084.435" fill="#D33833"/><path clip-rule="evenodd" d="M10.762 11.456a3.974 3.974 0 0 1-.961-.133c.019-.117-.017-.23.012-.314.078-.057.21-.056.33-.07a.571.571 0 0 0-.367-.041c-.003-.08-.039-.13-.06-.194.2-.072.674-.543.94-.387.127.074.18.498.19.704.009.172-.015.344-.084.435Z" stroke="#D33833" stroke-width=".522"/><path fill-rule="evenodd" clip-rule="evenodd" d="m9.056 10.87-.003.082c-.112.073-.291.072-.414.134.18.008.322.052.445.113l-.008.205c-.204.14-.39.35-.63.481-.114.062-.513.223-.634.194-.069-.016-.075-.1-.102-.181-.058-.172-.193-.447-.204-.706-.015-.327-.048-.876.303-.808.283.054.613.185.832.306.134.073.212.164.415.18" fill="#D33833"/><path clip-rule="evenodd" d="m9.056 10.87-.003.082c-.112.073-.291.072-.414.134.18.008.322.052.445.113l-.008.205c-.204.14-.39.35-.63.481-.114.062-.513.223-.634.194-.069-.016-.075-.1-.102-.181-.058-.172-.193-.447-.204-.706-.015-.327-.048-.876.303-.808.283.054.613.185.832.306.134.073.212.164.415.18Z" stroke="#D33833" stroke-width=".522"/><path fill-rule="evenodd" clip-rule="evenodd" d="M9.259 11.26c-.032-.178-.068-.229-.054-.384.474-.317.563.544.054.385Z" fill="#D33833"/><path clip-rule="evenodd" d="M9.259 11.26c-.032-.178-.068-.229-.054-.384.474-.317.563.544.054.385Z" stroke="#D33833" stroke-width=".522"/><path d="M9.944 11.405s-.147-.211-.042-.275c.105-.063.21 0 .273-.105.063-.106 0-.17.021-.296.021-.127.127-.148.232-.169.105-.02.4-.063.441.042l-.126-.38-.252-.084-.8.464-.041.233v.464m-1.913.803a72.84 72.84 0 0 0-.082-.988c-.044-.492.118-.406.542-.406.065 0 .399.078.423.127.114.235-.192.183.132.36.273.15.756-.09.645-.424-.061-.074-.322-.023-.415-.071l-.493-.257c-.209-.109-.691-.268-.914-.115-.565.385.035 1.349.237 1.751" fill="#EF3D3A"/><path d="M8.29 4.62c-.573-.135-.858.24-1.031.629-.155-.038-.094-.25-.055-.358.103-.283.516-.66.854-.609.145.022.342.156.232.337m2.792.655.027.002c.13.27.242.556.405.795-.11.256-.829.482-.818.022.156-.068.424-.013.562-.1-.08-.22-.194-.408-.176-.719m-2.499.008c.123.226.163.464.338.635.078.077.231.17.155.385a.486.486 0 0 1-.221.185c-.274.081-.91.017-.694-.325.226.01.53.147.698-.018-.13-.208-.36-.62-.276-.862m2.396 2.299c-.411.266-.87.554-1.543.487a.46.46 0 0 1-.059-.59c.073.126.027.357.23.392.382.065.827-.235 1.102-.34.17-.29-.015-.395-.168-.581-.315-.38-.737-.853-.721-1.423.127-.092.138.142.156.184.164.386.577.88.879 1.21.074.082.196.16.21.213.038.157-.102.344-.086.448M5.56 7.302c-.129-.074-.16-.4-.31-.409-.217-.013-.178.423-.177.677-.148-.136-.175-.553-.065-.768-.125-.061-.18.068-.25.113.09-.648.944-.3.802.387m5.68.549c-.19.366-.462.77-1.023.78-.011-.117-.02-.297 0-.368.43-.042.695-.261 1.023-.412m-2.69.237c.359.19 1.017.21 1.504.196.026.107.025.24.026.37-.625.031-1.365-.124-1.53-.566m-.067.353c.247.625 1.099.553 1.816.536-.031.08-.1.177-.185.211-.23.094-.864.166-1.184-.005-.202-.108-.332-.352-.443-.496-.054-.069-.32-.245-.004-.246" fill="#231F20"/><path d="M10.95 11.887c-.291.5-.57 1.013-.914 1.455.144-.427.206-1.142.228-1.687.303-.142.562.032.685.232" fill="#82AAFF"/><path d="M9.908 10.302c-.15.098-.277.22-.421.325-.319.016-.493-.022-.727-.206.004-.015.027-.008.028-.026.342.152.775-.063 1.12-.093" fill="#F0D6B7"/><path d="M8.117 12.638c.094-.408.46-.62.794-.844.345.439.554 1.003.785 1.548-.545-.165-1.102-.433-1.58-.704" fill="#82AAFF"/><path fill-rule="evenodd" clip-rule="evenodd" d="M11.383 13.326c.51-.255 1.463-.686 1.783 0 .118.254.256.681.317.943.087.368-.093 1.143-.47 1.267-.333.109-.722.102-1.123.021a.613.613 0 0 1-.137-.18c-.286-.011-.554.016-.78.134.02.202-.108.243-.236.284l-.02.007c-.053.208.005.45.06.686.052.212.1.419.067.59-.047.236-.315.29-.538.334l-.06.012c-.008.133.007.246.022.359l.003.025c-.053.196-.29.308-.516.335-.742.09-1.868.13-2.58-.128-.158-.386-.289-.84-.418-1.288a55.5 55.5 0 0 0-.104-.359c-.571.062-1.052-.18-1.5-.406-.098-.049-.194-.098-.29-.142-.05-.024-.106-.044-.163-.065-.146-.054-.293-.108-.343-.214-.045-.098-.047-.256-.048-.429-.001-.08-.002-.162-.007-.244l-.004-.064c-.04-.635-.08-1.25-.247-1.9a4.229 4.229 0 0 0-.176-.507 5.942 5.942 0 0 1-.131-.353c-.028-.086-.063-.178-.098-.273-.075-.203-.155-.416-.182-.6-.043-.29.145-.38.343-.476.073-.035.147-.07.211-.117.264-.19.487-.32.739-.467.1-.059.206-.12.32-.189l.114-.064c.153-.086.372-.207.403-.271.06-.121-.043-.278-.124-.405a1.066 1.066 0 0 1-.073-.123 1.591 1.591 0 0 1-.155-.58A1.114 1.114 0 0 1 4.498 8c-.254-.375-.43-1.067-.21-1.594a.355.355 0 0 1 .043-.063c.03-.04.065-.085.073-.124.015-.075-.005-.164-.024-.252-.013-.06-.026-.12-.028-.174-.023-.685.116-1.275.575-1.482.156-.627.653-.902 1.181-1.194.1-.055.2-.111.3-.17.21-.123.437-.207.674-.294.029-.01.058-.02.087-.032.96-.354 2.43-.288 3.227.317.337.257.877.798 1.07 1.19.51 1.036.473 2.765.117 4.025l-.004.011a3.99 3.99 0 0 1-.21.61c-.02.04-.052.094-.087.152-.084.14-.184.31-.166.398.02.097.278.314.447.457.058.049.105.089.13.112.042.041.093.085.147.132.17.146.367.315.387.477.023.181-.054.416-.12.615l-.045.144a29.918 29.918 0 0 1-.679 2.066ZM6.24 10.487a2.048 2.048 0 0 1-.16-.18c-.133-.157-.303-.359-.337-.345-.7.277-1.354.756-1.938 1.21.557 1.201.782 2.673.822 4.092.153.072.302.152.451.232.474.253.956.511 1.614.546l-.015-.107c-.094-.67-.18-1.275-.233-1.913-.13-.055-.296-.043-.45-.03-.104.007-.203.015-.284.002-.001-.137.094-.155.184-.173.073-.014.142-.027.153-.101.009-.054-.022-.086-.054-.121-.044-.047-.091-.099-.056-.212.075.027.133.07.19.112a.683.683 0 0 0 .223.123c.103-.225.069-.564.04-.85a2.446 2.446 0 0 1-.02-.38c.005-.053.027-.296.146-.254.068.024.047.283.025.537a3.798 3.798 0 0 0-.02.38c.004.066.003.132.002.196-.002.175-.004.335.07.449a23.82 23.82 0 0 1 2.593-.214l-.162-.067a4.325 4.325 0 0 1-.534-.247 2.726 2.726 0 0 0-.158-.077c-.186-.087-.436-.203-.466-.303-.04-.129.03-.221.1-.315a.518.518 0 0 0 .11-.196c-.383.21-.487-.143-.577-.45l-.028-.093a4.24 4.24 0 0 1-.165-.676l-.115-.056c-.33-.156-.67-.319-.951-.519Zm2.4.203a3.127 3.127 0 0 0-.831-.306c-.344-.066-.32.458-.305.787l.001.021c.01.198.09.404.153.567a3.436 3.436 0 0 1 .067.19c.017.063.033.118.086.13.121.029.52-.132.634-.194.143-.078.267-.184.387-.287a3 3 0 0 1 .244-.194l.008-.205a1.07 1.07 0 0 0-.445-.113c.056-.028.124-.043.192-.058a.673.673 0 0 0 .221-.076l.004-.082a.607.607 0 0 1-.32-.122c-.03-.02-.06-.04-.095-.058Zm.589.431a.653.653 0 0 1-.024-.245c.473-.317.562.544.053.385a1.797 1.797 0 0 0-.03-.14Zm-2.683-.814Zm.506.111c-.194-.014-.387-.028-.506-.11-.182.185.51.438.731.452 0-.058.015-.114.03-.166a.353.353 0 0 0 .023-.147c-.087-.015-.183-.022-.278-.029Zm1.736-.023c0 .01-.007.012-.014.014-.006.003-.012.005-.014.012.234.184.408.222.727.206.06-.044.118-.092.176-.139a2.63 2.63 0 0 1 .245-.186c-.11.01-.23.038-.353.068-.26.062-.535.129-.767.025Zm1.867-.078c.127.074.181.498.191.705.008.17-.015.343-.085.434a3.974 3.974 0 0 1-.96-.133.772.772 0 0 0 .002-.159.42.42 0 0 1 .01-.155c.062-.046.16-.054.257-.063l.072-.007a.571.571 0 0 0-.366-.041.356.356 0 0 0-.039-.14.725.725 0 0 1-.022-.054c.061-.022.148-.08.246-.148.224-.153.51-.348.694-.24Zm.28 1.2c.23-.433.124-1.778-.459-1.494a.788.788 0 0 1 .18-.164.98.98 0 0 0 .216-.204c.142.116.252.227.365.342.082.083.166.168.265.257.03.028.07.058.11.09.127.096.275.209.295.35.011.084-.029.268-.056.397l-.017.078c-.103.513-.335 1.191-.557 1.729l-.041.104c-.067.17-.134.343-.222.378a1.18 1.18 0 0 1-.427.056c-.167.002-.33.004-.463.087.149-.26.304-.514.46-.768.19-.31.38-.62.558-.943-.022-.053-.06-.091-.097-.13a.38.38 0 0 1-.11-.165ZM4.908 4.83c-.269.297-.224.845-.19 1.25l.004.042c.502-.317 1.168.025 1.162.565.192-.005.134-.196.08-.368a1.815 1.815 0 0 1-.034-.123c-.066-.29-.018-.59.029-.887.053-.338.106-.67-.012-.971a1.52 1.52 0 0 0-1.04.492Zm.294-.576c.258-.568 1.064-1.027 1.693-1.206.035-.01.065.014.094.045-.003.075-.059.092-.115.11a.406.406 0 0 0-.054.02.934.934 0 0 1-.185.162 1.212 1.212 0 0 0-.195.165 1.465 1.465 0 0 0-.144.22c-.091.155-.19.323-.3.35a.422.422 0 0 1-.158-.002.51.51 0 0 0-.1-.007c-.106.006-.195.039-.286.072-.078.028-.158.057-.25.07Zm4.966-1.037c-.652-.37-1.757-.649-2.451-.3-.56.28-1.318.744-1.576 1.332.157.369.08.717.001 1.074-.042.193-.085.389-.092.59-.006.161.034.31.074.465.037.14.076.285.081.444-.082.137-.334.154-.509.144-.059-.295-.162-.627-.464-.66-.429-.047-.742.309-.761.681-.023.438.334 1.163.841 1.113.093-.01.152-.058.212-.107.066-.054.133-.109.246-.108.07.143-.013.225-.095.306-.052.05-.102.1-.114.165-.008.043.024.21.043.289.092.382.297.877.5 1.168.256.369.76.424 1.302.46.097-.209.453-.192.686-.137-.279-.11-.538-.38-.752-.617-.247-.273-.497-.566-.51-.922l.046.062c.446.623.833 1.163 1.652 1.44.641.215 1.39-.1 1.882-.447.162-.115.272-.282.384-.451.029-.045.058-.089.088-.132.543-.786.797-1.907.74-2.993l-.007-.177c-.017-.387-.034-.758-.164-1.02-.156-.314-.685-.596-.995-.311-.057-.307.258-.496.628-.386a18.585 18.585 0 0 1-.109-.143c-.232-.307-.483-.639-.807-.822Z" fill="#231F20"/><path d="M7.981 8.248c.028-.037.18-.093.393.01 0 0-.253.042-.232.465l-.105-.021s-.108-.384-.056-.454" fill="#F7E4CD"/><path d="M9.824 11.88a.116.116 0 0 1-.115.116.116.116 0 0 1-.116-.117.115.115 0 1 1 .231.001Zm.116.538a.116.116 0 0 1-.116.117.116.116 0 0 1-.115-.117c0-.064.052-.117.115-.117.064 0 .116.053.116.117Z" fill="#1D1919"/></g></svg>