<svg width="16" height="16" fill="none" xmlns="http://www.w3.org/2000/svg"><path d="M2.892 10.874a.59.59 0 0 0 .222.22l4.533 2.617a.596.596 0 0 0 .602 0l4.534-2.617a.595.595 0 0 0 .3-.522V5.338a.595.595 0 0 0-.3-.522L8.248 2.2a.595.595 0 0 0-.602 0L3.114 4.816a.595.595 0 0 0-.301.522v5.234a.591.591 0 0 0 .08.302" fill="#2ECC71"/><path d="M6.497 9.947c0 .32-.264.583-.583.583a.586.586 0 0 1-.583-.583v-4c0-.31.274-.567.662-.567.304-.003.595.127.795.356l.176.21L9.4 8.86V5.962c0-.32.264-.582.583-.582.32 0 .583.263.583.582v4.002c0 .31-.275.566-.662.566a1.036 1.036 0 0 1-.795-.355L6.496 7.049v2.899Z" fill="#fff"/></svg>