<svg width="16" height="16" fill="none" xmlns="http://www.w3.org/2000/svg"><path fill-rule="evenodd" clip-rule="evenodd" d="M3.745 4.745a1 1 0 0 1 1-1H9.73a1 1 0 0 1 1 1V6.01a2.145 2.145 0 0 1 1.75 0V3a1 1 0 0 0-1-1H3a1 1 0 0 0-1 1v8.48a1 1 0 0 0 1 1h4.763V9.244c0-.488.393-.887.873-.887h.35V6.362a.872.872 0 1 0-1.746 0V9.73a1 1 0 0 1-1 1H4.745a1 1 0 0 1-1-1V4.745Z" fill="#FC8289"/><path fill-rule="evenodd" clip-rule="evenodd" d="M13.57 9.463h-.328v-.665c0-.918-.733-1.664-1.637-1.664s-1.637.746-1.637 1.664v.665H9.64c-.36 0-.654.3-.654.665v3.327c0 .366.294.665.654.665h3.93c.36 0 .655-.3.655-.665v-3.327a.662.662 0 0 0-.655-.665Zm-1.965 2.994c-.36 0-.655-.3-.655-.666 0-.366.295-.665.655-.665.36 0 .655.3.655.665a.662.662 0 0 1-.655.666Zm-1.015-3.66v.666h2.03v-.665c0-.57-.455-1.032-1.015-1.032-.56 0-1.015.463-1.015 1.032Z" fill="#FFCB6B"/></svg>