<svg width="16" height="16" fill="none" xmlns="http://www.w3.org/2000/svg"><path fill-rule="evenodd" clip-rule="evenodd" d="M5.97 10.192c.09.395.09.792-.088 1.188.395.176.395.528.395.88h.043c.44.043.834.043 1.229-.089.175-.044.219-.089.175-.265-.043-.308-.088-.66-.132-.968 0-.265.044-.528.22-.748.131-.22.263-.264.526-.176.483.176.966.176 1.447-.088.176-.09.351-.044.483.088a.766.766 0 0 1 .132.617c-.043.22-.088.484-.175.747.35.176.307.528.307.88h.966c.176 0 .395-.043.57-.132.264-.089.351-.265.308-.528-.044-.528-.132-1.012-.176-1.54 0-.22 0-.44.044-.704 0-.044.043-.176.088-.22.44-.44.702-1.012.878-1.583 0-.044 0-.133.043-.176 0-.089.044-.089.132 0 .044.088.132.176.176.264.088.09.175.176.264.22.088.089.175.044.175-.044-.043-.176-.043-.352-.088-.484-.308-1.1-.878-1.98-1.844-2.596a4.075 4.075 0 0 0-2.019-.66c-.615-.089-1.228-.044-1.843.089-.089 0-.132.043-.176.043-.088.044-.132.133-.088.22 0 .176.043.308.088.484.132.836.044 1.628-.483 2.288-.44.616-1.096.88-1.843.792-.219 0-.351-.132-.44-.308-.218-.308-.263-.66-.35-1.012.043.043.043.089.088.132 0 0 0 .044.044.089l.394.66c.219.265.395.308.746.22a2.075 2.075 0 0 0 1.492-1.76c0-.44 0-.836-.132-1.232-.22-.616-.658-.923-1.272-1.012-.746-.132-1.404 0-2.106.176-.264.089-.526.132-.745.22-.351.176-.57.484-.746.792-.526.793-.745 1.716-.658 2.683.043.837.394 1.54 1.096 2.112.264.22.527.484.79.704a.241.241 0 0 1 .132.22c.089.132.044.264-.088.395-.044 0-.088.044-.132.089-.219.132-.264.308-.088.484.175.132.35.22.57.22.043 0 .088 0 .132-.044.35-.308.526-.66.57-1.1a.735.735 0 0 0-.22-.527c-.088-.176-.263-.309-.394-.485-.043-.088-.132-.176-.219-.308-.043-.089-.088-.176-.043-.308.088-.089.219-.176.35-.133.176.044.351.133.483.22.176.044.308.132.44.22.394.132.526.44.57.792l.003.002Zm-2.413-1.32a.878.878 0 0 1-.57.175h-.264c-.132-.043-.175-.132-.132-.264.044-.044.044-.09.089-.09.175-.219.307-.395.483-.57.043-.09.132-.09.219-.044.175.088.35.352.307.571 0 .044-.088.133-.132.22v.001Zm.044-2.024c0 .133-.132.265-.264.265-.176 0-.264-.132-.308-.265 0-.176.132-.308.264-.308.176.044.264.132.308.308Z" fill="#FF9CAC"/></svg>