<svg width="16" height="16" fill="none" xmlns="http://www.w3.org/2000/svg"><g fill-rule="evenodd" clip-rule="evenodd"><path d="M9.687 3.02 8.25 5.507h2.88l1.444-2.487H9.687ZM8.25 5.507 6.807 8 5.37 10.493h2.88L9.687 8l1.443-2.493H8.25ZM3.926 12.98h2.88l1.444-2.487H5.37L3.926 12.98Z" fill="#F07178"/><path d="M2.49 5.507 3.926 3.02h2.88L5.37 5.507H2.49Zm0 0L1.046 8l1.444 2.493h2.88L3.926 8 5.37 5.507H2.49Zm1.436 7.473 1.444-2.487H2.49l1.436 2.487ZM14.01 5.507 12.575 3.02 11.13 5.507h2.88Zm0 0L15.454 8l-1.444 2.493h-2.88L12.574 8 11.13 5.507h2.88Zm-2.88 4.986L9.693 12.98h2.88l1.438-2.487h-2.88Z" fill="#89DDFF"/></g></svg>