<svg width="16" height="16" fill="none" xmlns="http://www.w3.org/2000/svg"><g clip-path="url(#a)"><path d="m5.25 9.05-1.523.836c-.88-.862-1.71-1.281-2.193-1.934-.616-.832-.419-1.925.944-3.004 2.968-2.26 5.852-2.346 6.553-1.464.645.81-.466 2.57-2.351 3.203-1.156.391-2.26.407-2.83-.238-.076-.107-.195-.012-.155.088.376 1.125 2.1 1.05 3.393.737 2.41-.582 4.218-3.675 2.01-4.882C5.873.882.248 4.318.008 6.736c-.137 1.377 1.648 2.35 3.138 3.47-1.173.627-2.031 1.208-2.324 1.707-.296.47-.402.969-.18 1.502.418.944 1.876.502 2.418.116.862-.613 1.537-1.826.961-3.235l.878-.505.014.011c-.016.052-.033.104-.048.158-.274.883-.186 1.717.242 2.333.183.261.582.29.811.088.234-.206.42-.715.716-1.35-.075.665-.019 1.218.377 1.26.247.025.47-.21.658-.524.492-.824.956-1.846 1.416-2.942.092.453.235.869.436 1.243.05.1.044.163-.025.246l-.855 1.05c-.41.48-.267.727.284.693.78-.07 1.74-.576 1.516-1.617-.084-.389-.19-.444-.105-.546.33-.47.645-1.044.906-1.553.085.44.216.879.445 1.264-.55.494-.95 1.013-.929 1.604.031.235.223.386.453.333.606-.092 1.302-.65 1.387-1.082.048-.245.032-.487-.102-.859 2.459-.822 3.93 1.016 2.745 1.825a.423.423 0 0 0-.122.09c-.038.05-.021.108.05.108.117-.001.21-.058.295-.108 1.173-.691.317-2.607-1.566-2.637a3.578 3.578 0 0 0-1.588.33c-.324-.535-.43-1.025-.34-1.424.045-.187.104-.372.16-.557.024-.095.016-.182-.184-.225a1.553 1.553 0 0 0-.66.05c-.161.043-.14.15-.193.292-.125.647-.599 1.373-1.043 2.143-.157-.282-.29-.62-.26-1.056.015-.22.11-.505.185-.739.035-.097.002-.162-.182-.213-.313-.043-.62.014-.75.094-.101.062-.128.429-.263.729-.556 1.221-1.16 2.69-1.415 3.042-.155-.091.135-1.107.377-2.021.085-.274-.256-.444-.523-.25.258-1.38-.936-1.292-1.873-.108a.327.327 0 0 1-.096.083Zm-1.707 2.287c-.043.57-.3 1.031-.723 1.405-1.089.872-1.722.309-1.174-.633.23-.485 1-.98 1.82-1.475.063.235.094.466.077.703Zm2.026.174c-.313-.749.103-2.164.827-2.689.265-.155.381-.116.361.039-.03.182-.068.364-.12.54-.185.61-.42 1.202-.675 1.785-.188.399-.323.492-.393.325Zm3.38.144.788-.92c.033.341-.548 1.023-.788.92Zm2.32-.525c-.043.01-.06-.021-.036-.147.107-.376.304-.7.614-.97.144.393-.014.906-.578 1.117Z" fill="#FF9CAC"/></g><defs><clipPath id="a"><path fill="#fff" d="M0 0h16v16H0z"/></clipPath></defs></svg>