<svg width="16" height="16" fill="none" xmlns="http://www.w3.org/2000/svg"><path fill-rule="evenodd" clip-rule="evenodd" d="m4.776 13.167-.494-10.25 6.178-.447-.166 1.577.955-.51.795.51v-1.69l-.072.004.38-.028v11.209l-7.576-.375ZM9.003 6.72l1.59-.04c.04-1.56-.76-2.33-2.153-2.33-1.394 0-2.175.8-2.175 2 0 1.202.883 1.726 1.633 2.171.554.329 1.036.615 1.036 1.099 0 .32-.149.51-.475.51-.425 0-.593-.28-.573-1.06h-1.67c-.128 1.93.988 2.37 2.263 2.37 1.235 0 2.204-.58 2.204-1.84 0-1.315-.933-1.837-1.703-2.269-.543-.304-1.005-.562-1.005-1.021 0-.45.316-.51.504-.51.198 0 .553.08.524.92Z" fill="#FF9CAC"/></svg>