<svg width="32" height="32" xmlns="http://www.w3.org/2000/svg"><g fill="none" fill-rule="evenodd"><path d="m19.284 25.77 6.974-19.392c.118-.329-.068-.569-.416-.535l-5.484.528c-.348.034-.724.329-.839.659l-6.455 18.532c-.115.33.076.598.425.598h5.338a.483.483 0 0 0 .424-.298l.033-.092Z" fill="#78909C"/><path fill="#EBEBEB" fill-rule="nonzero" d="m18.489 25.862-2.904-8.387.415-.26 2.955 8.555z"/><path d="m6.158 5.843 5.484.528c.348.034.724.329.84.659l6.591 18.832c.058.164-.037.298-.212.298h-5.372a.965.965 0 0 1-.847-.596l-6.9-19.186c-.118-.329.068-.569.416-.535Z" fill="#3965BD"/></g></svg>