<svg width="16" height="16" fill="none" xmlns="http://www.w3.org/2000/svg"><g fill-rule="evenodd" clip-rule="evenodd"><path d="M7.876 3a.603.603 0 0 0-.33.09L2.972 5.337a.498.498 0 0 0-.306.446v5.436c0 .193.12.36.306.446l4.574 2.245a.61.61 0 0 0 .33.091c.122 0 .238-.03.33-.09l4.574-2.246a.498.498 0 0 0 .307-.446V5.782a.498.498 0 0 0-.307-.446L8.206 3.091A.603.603 0 0 0 7.876 3Zm0 1.088L11.93 6.08v1.064h-.01v3.503h.01v.273l-4.053 1.992-4.053-1.992V6.08l4.053-1.992ZM5.04 6.57l2.836-1.43 2.837 1.43-2.837 1.432L5.04 6.571Zm-.058 1.138v1.81l2.316 1.168v-1.81L4.981 7.708Zm3.474 1.167 2.316-1.167v1.81l-2.316 1.168v-1.81Z" fill="#89DDFF"/><path d="M7.876 5.14 5.04 6.57l2.837 1.432 2.837-1.431L7.876 5.14ZM4.981 7.709v2.696l2.316 1.167V8.876L4.981 7.71Zm3.474 1.167 2.316-1.167v2.696l-2.316 1.167V8.876Z" fill="#3965BD"/></g></svg>