<svg width="16" height="16" fill="none" xmlns="http://www.w3.org/2000/svg"><path d="M5.085 3.144 6.5 5.501l-1.298 2.16a.653.653 0 0 0 0 .675L6.5 10.501l-1.414 2.358a1.458 1.458 0 0 1-.634-.552L2.2 8.693a1.3 1.3 0 0 1 0-1.386l2.25-3.614a1.46 1.46 0 0 1 .635-.549Zm6.463.549 2.25 3.614c.27.426.27.96 0 1.386l-2.25 3.614a1.45 1.45 0 0 1-.549.507 1.596 1.596 0 0 1-.75.186H8l2.8-4.664a.653.653 0 0 0 0-.672L7.998 3h2.25c.264 0 .523.064.75.186.228.122.418.297.55.507Z" fill="#F78C6C"/><path d="M5.749 13c-.23 0-.462-.05-.664-.141l2.776-4.627a.447.447 0 0 0 0-.464L5.085 3.144C5.292 3.05 5.52 3 5.75 3H8l2.8 4.664a.653.653 0 0 1 0 .672L7.998 13H5.75Z" fill="#FFCB6B"/></svg>