<svg width="16" height="16" fill="none" xmlns="http://www.w3.org/2000/svg"><path fill-rule="evenodd" clip-rule="evenodd" d="M12.5 11V3.5A1.5 1.5 0 0 0 11 2H3.75A1.75 1.75 0 0 0 2 3.75V5h2.5v7.5A1.5 1.5 0 0 0 6 14h6.25A1.75 1.75 0 0 0 14 12.25V11h-1.5ZM3 4v-.25a.75.75 0 0 1 1.5 0V4H3Zm7 1.793-.707.707 1 1-1 1 .707.707 1.354-1.354a.5.5 0 0 0 0-.707L10 5.793Zm-3.854 2.06a.5.5 0 0 1 0-.707L7.5 5.793l.707.707-1 1 1 1-.707.707-1.354-1.354ZM12.25 13a.75.75 0 0 0 .75-.75V12H8v.25c0 .293-.061.54-.162.75h4.412Z" fill="#C3E88D"/></svg>