<svg width="16" height="16" fill="none" xmlns="http://www.w3.org/2000/svg"><path d="M12.8 11.604c-.618.147-.93.282-1.694.78-1.196.773-2.5 1.133-2.5 1.133s-.109.162-.421.236c-.54.131-2.574.243-2.76.247-.497.004-.802-.128-.887-.332-.258-.619.37-.89.37-.89s-.138-.084-.22-.162c-.073-.073-.15-.22-.173-.166-.096.236-.146.812-.405 1.07-.355.36-1.026.24-1.424.032-.436-.232.031-.777.031-.777s-.235.139-.424-.147c-.17-.263-.328-.711-.286-1.264.054-.638.756-1.248.756-1.248s-.123-.932.282-1.886c.367-.87 1.354-1.57 1.354-1.57s-.83-.915-.52-1.746c.2-.541.281-.537.347-.56.231-.09.455-.186.621-.368.83-.896 1.887-.726 1.887-.726s.494-1.519.957-1.221c.143.092.656 1.236.656 1.236s.548-.32.61-.2c.331.645.37 1.878.223 2.627-.247 1.237-.864 1.902-1.11 2.32-.059.096.663.401 1.118 1.665.42 1.155.046 2.126.112 2.234.012.019.015.027.015.027s.483.038 1.451-.56c.517-.321 1.13-.68 1.83-.688.675-.012.71.784.204.904Z" fill="#89DDFF"/></svg>