<svg width="16" height="16" fill="none" xmlns="http://www.w3.org/2000/svg"><g fill-rule="evenodd" clip-rule="evenodd"><path d="M8.962 13.901V10.92c0-.488.393-.887.873-.887h.786v-.314c0-.302.06-.589.166-.85a3.351 3.351 0 0 0-.592-.687c-.092-.084-.143-.131-.126-.16.051-.086.118-.183.194-.293.293-.424.722-1.045.917-2.026.147-.75.108-1.982-.223-2.628-.062-.12-.61.201-.61.201S9.834 2.131 9.69 2.04c-.463-.298-.957 1.22-.957 1.22s-1.057-.17-1.887.727c-.166.182-.39.279-.621.368a.489.489 0 0 1-.012.004c-.064.02-.147.047-.336.556-.308.83.521 1.747.521 1.747s-.987.7-1.354 1.569c-.405.954-.282 1.886-.282 1.886s-.702.61-.756 1.248c-.042.553.116 1.001.286 1.264.189.286.424.147.424.147s-.467.545-.03.777c.397.208 1.068.328 1.423-.031.178-.179.257-.508.321-.773.029-.119.054-.225.084-.298.015-.035.054.015.099.075.024.032.05.066.075.091.08.078.22.163.22.163s-.63.27-.37.889c.084.204.389.336.887.332.107-.002.837-.041 1.536-.099Z" fill="#89DDFF"/><path d="M15.25 10.667h-.375v-.762C14.875 8.853 14.035 8 13 8c-1.035 0-1.875.853-1.875 1.905v.762h-.375a.758.758 0 0 0-.75.762v3.81c0 .418.338.761.75.761h4.5c.412 0 .75-.343.75-.762v-3.81a.758.758 0 0 0-.75-.761ZM13 14.095a.758.758 0 0 1-.75-.762c0-.419.338-.762.75-.762s.75.343.75.762c0 .42-.338.762-.75.762Zm-1.162-4.19v.762h2.325v-.762c0-.652-.522-1.181-1.163-1.181s-1.162.53-1.162 1.18Z" fill="#FFCB6B"/></g></svg>