<svg width="16" height="16" fill="none" xmlns="http://www.w3.org/2000/svg"><path d="M2 8a6 6 0 1 1 12 0A6 6 0 0 1 2 8Z" fill="#2B2256" stroke="#C1C9E7"/><path d="M7.104 9.761c.908 0 1.558-.552 1.6-1.39H7.84c-.056.413-.341.672-.735.672-.493 0-.8-.417-.8-1.108 0-.684.31-1.101.798-1.101.393 0 .688.273.732.688h.862c-.027-.832-.703-1.406-1.594-1.406-1.05 0-1.711.671-1.711 1.821 0 1.153.656 1.824 1.711 1.824ZM9.282 9.7h.866V7.679h.494V7.06h-.518v-.115c0-.154.1-.246.337-.246.068 0 .141.007.19.014v-.537a2.393 2.393 0 0 0-.42-.037c-.695 0-.95.242-.95.767v.154h-.353v.618h.354V9.7Z" fill="#fff"/></svg>