<svg width="16" height="16" fill="none" xmlns="http://www.w3.org/2000/svg"><path d="M8.256 7.945c.027-.948-.72-2.308-3.534-2.181l-1.238.002v4.465l1.28-.002c1.495-.006 3.39-.302 3.492-2.284ZM13.663 3H2.337C1.598 3 1 3.635 1 4.42v7.16c0 .784.598 1.42 1.337 1.42h11.326c.739 0 1.337-.636 1.337-1.42V4.42C15 3.635 14.402 3 13.663 3Zm-4.25 2.434c1.352-1.024 2.738-.345 3.24.593.5.934-.1 2.508-1.971 2.466-.248 1.312-1.58 3.265-5.37 3.112H2.625c-.183-.02-.307-.098-.297-.308L2.32 4.653c0-.13.11-.237.251-.254l2.91-.004c1.844.007 2.923.273 3.932 1.04Zm3.369-.166c-.432-.22-.432-.769 0-.987.432-.219.976.056.976.493s-.544.712-.976.494Z" fill="#FC8289"/></svg>