<svg width="32" height="32" xmlns="http://www.w3.org/2000/svg"><g fill="none" fill-rule="evenodd"><path d="M4 21.056V10h3.904c1.547 0 2.87.547 3.968 1.64 1.099 1.093 1.648 2.408 1.648 3.944 0 1.547-.55 2.87-1.648 3.968-1.099 1.099-2.421 1.648-3.968 1.648H4v-.144Zm2.496-2.064h1.536c.896 0 1.64-.312 2.232-.936.592-.624.888-1.395.888-2.312 0-.907-.296-1.672-.888-2.296-.592-.624-1.336-.936-2.232-.936H6.496v6.48Z" fill="#13ADC7" fill-rule="nonzero"/><path d="m15.414 24.01-4.992-10.767c-.053-.107-.05-.203.008-.288.059-.086.147-.128.264-.128h2.128c.139 0 .23.058.272.176l2.64 5.84h.096l2.64-5.84c.043-.118.133-.176.272-.176h2.128c.117 0 .205.042.264.128.059.085.061.181.008.288L16.118 24.01c-.064.117-.155.176-.272.176h-.16c-.117 0-.208-.059-.272-.176Z" fill="#8251A8"/><path d="M19.464 19.856c-1.12-1.12-1.68-2.48-1.68-4.08s.563-2.963 1.688-4.088S21.96 10 23.56 10c1.493 0 2.784.496 3.872 1.488.16.15.165.299.016.448L26.2 13.232c-.139.128-.272.128-.4 0a3.132 3.132 0 0 0-2.16-.816c-.896 0-1.643.323-2.24.968-.597.645-.896 1.421-.896 2.328 0 .896.301 1.661.904 2.296.603.635 1.352.952 2.248.952.832 0 1.547-.256 2.144-.768.15-.128.288-.123.416.016l1.248 1.328c.139.139.133.283-.016.432-1.067 1.035-2.363 1.552-3.888 1.552-1.6 0-2.965-.555-4.096-1.664Z" fill="#EE9D5C"/></g></svg>