<svg width="16" height="16" fill="none" xmlns="http://www.w3.org/2000/svg"><path fill-rule="evenodd" clip-rule="evenodd" d="M8 3.375h5.6c.77 0 1.4.619 1.4 1.375V7l-1.4-1.4v-.85h-.85a1.8 1.8 0 0 0-2.5 0H2.4v6.875h3.24c.041.051.085.1.133.148L7 13H2.4c-.77 0-1.4-.619-1.4-1.375l.007-8.25C1.007 2.619 1.63 2 2.4 2h4.2L8 3.375Z" fill="#2979FF"/><path d="M15.83 10.1 11.9 6.17a.58.58 0 0 0-.819 0l-.816.816L11.3 8.02a.688.688 0 0 1 .872.877l.997.998a.688.688 0 0 1 .713 1.139.69.69 0 0 1-1.126-.75l-.93-.93v2.448a.69.69 0 1 1-.567-.02v-2.47a.69.69 0 0 1-.374-.904l-1.02-1.021L7.17 10.08a.58.58 0 0 0 0 .82l3.93 3.93a.58.58 0 0 0 .82 0l3.91-3.912a.58.58 0 0 0 0-.82Z" fill="#FC8289"/></svg>