<svg width="16" height="16" fill="none" xmlns="http://www.w3.org/2000/svg"><path opacity=".8" fill-rule="evenodd" clip-rule="evenodd" d="M2.4 2h4.2L8 3.375h5.6c.77 0 1.4.619 1.4 1.375v.834a1.809 1.809 0 0 0-.35-.034h-6.3a1.8 1.8 0 0 0-1.8 1.8V13H2.4c-.77 0-1.4-.619-1.4-1.375l.007-8.25C1.007 2.619 1.63 2 2.4 2Z" fill="#4A616C"/><path fill-rule="evenodd" clip-rule="evenodd" d="M13.257 9.786c.04 0 .054.01.054.058v.857c.001.524.002 1.048-.003 1.571-.01.93-.579 1.579-1.368 1.708a1.573 1.573 0 0 1-1.697-.966c-.083-.2-.133-.41-.141-.63-.015-.347-.012-.696-.01-1.044l.002-.505c0-.067-.015-.083-.076-.083h-.494c-.274-.001-.548-.003-.822.004-.274.007-.481-.233-.475-.523.006-.303.005-.607.004-.911a33.246 33.246 0 0 1 0-.547c0-.058-.014-.076-.067-.072-.058.003-.116.002-.174.002l-.074-.001V8.69c.04-.09.094-.17.149-.25a68.428 68.428 0 0 1 .54-.833c.051-.08.068-.08.121.002.221.34.442.68.662 1.023l.007.01c.012.018.025.037.013.06-.011.02-.033.019-.053.018a5.63 5.63 0 0 1-.06 0h-.1c-.062.001-.068.007-.068.077v.905c0 .043.013.066.055.066h.833c.057 0 .057-.038.057-.08V8.595a3.592 3.592 0 0 1 .035-.644c.114-.647.456-1.086 1.02-1.32.127-.053.261-.08.398-.092h.253c.024.01.048.01.073 0h.012l.082.018c.05.01.101.021.15.036.622.18 1.021.603 1.172 1.293.046.21.044.424.043.638v.143c0 .03-.014.036-.038.036a99.34 99.34 0 0 0-.887 0c-.035 0-.038-.019-.038-.049v-.097c0-.097 0-.195-.002-.292-.008-.399-.254-.664-.62-.673a.655.655 0 0 0-.311.062c-.24.116-.351.327-.359.604-.004.166-.003.333-.003.5v3.406c0 .106.005.21.031.313a.614.614 0 0 0 .507.462.663.663 0 0 0 .536-.144.603.603 0 0 0 .217-.472c.005-.329.005-.658.005-.986l.001-.538c.001-.047-.022-.047-.05-.047h-.164c-.162 0-.324 0-.485.002-.05 0-.065-.015-.064-.07.003-.277.003-.555.002-.832 0-.047.006-.068.057-.068.537.002 1.075.002 1.612.001Zm2.674 2.044H16c.004.021-.004.033-.011.044a.093.093 0 0 0-.006.01l-.428.663-.25.388c-.021.032-.036.05-.064.005l-.435-.673-.255-.393-.002-.004a.037.037 0 0 1-.007-.038l.064-.001c.05-.002.099-.003.148.002.06.005.072-.018.072-.08a57.71 57.71 0 0 1 0-.93c0-.059-.013-.075-.067-.075-.296 0-.295 0-.287.001l-.286.002c-.064 0-.076-.02-.075-.085.003-.277.002-.554 0-.831 0-.045.01-.06.054-.06a287.795 287.795 0 0 0 1.097 0c.251.002.442.213.443.487.001.498.001.994-.001 1.492 0 .06.014.082.07.078a1.67 1.67 0 0 1 .158-.002Z" fill="#80CBC4"/></svg>