<svg width="16" height="16" fill="none" xmlns="http://www.w3.org/2000/svg"><path fill-rule="evenodd" clip-rule="evenodd" d="M11.68 3.462c.504.01 1.217.229 1.616.96.767 1.33.09 2.85-.625 4.09-.176.307-.377.578-.575.845-.606.814-1.18 1.585-.896 3.181H9.855s-2.313-3.105-3.226 0H5.597c-.211-1.531-1.444-1.59-1.79 0H2.456S1.718 8.22 4.442 7.241c0 0 .247.587.566 1.095.354.565 1.276.955 2.35-.66 0 0-1.443 1.599-2.102.504-.196-.325-.268-.44-.334-.558-.074-.132-.141-.269-.367-.708-.316-.613.05-.878.848-1.141.798-.264 2.559-.697 4.37.61 1.81 1.308 3.258-.58 2.789-1.498-.199-.39-.496-.53-.72-.556a1.025 1.025 0 0 0-.632.11l-.015.008c-.074.042-.241.135-.337-.008a3.548 3.548 0 0 1-.208-.412c-.096-.229.412-.577 1.03-.565ZM9.37 7.554s-.255.721.456.958c.538.178.957-.25 1.005-.474-.84-.28-1.461-.484-1.461-.484Z" fill="#3965BD"/></svg>