<svg width="48" height="48" fill="none" xmlns="http://www.w3.org/2000/svg"><path d="m12.976 36.752 10.118 5.019c.583.263 1.231.345 2.031 0l10.08-5.019a2.36 2.36 0 0 0 1.279-2.204l2.483-23c.252-1.291-.97-2.495-2.295-2.548H11.321c-1.28.103-2.519 1.047-2.295 2.623l2.558 23.19c.166.96.456 1.405 1.392 1.94Zm5.98-5.284-5.604-5.664c-1.134-.85-.731-2.206 0-2.89l5.642-5.702c1.984-1.757 4.442.86 2.746 2.775l-4.288 4.41 4.25 4.296c1.763 2.178-1.045 4.44-2.746 2.775Zm16.287-5.702-5.642 5.702c-1.924 1.717-4.499-.81-2.746-2.775l4.25-4.296-4.287-4.334c-1.66-1.706.636-4.574 2.746-2.775l5.604 5.664c.809.851.767 2.112.075 2.814Z" fill="#F78C6C"/></svg>