<svg width="14" height="14" fill="none" xmlns="http://www.w3.org/2000/svg"><g clip-path="url(#a)"><path d="M9.749 3.064c-1.063.32-2.214.76-2.845 1.722-.45.7-.123 1.6.404 2.158.365.359.22.948-.153 1.242-.392.342.06.282.288.117.555-.343 1.176-.97.938-1.684-.186-.54-.887-.987-.64-1.618.481-.867 1.483-1.249 2.237-1.838.29-.193-.117-.073-.23-.1ZM7.895 0l.1.464c.582 2.307-2.317 2.835-3.01 4.471-.284.836.376 1.599.905 2.17.363.368.732.742 1.157 1.048-.194-.981-1.286-1.613-1.188-2.668.195-1.013 1.257-1.457 1.866-2.188C8.736 2.174 8.96.999 7.895 0Z" fill="#FC8289"/><path d="M5 10.714c-.303.08-.845.28-.698.688.28.444.882.508 1.356.604a6.272 6.272 0 0 0 3.55-.535c-.377-.118-.73-.342-1.078-.479-1.013.207-2.094.294-3.102.023.052-.12.514-.396.128-.312L5 10.714Zm-.325-1.47c-.302.122-.84.266-.788.688.186.421.748.46 1.142.552 1.5.218 3.038.026 4.478-.423-.318-.119-.657-.231-.892-.489-1.276.253-2.624.38-3.9.11-.18-.094.184-.27.204-.366.36-.309-.125-.046-.244-.072Zm-1.818 3.104c.464-.309 1.036-.389 1.584-.313-.257-.186-.492-.397-.83-.35-.637.063-1.319.229-1.783.696-.23.27.096.58.373.612 2.354.443 4.808.508 7.173.095.617-.161 1.355-.232 1.802-.73.208-.354-.282-.612-.569-.635-.118.03.21.24.202.395-.29.32-.801.31-1.205.412-3 .39-5.964.234-6.747-.182Zm6.426-3.71c.23-.124.471-.221.66-.406-.742-.044-1.468.2-2.206.226-1.2.074-2.43.21-3.618-.017-.184-.043.15-.139.197-.176.427-.19.9-.232 1.311-.463-.17-.04-.336-.111-.514-.09-.77.044-1.564.233-2.207.663-.228.216.056.495.291.524 1.636.452 5.348.225 6.086-.261Zm1.232-1.053c-.39-.001-.764.185-.923.56-.183.248.306-.113.47-.11.52-.216 1.152.35.904.885-.257.649-.95.96-1.472 1.332-.434.356-.295.372.168.204.837-.245 1.842-.637 2.117-1.55.198-.75-.532-1.39-1.264-1.32Zm-7.283 5.736c.605.587 1.508.547 2.287.64 1.777.076 3.603.092 5.311-.443.488-.158 1.11-.542.974-1.149.04-.363-.143.115-.22.178-1.056 1.046-5.76 1.19-8.352.774Z" fill="#80CBC4"/></g><defs><clipPath id="a"><path fill="#fff" d="M0 0h14v14H0z"/></clipPath></defs></svg>