<svg width="16" height="16" fill="none" xmlns="http://www.w3.org/2000/svg"><path d="M11.051 10.53c.548.733-.916 1.266-1.506.207l-.802.465.05.081c.302.509.773.807 1.411.893 1.396.166 2.308-.724 1.813-1.988-.352-.723-1.273-.86-1.81-1.216-.316-.184-.25-.574.004-.73.197-.122.65-.137.884.347l.767-.494c-.605-1.091-2.036-.871-2.465-.376-.583.685-.416 1.45.097 1.941.4.382 1.026.512 1.557.87Zm-3.624 1.545c.442-.179.7-.548.77-1.098.005-.056.01-3.605.01-3.605h-.973l-.007 3.511c-.023.227-.159.39-.357.422-.34.055-.565-.044-.8-.485l-.792.479c.34.798 1.362 1.09 2.149.776ZM3.877 3h8.247c.485 0 .876.39.876.876v8.248c0 .485-.39.876-.876.876H3.876A.875.875 0 0 1 3 12.124V3.876C3 3.391 3.39 3 3.876 3Z" fill="#FFCB6B"/></svg>