<svg width="16" height="16" fill="none" xmlns="http://www.w3.org/2000/svg"><g clip-rule="evenodd"><path d="M8.26 13.646a5.385 5.385 0 1 0 0-10.77 5.385 5.385 0 0 0 0 10.77Z" stroke="#42A5F5" stroke-width="1.043"/><path fill-rule="evenodd" d="M8.327 4.945c-1.868 0-3.382 1.49-3.382 3.33 0 1.838 1.514 3.328 3.382 3.328a3.41 3.41 0 0 0 2.392-.975c.635-.624.991-1.47.991-2.354 0-.883-.357-1.73-.99-2.354a3.41 3.41 0 0 0-2.393-.975Zm.97 1c.322 0 .632.125.86.35.228.224.356.529.356.846 0 .66-.545 1.196-1.216 1.195-.67 0-1.214-.535-1.215-1.195 0-.66.544-1.196 1.215-1.196Zm2.839-.394c.671 0 1.215-.535 1.215-1.196 0-.66-.544-1.196-1.215-1.196s-1.215.535-1.215 1.196c0 .66.544 1.196 1.215 1.196Z" fill="#3965BD"/></g></svg>