<svg width="16" height="16" fill="none" xmlns="http://www.w3.org/2000/svg"><path d="M4.878 7.5 2 8.505 4.225 10 6 8.33 4.877 7.5Z" fill="#89DDFF"/><path d="M10.19 2.805c-.26.034.076-.285-.295 0-.355.273-1.378 1.898-1.924 2.445-.487.486-.68.23-1.185.636-.506.407-1.286 1.22-1.286 1.22L6.76 8l2-2.638c.471-.622.466-.704.723-1.358.126-.32.35-.565.547-.866.246-.376.33-.355.16-.333Z" fill="#69A7D3"/><path d="M10.181 2.5c-.583-.004-1.157 2.563-2.155 4.532C7.01 9.04 5 10.334 5 10.334c.339.154.647.092 1.012.437.25.302.971 1.792 1.402 2.729 0 0 .353-.192.802-.517.448-.325.99-.783 1.368-1.313.502-.704.894-1.14 1.226-1.406.332-.265.604-.36.866-.383C12.613 9.8 14 11.483 14 11.483S11.097 2.506 10.181 2.5Z" fill="#FC8289"/></svg>