<svg width="16" height="16" fill="none" xmlns="http://www.w3.org/2000/svg"><path d="M2 7.24V4.284c0-.835.677-1.512 1.512-1.512h8.976c.835 0 1.512.677 1.512 1.512v8.944H9.02s-.33-.868-.394-1.294c-.017-.11.016-.22-.019-.324-.028-.089-.094-.098-.136-.17-.112-.193-.23-.441-.239-.676-.01-.21-.087-.403-.098-.611-.005-.101.007-.207.002-.305a.997.997 0 0 0-.03-.232l.025-.066c-.011-.023.225-.014.296-.014.12.003.232.007.351.014.244.012.464.01.7-.028.528-.082.772-.298.896-.387.485-.349.706-.92.706-.92.08-.179.08-.498.25-.64.202-.17.542-.158.774-.26.136-.062.234-.094.373-.064.103.021.288.14.33-.026-.035-.02-.047-.063-.066-.084.193-.019.005-.462-.072-.55-.117-.137-.312-.2-.518-.254-.246-.066-.469-.14-.701-.096-.405.08-.375-.152-.614-.152-.286 0-.795.014-.884.292-.04.13-.084.136-.154.235-.061.084.011.162-.021.258-.03.1-.078.452-.127.576-.082.209-.178.469-.359.469-.25.03-.45.04-.654-.035-.121-.045-.328-.115-.43-.157-.472-.197-.55-.415-.55-.415a32.174 32.174 0 0 1-.62-1.298 1.417 1.417 0 0 0-.319-.49c-.145-.132-.281-.333-.579-.275-.054.01-.246.02-.394.143-.1.085-.13.258-.225.406-.054.084-.147.328-.234.53-.061.14-.09.246-.152.297-.052.04-.176.14-.338-.023-.06-.063-.21-.326-.321-.516-.321-.558-.448-.808-.816-.81-.468-.003-.504.262-.71.644 0-.003-.206.776-.949 1.322Zm0 3.425v2.562h2.325s.188-.725.23-.872c.035-.113.08-.204.098-.32.017-.11-.002-.215-.012-.313-.023-.25.183-.34.282-.556.089-.194.14-.414.213-.614.07-.19.18-.459.37-.555-.023-.026-.394-.038-.492-.05a9.01 9.01 0 0 1-.935-.17 6.245 6.245 0 0 1-.605-.211c-.204-.094-.337-.347-.497-.321-.1.016-.199.051-.262.152-.052.084-.068.227-.106.323-.042.113-.112.216-.175.321-.11.195-.361.406-.434.624Zm6.466 2.17c-.044-.094-.1-.276-.138-.358a2.283 2.283 0 0 0-.197-.336c-.117-.138-.145-.147-.18-.32a5.762 5.762 0 0 0-.406-1.229c-.096-.194-.258-.358-.405-.499-.13-.124-.417-.333-.469-.323-.473.093-.619.557-.841.925-.125.204-.253.375-.352.593-.089.2-.082.42-.234.59-.157.177-.26.362-.338.59-.014.041-.147.759-.147.759h3.86l-.007-.017a5.791 5.791 0 0 0-.146-.375Z" fill="#FFCB6B"/></svg>