<svg width="16" height="16" fill="none" xmlns="http://www.w3.org/2000/svg"><path fill-rule="evenodd" clip-rule="evenodd" d="M5.156 12.113c-.192-.132-.343-.26-.343-.26l4.93-8.539a5.157 5.157 0 0 1 .757.356 5.002 5.002 0 0 1 1.83 6.83 5.002 5.002 0 0 1-6.83 1.83s-.167-.096-.344-.217Zm4.927-7.721-4.166 7.216a4.169 4.169 0 0 0 5.691-1.525 4.169 4.169 0 0 0-1.525-5.691Zm-6.186 6.467A5 5 0 0 1 8 3s.233 0 .427.018c.293.028.487.066.487.066L4.199 11.25s-.112-.116-.302-.391Zm3.604-6.995a4.161 4.161 0 0 0-3.11 2.053 4.161 4.161 0 0 0-.222 3.72L7.5 3.863Z" fill="#B2CCD6"/></svg>