<svg width="16" height="16" fill="none" xmlns="http://www.w3.org/2000/svg"><g clip-path="url(#a)"><path d="M6.985 12.352c-.062.124-.323.037-.608-.062-.286-.1-1.254-.496-1.813-1.13a3.345 3.345 0 0 1-.819-2.283c.025-.807.248-1.142.62-1.664.373-.52 1.404-1.29 1.726-1.49.323-.198.758-.533.968-.806.211-.273.323-.497.31-.869-.012-.372.026-.708.013-.831-.012-.125-.012-.373.1-.323.11.05.123.186.123.323 0 .136-.037.694-.074 1.24-.038.547-.472 1.006-.794 1.329-.323.322-1.254 1.328-1.602 1.824a2.784 2.784 0 0 0-.484 1.7c.038.559.174 1.105.695 1.688.521.584.881.857 1.154.994.273.136.546.235.485.36Zm.457.596c-.09.108-.243.174-.261.13-.019-.043.11-.068.205-.174.087-.097.064-.278.126-.281.05-.002.019.216-.07.325Zm.225-.907c-.174.224-.88-.546-1.254-.992-.372-.447-.744-1.354-.757-2.06-.012-.708.385-1.366.67-1.763.286-.398.845-1.08.993-1.39.15-.311.31-.646.36-1.08.05-.435 0-1.987 0-1.987s-.012-.683.1-.608c.112.075.136.509.136.906 0 .398.038 2.11-.087 2.57-.124.458-.41.967-.72 1.414-.31.447-.67 1.39-.657 1.974.012.583.347 1.539.608 1.936.262.399.706.955.608 1.08Zm.371 1.16c-.05 0-.032-.155-.032-.346 0-.191-.017-.346.032-.346.046 0 .032.155.032.346 0 .191.01.345-.032.345Zm.81-.129c-.019.044-.172-.02-.26-.13-.09-.108-.122-.326-.071-.325.062.003.039.184.126.281.095.106.224.13.205.175Zm.795-.723c-.224.09-.366.186-.556.01-.305-.284-.593-.314-.974-.415-.107-.029-.18-.264-.219-.35a5.029 5.029 0 0 1-.298-.87c-.36-1.437-.073-2.876.29-4.28.156-.6.256-1.195.26-1.818.003-.326-.042-.647-.08-.97-.017-.137-.08-.477.086-.216.067.105.19-.044.201.077.009.094.02.765.057 1.002.091.573.797.927 1.233 1.2.996.622 2.347 1.447 2.537 2.725.248 1.67-.61 3.115-2.537 3.905ZM14 8C14 3.398 8.984.507 4.993 2.808c-3.99 2.3-3.99 8.084 0 10.385C8.984 15.493 14 12.602 14 8Z" fill="#9883EC"/></g><defs><clipPath id="a"><path fill="#fff" transform="translate(2 2)" d="M0 0h12v12H0z"/></clipPath></defs></svg>