<svg xmlns="http://www.w3.org/2000/svg" width="32" height="32"><g fill="none" fill-rule="evenodd"><path fill="#6A9FB5" d="M13.096 15.572h5.774c.802 0 1.486-.286 2.053-.857.566-.571.85-1.253.85-2.045V7.23c0-.791-.29-1.456-.867-1.993a3.69 3.69 0 0 0-2.036-.973c-.49-.089-.99-.155-1.502-.199A17.668 17.668 0 0 0 15.867 4c-.512.023-1.002.05-1.47.082a8.799 8.799 0 0 0-1.3.182c-1.224.198-2.014.534-2.37 1.006-.356.473-.534 1.127-.534 1.963v2.175h5.808v.726H8.025c-.846 0-1.603.248-2.27.743-.668.495-1.125 1.214-1.37 2.158-.245 1.078-.373 2.029-.384 2.853-.012.825.116 1.808.384 2.95.222.857.584 1.555 1.085 2.093.502.54 1.174.808 2.019.808h1.97v-2.603c0-.946.361-1.776 1.084-2.49.724-.715 1.575-1.072 2.553-1.072v-.002Zm-.367-7.618c-.312 0-.574-.11-.784-.329a1.062 1.062 0 0 1-.316-.757c0-.308.105-.567.316-.775a1.07 1.07 0 0 1 .784-.312c.289 0 .54.104.752.312.212.208.317.467.316.775 0 .285-.106.538-.316.757-.211.22-.462.33-.752.33Z"/><path fill="#343944" d="M24.678 10.13c.846.001 1.485.276 1.918.825.433.548.75 1.24.95 2.076l.003-.002.102.423c.222.976.338 1.862.348 2.66a7.964 7.964 0 0 1-.45 2.72c-.29.879-.63 1.582-1.02 2.11-.388.527-1.005.791-1.851.791h-8.679v.726h5.774v2.175c0 .835-.3 1.478-.902 1.93-.6.45-1.268.786-2.003 1.006-1.091.306-2.098.45-3.02.428a10.74 10.74 0 0 1-2.754-.428 5.595 5.595 0 0 1-2.036-1.039c-.578-.47-.867-1.102-.867-1.894v-5.44c0-.77.283-1.446.85-2.028.567-.582 1.251-.874 2.053-.874h5.774c.957 0 1.803-.357 2.537-1.071.735-.715 1.103-1.567 1.103-2.556V10.13Zm-5.44 13.783c-.29 0-.545.11-.768.329a1.07 1.07 0 0 0 0 1.548c.223.22.478.33.767.33.312 0 .573-.11.784-.33.211-.219.316-.482.316-.79a1.06 1.06 0 0 0-.316-.758 1.04 1.04 0 0 0-.784-.33Z"/><path fill="#F4BF75" fill-rule="nonzero" d="M30.5 21.333h-.75V19.81c0-2.103-1.68-3.81-3.75-3.81-2.07 0-3.75 1.707-3.75 3.81v1.523h-.75c-.825 0-1.5.686-1.5 1.524v7.62c0 .837.675 1.523 1.5 1.523h9c.825 0 1.5-.686 1.5-1.524v-7.619c0-.838-.675-1.524-1.5-1.524ZM26 28.19c-.825 0-1.5-.685-1.5-1.523 0-.838.675-1.524 1.5-1.524s1.5.686 1.5 1.524-.675 1.523-1.5 1.523Zm2.325-6.857h-4.65V19.81c0-1.303 1.043-2.362 2.325-2.362 1.282 0 2.325 1.059 2.325 2.362v1.523Z"/></g></svg>