<svg width="16" height="16" fill="none" xmlns="http://www.w3.org/2000/svg"><rect x="11.833" y="4.305" width="1.111" height=".568" rx=".284" fill="#89DDFF"/><rect x="3.5" y="13.4" width="3.333" height=".568" rx=".284" fill="#FC8289"/><rect x="10.167" y="8.853" width="2.222" height=".568" rx=".284" fill="#9883EC"/><rect x="6.833" y="8.853" width="2.778" height=".568" rx=".284" fill="#FC8289"/><rect x="3.5" y="8.853" width="2.778" height=".568" rx=".284" fill="#89DDFF"/><rect x="3.5" y="11.126" width="3.333" height=".568" rx=".284" fill="#9883EC"/><rect x="3.5" y="6.579" width="3.333" height=".568" rx=".284" fill="#9883EC"/><rect x="6.278" y="3.168" width="6.111" height=".568" rx=".284" fill="#FFCB6B"/><rect x="3.5" y="3.168" width="2.222" height=".568" rx=".284" fill="#FC8289"/><rect x="5.722" y="12.263" width="1.111" height=".568" rx=".284" fill="#FFCB6B"/><rect x="5.722" y="5.442" width="1.111" height=".568" rx=".284" fill="#89DDFF"/><rect x="3.5" y="12.263" width="1.667" height=".568" rx=".284" fill="#89DDFF"/><rect x="3.5" y="5.442" width="1.667" height=".568" rx=".284" fill="#FFCB6B"/><rect x="7.944" y="7.716" width="5" height=".568" rx=".284" fill="#89DDFF"/><rect x="5.167" y="7.716" width="2.222" height=".568" rx=".284" fill="#FFCB6B"/><rect x="3.5" y="7.716" width="1.111" height=".568" rx=".284" fill="#FC8289"/><rect x="8.5" y="4.305" width="2.778" height=".568" rx=".284" fill="#9883EC"/><rect x="3.5" y="4.305" width="4.444" height=".568" rx=".284" fill="#89DDFF"/><rect x="5.167" y="9.989" width="5.556" height=".568" rx=".284" fill="#FFCB6B"/><rect x="3.5" y="9.989" width="1.111" height=".568" rx=".284" fill="#9883EC"/><rect x="10.167" y="5.442" width="3.333" height=".568" rx=".284" fill="#FC8289"/><rect x="10.167" y="6.579" width="3.333" height=".568" rx=".284" fill="#FFCB6B"/><rect x="3.5" y="2.032" width="7.222" height=".568" rx=".284" fill="#89DDFF"/></svg>