<svg width="16" height="16" fill="none" xmlns="http://www.w3.org/2000/svg"><path fill-rule="evenodd" clip-rule="evenodd" d="M3.647 2.023h8.706c.601 0 1.089.481 1.089 1.076v9.803c0 .594-.488 1.076-1.089 1.076H3.647a1.082 1.082 0 0 1-1.088-1.076V3.099c0-.595.487-1.076 1.088-1.076Zm2.993 8.966L5.28 9.793v2.391l1.36-1.195Zm2.872 1.195v-3.57C9.506 8.335 9.37 8 8.756 8c-1.23 0-2.609.612-2.622.618L5.279 9V3.816h1.21V7.21c.603-.194 1.447-.405 2.267-.405.747 0 1.195.29 1.438.534.52.52.528 1.182.527 1.259v3.586h-1.21ZM8.605 5.76h1.209c.547-.613.825-1.264.907-1.943h-1.21c-.133.677-.431 1.326-.906 1.943Z" fill="#C792EA"/></svg>