<svg width="16" height="16" fill="none" xmlns="http://www.w3.org/2000/svg"><path fill-rule="evenodd" clip-rule="evenodd" d="M13.998 6.897c0 2.472-2.569 4.476-5.739 4.476S2.52 9.369 2.52 6.897c0-2.473 2.57-4.477 5.74-4.477 3.17 0 5.739 2.004 5.739 4.477ZM8.25 6.302c1.124 0 2.09.625 2.6 1.26.407.501.386.785.357 1.175-.008.114-.018.238-.017.379 0 1.703-.447 1.737-.89 1.77-.142.011-.284.022-.41.088-.414.204-.832.187-1.264.169a8.954 8.954 0 0 0-.376-.01h-.01c-.124 0-.247.004-.369.009-.434.017-.854.034-1.27-.172-.127-.066-.27-.076-.411-.087-.444-.033-.89-.067-.89-1.77 0-.14-.009-.262-.018-.375-.03-.39-.053-.673.355-1.176.507-.635 1.474-1.26 2.6-1.26h.013ZM4.58 7.356c.514 0 .93-.422.93-.942a.936.936 0 0 0-.93-.942.936.936 0 0 0-.93.942c0 .52.417.942.93.942Zm8.26-.942c0 .52-.416.942-.93.942a.936.936 0 0 1-.93-.942c0-.52.417-.942.93-.942.514 0 .93.421.93.942ZM8.176 7.809h.14v1.92a.623.623 0 0 0-.057-.005.68.68 0 0 0-.083.008V7.809Zm0 1.923c-.129.02-.277.073-.43.129a5.766 5.766 0 0 1-.263.09 4.14 4.14 0 0 1-.296.086c-.116.031-.18.048-.12.058.163.007.336-.02.522-.049.204-.031.425-.066.67-.062.243-.004.463.03.666.062.187.029.361.056.528.05.056-.008 0-.024-.108-.052-.082-.023-.195-.053-.309-.094a4.538 4.538 0 0 1-.263-.09 2.363 2.363 0 0 0-.457-.132v.1h-.14v-.096Zm.04 3.288a.69.69 0 0 0 .687-.695.691.691 0 0 0-.687-.696.691.691 0 0 0-.686.696.69.69 0 0 0 .686.695Zm.617-.692a.62.62 0 0 1-.617.625.62.62 0 0 1-.616-.625.62.62 0 0 1 .616-.625c.34 0 .617.28.617.625Zm-.437-.2c.037.034.057.082.057.15 0 .067-.02.114-.057.148a.284.284 0 0 1-.177.047h-.07v.152h-.12v-.544h.19c.08 0 .14.017.177.048Zm-.067.142c0 .03-.006.055-.02.071-.013.017-.04.027-.08.024h-.08v-.182h.067c.04 0 .07.006.087.02.016.013.026.037.026.067Z" fill="#FFCB6B"/><path fill-rule="evenodd" clip-rule="evenodd" d="M11.25 10.457a8.689 8.689 0 0 1-6.084 0c-.02-.007-.03-.017-.063-.03v.388c0 .172.14.371.303.432a7.999 7.999 0 0 0 5.603 0 .491.491 0 0 0 .293-.432v-.389c0 .01-.033.02-.053.03ZM6.283 2.942s-3.71.52-3.39 4.252c.017.19-.74-.807-1.326-1.111C.98 5.779 1 4.796 1 4.796S.99 3.084 3.36 2.577c2.366-.503 2.923.365 2.923.365Zm3.91 0s3.71.52 3.39 4.252c-.017.19.74-.807 1.326-1.111.586-.304.566-1.287.566-1.287s.01-1.712-2.36-2.219c-2.366-.503-2.922.365-2.922.365Zm-1.08 4.994c.11.246-.27.648-.874.648-.603 0-.983-.402-.873-.648.107-.254.49-.335.873-.338.384.003.767.084.874.338Z" fill="#AB633B"/></svg>