<svg width="16" height="16" fill="none" xmlns="http://www.w3.org/2000/svg"><path d="M11.95 5.293c0-.59-.16-1.141-.443-1.62-.748-.74-2.375-.913-2.78-.003-.414.932.698 1.97 1.184 1.887.619-.105-.11-1.472-.11-1.472.947 1.717.729 1.192-.982 2.769-1.711 1.577-3.459 4.904-3.714 5.045a.207.207 0 0 1-.034.017h6.711c.118 0 .195-.12.142-.222L10.17 8.35a.15.15 0 0 1 .062-.201c1.027-.568 1.719-1.633 1.719-2.856Z" fill="url(#a)"/><path d="M11.95 5.293c0-.59-.16-1.141-.443-1.62-.748-.74-2.375-.913-2.78-.003-.414.932.698 1.97 1.184 1.887.619-.105-.11-1.472-.11-1.472.947 1.717.729 1.192-.982 2.769-1.711 1.577-3.459 4.904-3.714 5.045a.207.207 0 0 1-.034.017h6.711c.118 0 .195-.12.142-.222L10.17 8.35a.15.15 0 0 1 .062-.201c1.027-.568 1.719-1.633 1.719-2.856Z" fill="url(#b)"/><path d="M5.105 11.898c.255-.14 2.002-3.47 3.713-5.046 1.711-1.577 1.93-1.052.983-2.769 0 0-3.622 4.889-4.933 7.307" fill="#F07178"/><path d="M5.615 7.518c2.446-4.33 2.767-4.766 4.041-4.766.67 0 1.345.29 1.782.808A3.446 3.446 0 0 0 8.582 2H4.426a.156.156 0 0 0-.158.152v8.064c.247-.615.668-1.494 1.347-2.698Z" fill="#FC8289"/><path d="M8.818 6.852c-1.71 1.577-3.458 4.906-3.713 5.046-.255.14-.683.158-.91-.088-.242-.26-.619-.683 1.42-4.292C8.06 3.188 8.38 2.75 9.655 2.75c.67 0 1.346.291 1.783.808l.07.114c-.747-.741-2.375-.913-2.779-.003-.415.932.697 1.969 1.183 1.887.62-.105-.109-1.472-.109-1.472.945 1.715.726 1.19-.985 2.767Z" fill="url(#c)"/><path opacity=".3" d="M5.815 7.71c2.446-4.33 2.767-4.766 4.04-4.766.552 0 1.107.198 1.53.556a2.36 2.36 0 0 0-1.73-.749c-1.274 0-1.594.437-4.04 4.767-2.039 3.61-1.662 4.031-1.42 4.292a.592.592 0 0 0 .116.095c-.213-.298-.307-.99 1.504-4.195Z" fill="url(#d)"/><defs><linearGradient id="a" x1="6.671" y1="9.132" x2="9.508" y2="9.517" gradientUnits="userSpaceOnUse"><stop stop-color="#FF6533"/><stop offset=".157" stop-color="#FF5633"/><stop offset=".434" stop-color="#FF4333"/><stop offset=".714" stop-color="#FF3733"/><stop offset="1" stop-color="#F33"/></linearGradient><linearGradient id="b" x1="5.023" y1="9.669" x2="10.604" y2="12.177" gradientUnits="userSpaceOnUse"><stop stop-color="#AC4142"/><stop offset="1" stop-color="#D14748"/></linearGradient><linearGradient id="c" x1="6.744" y1="7.756" x2="7.862" y2="8.238" gradientUnits="userSpaceOnUse"><stop stop-color="#F4BF75"/><stop offset="1" stop-color="#FB8840"/></linearGradient><linearGradient id="d" x1="3.569" y1="2.636" x2="1.958" y2="13.736" gradientUnits="userSpaceOnUse"><stop stop-color="#fff"/><stop offset="1" stop-color="#fff" stop-opacity=".01"/></linearGradient></defs></svg>