<svg width="16" height="16" fill="none" xmlns="http://www.w3.org/2000/svg"><path fill-rule="evenodd" clip-rule="evenodd" d="M6.993 4.871a2.155 2.155 0 0 1 1.522-.621c.793 0 1.481.42 1.852 1.045.328-.14.684-.212 1.045-.212C12.84 5.083 14 6.196 14 7.57c0 1.373-1.16 2.486-2.588 2.486a2.71 2.71 0 0 1-.512-.049c-.324.55-.944.924-1.649.924a1.96 1.96 0 0 1-.829-.181C8.093 11.483 7.328 12 6.438 12c-.93 0-1.72-.558-2.024-1.344a2.042 2.042 0 0 1-.412.041C2.895 10.697 2 9.832 2 8.77c0-.714.403-1.335 1.001-1.671a2.118 2.118 0 0 1-.192-.882C2.81 4.991 3.854 4 5.142 4c.754 0 1.428.342 1.852.873" fill="#89DDFF"/></svg>