<svg width="16" height="16" fill="none" xmlns="http://www.w3.org/2000/svg"><g fill-rule="evenodd" clip-rule="evenodd"><path d="M11.227 6.567h2.216L8 12.987l3.227-6.42Zm-6.454 0H2.557L8 12.989 4.773 6.567Z" fill="#E2AC1D"/><path d="m4.773 6.567 6.453.002L8 12.989 4.773 6.567Z" fill="#FFCB6B"/><path d="m11.05 3.334.177 3.233L8.01 3l3.042.334Z" fill="#F2C140"/><path d="m11.05 3.334.177 3.233h2.216l-2.392-3.233Zm-6.1 0-.177 3.233H2.557l2.392-3.233Z" fill="#F3D791"/><path d="m4.95 3.334-.177 3.232L8.01 3l-3.06.334Z" fill="#F2C140"/><path d="M4.774 6.567h6.453L8.009 3 4.773 6.567Z" fill="#FCF5E3"/></g></svg>