<svg width="32" height="32" xmlns="http://www.w3.org/2000/svg"><g fill="none" fill-rule="evenodd"><path d="M5.785 10.45v8.514l7.374 4.257v-8.514l-7.374-4.258Zm16.265 8.514v-9.38l-8.124-4.69L6.552 9.15l8.124 4.69v9.381l7.374-4.257Z" stroke="#D14748" stroke-width="1.5" fill-opacity=".492" fill="#EE9D5C" fill-rule="nonzero"/><path d="M6.046 20.79v4.308l3.731 2.154v-4.308l-3.73-2.153Zm8.23 4.308v-4.746l-4.11-2.373-3.732 2.154 4.11 2.373v4.746l3.731-2.154Z" stroke="#AEE33E" stroke-width=".759" fill-opacity=".332" fill="#AEE33E" fill-rule="nonzero"/><path d="M15.545 17.075v6.208l5.377 3.104V20.18l-5.377-3.104Zm11.859 6.208v-6.84l-5.923-3.42-5.377 3.105 5.924 3.42v6.84l5.376-3.105Z" stroke="#7ACCEE" stroke-width="1.093" fill-opacity=".332" fill="#7ACCEE"/></g></svg>