<svg width="16" height="16" fill="none" xmlns="http://www.w3.org/2000/svg"><path d="m8.355 7.463-.338 1.072c-.18.666-.165.875-.073 1.03.022.038.084.163.17.496.126.482.236 1.209.239 1.244-.018.444-.009.915.027 1.366H3.918A.92.92 0 0 1 3 11.754V3.45a.92.92 0 0 1 .918-.917h6.867c-1.052 1.115-2.094 3.233-2.43 4.93Zm4.848-5.202c1.259 1.123.009 3.69-1.138 5.496-.834.268-1.806.86-1.806.86s.08-.043.38-.17c.204-.085.812-.229 1.182-.313-.618.93-1.146 1.582-1.146 1.582s-1.078.438-1.411 1.457c.193-1.087.514-2.22.966-3.43.404-1.078 1.753-3.992 2.75-4.893-1.094.872-2.289 2.697-3.15 4.972-.51 1.507-.786 2.953-.831 4.152-.03.785.038 1.465.205 1.984L9.127 14c-.164-.425-.314-1.172-.278-2.702a19.693 19.693 0 0 1-.009-.113s-.1-.67-.242-1.22c-.064-.244-.136-.464-.211-.592-.04-.066.004-.338.113-.74.184.322.383.67.46.953 0 0-.148-.757-.39-1.2.053-.178.117-.376.188-.587.178.312.36.608.433.905a5.508 5.508 0 0 0-.354-1.132C9.14 5.99 10.119 3.92 11.173 2.8c.563-.6 1.338-1.137 2.03-.539Z" fill="#89DDFF"/><path d="M13.203 2.261c1.259 1.123.009 3.69-1.138 5.496-.834.268-1.806.86-1.806.86s.08-.043.38-.17c.204-.085.812-.229 1.182-.313-.618.93-1.146 1.582-1.146 1.582s-1.078.438-1.411 1.457c.193-1.087.514-2.22.966-3.43.404-1.078 1.753-3.992 2.75-4.893-1.094.872-2.289 2.697-3.15 4.972-.51 1.507-.786 2.953-.831 4.152-.03.785.038 1.465.205 1.984L9.127 14c-.164-.425-.314-1.172-.278-2.702a19.693 19.693 0 0 1-.009-.113s-.1-.67-.242-1.22c-.064-.244-.136-.464-.211-.592-.04-.066.004-.338.113-.74.184.322.383.67.46.953 0 0-.148-.757-.39-1.2.053-.178.117-.376.188-.587.178.312.36.608.433.905a5.508 5.508 0 0 0-.354-1.132C9.14 5.99 10.119 3.92 11.173 2.8c.563-.6 1.338-1.137 2.03-.539Z" fill="#3965BD"/></svg>