<svg width="16" height="16" fill="none" xmlns="http://www.w3.org/2000/svg"><path fill-rule="evenodd" clip-rule="evenodd" d="M13.578 10.995c-.599.052-1.377-.106-1.787.438.002.606.774.974 1.277 1.249.474.156.941.626 1.342.712-.431-.681-1.145-1.142-1.828-1.561-.105-.822 1.18-.12 1.407-.739-.26-.695-1.04-.965-1.589-1.396-.58-.304-1.348-.505-1.565-1.193-.636-1.379-1.15-2.895-2.353-3.92-.76-.704-1.634-1.402-2.677-1.615-.905.033-1.557-.726-2.402-.886-.922-.069-1.065 1.058-.437 1.53.578.575.749 1.366 1.033 2.092.252.543.748.922.396 1.54-.25.982-.269 2.153.46 2.951.521.514 1.078-.074 1.008-.647.275-.38.448.592.766.74.336.347.694.715 1.118.941-.629-.594-1.035-1.37-1.459-2.112.118-.694-.923-.93-.836-.115.015.324-.221 1.25-.57.6-.429-.804-.292-1.746-.048-2.581.234-.658-.317-1.103-.59-1.619-.223-.589-.269-1.283-.787-1.722-.498-.311-.63-1.413.212-1.068.635.438 1.312.755 2.1.79 1.164.348 2.14 1.153 2.898 2.065.912 1.064 1.265 2.436 1.935 3.634.188.503.784.56 1.224.746.572.159.989.584 1.488.872.102.077.194.167.264.274Z" fill="#69A7D3" stroke="#69A7D3" stroke-width=".962" stroke-linecap="round" stroke-linejoin="round"/></svg>