<svg width="16" height="16" fill="none" xmlns="http://www.w3.org/2000/svg"><g fill-rule="evenodd" clip-rule="evenodd"><path d="M8.085 13.921c1.31-4.674 1.272-4.696 2.219-8.029l.227.131c.124.072.225.013.225-.129v-1.59c.251-.878.448-1.556.506-1.76h1.025l1.704 1.575-1.119.965.846.914-5.576 7.923c-.027.045-.065.035-.057 0Z" fill="#6B7394"/><path d="m10.395 2.943-1.516.874a.164.164 0 0 1 .029.09v.815c0 .043-.017.08-.044.111l1.53.883c.105.06.19.01.19-.11V3.053c0-.12-.085-.17-.19-.11Zm-3.292 1.78v-.815c0-.034.011-.065.029-.091l-1.516-.874c-.104-.06-.19-.01-.19.11v2.553c0 .12.086.17.19.11l1.53-.883a.167.167 0 0 1-.043-.11Zm1.592-.878c.05 0 .091.028.091.062v.815c0 .034-.041.062-.091.062H7.317c-.05 0-.092-.027-.092-.062v-.815c0-.034.041-.062.092-.062h1.378Z" fill="#FC8289"/><path d="M7.866 13.921h.056C6.613 9.247 6.651 9.226 5.704 5.893l-.228.131c-.123.072-.224.013-.224-.129v-1.59l-.506-1.76H3.72L2.016 4.118l1.12.965-.847.914 5.577 7.923Z" fill="#6B7394"/><path d="M7.962 6.486a.413.413 0 1 0 .001-.827.413.413 0 0 0 0 .827Zm0 2.454a.413.413 0 1 0 .001-.826.413.413 0 0 0 0 .827Zm0 2.456a.413.413 0 1 0 .001-.826.413.413 0 0 0 0 .826Z" fill="#8E95B4"/></g></svg>