<svg width="16" height="16" fill="none" xmlns="http://www.w3.org/2000/svg"><path d="M4.5 8.5v-6a.5.5 0 0 0-1 0v6h1Z" fill="#82AAFF"/><path d="M5.5 9.5h-3a.5.5 0 0 0-.5.5v2a.5.5 0 0 0 .5.5h1v1a.5.5 0 0 0 1 0v-1h1A.5.5 0 0 0 6 12v-2a.5.5 0 0 0-.5-.5Z" fill="#89DDFF"/><path d="M8.5 3.5v-1a.5.5 0 0 0-1 0v1h1Z" fill="#82AAFF"/><path d="M10 5a.5.5 0 0 0-.5-.5h-3A.5.5 0 0 0 6 5v2a.5.5 0 0 0 .5.5h1v6a.5.5 0 0 0 1 0v-6h1A.5.5 0 0 0 10 7V5Z" fill="#89DDFF"/><path d="M12.5 8.5v-6a.5.5 0 0 0-1 0v6h1Z" fill="#82AAFF"/><path d="M13.5 9.5h-3a.5.5 0 0 0-.5.5v2a.5.5 0 0 0 .5.5h1v1a.5.5 0 0 0 1 0v-1h1a.5.5 0 0 0 .5-.5v-2a.5.5 0 0 0-.5-.5Z" fill="#89DDFF"/></svg>