<svg width="16" height="16" fill="none" xmlns="http://www.w3.org/2000/svg"><path d="M13.5 4A1.5 1.5 0 0 0 12 2.5v1a.5.5 0 0 1 .5.5h1ZM12 2.5H4v1h8v-1Zm-8 0A1.5 1.5 0 0 0 2.5 4h1a.5.5 0 0 1 .5-.5v-1ZM2.5 4v8h1V4h-1Zm0 8A1.5 1.5 0 0 0 4 13.5v-1a.5.5 0 0 1-.5-.5h-1ZM4 13.5h8v-1H4v1Zm8 0a1.5 1.5 0 0 0 1.5-1.5h-1a.5.5 0 0 1-.5.5v1Zm1.5-1.5V4h-1v8h1Z" fill="#3965BD"/><path fill-rule="evenodd" clip-rule="evenodd" d="M8.87 10.655c.124.065.283.122.475.171.193.05.395.074.607.074.222 0 .392-.04.508-.119a.362.362 0 0 0 .009-.617c-.111-.084-.297-.166-.558-.246a2.515 2.515 0 0 1-.866-.465.912.912 0 0 1-.33-.718c0-.337.147-.62.44-.847.293-.228.694-.342 1.204-.343a2.81 2.81 0 0 1 1.107.201l-.22.722a2.801 2.801 0 0 0-.358-.127 1.948 1.948 0 0 0-.545-.067c-.212 0-.37.039-.472.115-.103.077-.155.168-.155.272 0 .124.062.223.187.297.125.075.328.161.61.26.386.13.67.29.851.48a.989.989 0 0 1 .272.71c0 .333-.142.62-.427.864-.284.243-.722.364-1.314.364-.25 0-.485-.026-.707-.078a2.661 2.661 0 0 1-.521-.167l.203-.737v.001Zm-2.33.981V8.237H5.273v-.692h3.394v.692H7.402v3.4H6.54Z" fill="#82AAFF"/></svg>