<svg id="svg" version="1.1" xmlns="http://www.w3.org/2000/svg" xmlns:xlink="http://www.w3.org/1999/xlink" width="400" height="400" viewBox="0, 0, 400,400"><g id="svgg"><path id="path0" d="M190.361 122.806 C 151.701 124.976,120.074 153.873,113.535 193.000 C 112.810 197.335,112.810 214.335,113.535 218.400 C 114.911 226.124,117.919 236.492,119.305 238.292 C 119.791 238.922,120.885 238.389,122.800 236.590 C 128.818 230.935,140.383 224.804,151.000 221.640 C 159.962 218.969,176.795 218.451,184.899 220.595 C 185.888 220.857,186.228 220.630,188.274 218.343 C 199.640 205.638,215.637 195.239,228.756 192.025 C 229.550 191.831,231.640 191.314,233.400 190.877 C 246.014 187.748,259.631 187.740,272.467 190.856 C 277.736 192.135,277.706 192.201,275.539 184.200 C 268.158 156.951,244.580 132.673,219.000 125.985 C 210.368 123.728,199.161 122.030,195.800 122.471 C 195.580 122.499,193.133 122.650,190.361 122.806 M249.900 204.696 C 251.275 204.774,253.525 204.774,254.900 204.696 C 256.275 204.618,255.150 204.554,252.400 204.554 C 249.650 204.554,248.525 204.618,249.900 204.696 M240.800 205.433 C 238.774 205.934,238.742 205.958,240.400 205.740 C 241.390 205.609,243.370 205.370,244.800 205.208 L 247.400 204.914 245.200 204.902 C 243.990 204.895,242.010 205.134,240.800 205.433 M258.900 205.087 C 259.505 205.178,260.495 205.178,261.100 205.087 C 261.705 204.995,261.210 204.920,260.000 204.920 C 258.790 204.920,258.295 204.995,258.900 205.087 M263.200 205.600 C 263.750 205.776,264.650 205.917,265.200 205.913 C 266.098 205.906,266.078 205.874,265.000 205.600 C 263.308 205.169,261.856 205.169,263.200 205.600 M236.200 206.400 C 235.181 206.838,236.232 206.838,237.600 206.400 C 238.404 206.143,238.443 206.077,237.800 206.068 C 237.360 206.062,236.640 206.211,236.200 206.400 M267.200 206.400 C 268.568 206.838,269.619 206.838,268.600 206.400 C 268.160 206.211,267.440 206.062,267.000 206.068 C 266.357 206.077,266.396 206.143,267.200 206.400 M232.600 207.315 C 216.195 213.193,206.550 220.276,196.156 234.078 C 195.140 235.427,193.840 236.593,192.756 237.130 C 191.790 237.608,191.288 238.000,191.641 238.000 C 192.918 238.000,195.022 236.117,197.899 232.396 C 207.157 220.425,218.466 212.399,232.600 207.768 C 234.140 207.263,235.040 206.858,234.600 206.868 C 234.160 206.877,233.260 207.079,232.600 207.315 M270.200 207.086 C 271.784 207.470,279.830 210.560,281.147 211.292 C 281.888 211.703,282.585 211.948,282.697 211.837 C 283.140 211.393,271.461 206.760,270.117 206.846 C 269.511 206.886,269.524 206.923,270.200 207.086 M284.535 212.918 C 296.903 220.026,306.083 229.497,312.312 241.576 C 314.691 246.191,315.243 247.065,314.223 244.606 C 310.624 235.924,302.128 225.141,293.818 218.708 C 290.498 216.137,283.950 211.977,283.288 212.018 C 283.129 212.027,283.691 212.432,284.535 212.918 M165.633 235.346 C 165.725 235.426,168.590 235.576,172.000 235.679 C 175.432 235.783,177.307 235.733,176.200 235.568 C 174.167 235.265,165.329 235.079,165.633 235.346 M162.505 235.887 C 163.114 235.979,164.014 235.977,164.505 235.882 C 164.997 235.787,164.500 235.711,163.400 235.714 C 162.300 235.717,161.897 235.795,162.505 235.887 M158.200 236.410 C 157.666 236.647,157.998 236.686,159.200 236.527 C 160.190 236.396,161.075 236.224,161.167 236.144 C 161.514 235.843,158.964 236.072,158.200 236.410 M152.040 238.002 C 135.658 243.594,123.336 255.447,117.445 271.283 C 116.650 273.418,116.009 275.398,116.020 275.683 C 116.031 275.967,116.660 274.490,117.417 272.400 C 123.827 254.713,139.006 241.027,156.600 237.073 C 157.230 236.931,157.188 236.889,156.400 236.874 C 155.850 236.864,153.888 237.371,152.040 238.002 M184.600 237.409 C 187.215 238.135,188.324 238.112,186.000 237.379 C 185.010 237.067,183.840 236.822,183.400 236.833 C 182.960 236.845,183.500 237.104,184.600 237.409 M188.705 238.283 C 189.202 238.379,189.922 238.375,190.305 238.275 C 190.687 238.175,190.280 238.096,189.400 238.101 C 188.520 238.105,188.207 238.187,188.705 238.283 M315.346 248.000 C 315.460 248.330,315.949 249.840,316.432 251.356 C 317.362 254.270,319.713 257.209,321.100 257.191 C 321.524 257.185,321.282 256.927,320.487 256.535 C 318.765 255.686,317.772 254.232,316.800 251.135 C 316.362 249.741,315.809 248.330,315.571 248.000 C 315.187 247.467,315.162 247.467,315.346 248.000 M322.400 257.582 C 322.730 257.805,323.345 257.991,323.767 257.994 C 324.790 258.002,324.471 257.773,323.000 257.444 C 322.124 257.248,321.962 257.285,322.400 257.582 M327.391 258.992 C 328.927 259.519,330.262 259.872,330.358 259.775 C 330.454 259.679,330.456 259.600,330.361 259.600 C 330.266 259.600,329.204 259.240,328.000 258.800 C 326.796 258.360,325.539 258.008,325.206 258.017 C 324.873 258.026,325.856 258.465,327.391 258.992 M334.346 262.004 C 342.542 266.355,349.974 273.586,353.559 280.700 C 354.031 281.635,354.519 282.400,354.645 282.400 C 355.065 282.400,351.958 277.084,350.219 274.828 C 346.225 269.647,339.602 264.198,333.711 261.247 C 329.765 259.270,330.221 259.814,334.346 262.004 M115.207 278.446 C 114.927 279.681,114.796 280.941,114.917 281.246 C 115.038 281.551,115.151 281.332,115.168 280.760 C 115.186 280.188,115.396 279.156,115.636 278.468 C 115.876 277.780,115.992 276.988,115.895 276.709 C 115.797 276.429,115.488 277.211,115.207 278.446 M114.259 283.488 C 114.121 284.319,114.030 285.720,114.056 286.600 C 114.087 287.647,114.223 287.173,114.448 285.230 C 114.811 282.096,114.683 280.919,114.259 283.488 M354.828 283.000 C 354.828 283.220,355.086 283.850,355.400 284.400 C 355.714 284.950,355.972 285.220,355.972 285.000 C 355.972 284.780,355.714 284.150,355.400 283.600 C 355.086 283.050,354.828 282.780,354.828 283.000 M356.063 285.800 C 356.062 286.020,356.303 286.830,356.600 287.600 C 356.897 288.370,357.145 288.730,357.152 288.400 C 357.158 288.070,356.917 287.260,356.614 286.600 C 356.312 285.940,356.064 285.580,356.063 285.800 M357.256 289.600 C 357.256 289.930,357.411 290.560,357.600 291.000 C 357.817 291.504,357.944 291.578,357.944 291.200 C 357.944 290.870,357.789 290.240,357.600 289.800 C 357.383 289.296,357.256 289.222,357.256 289.600 M358.307 294.000 C 358.468 295.210,358.600 298.540,358.600 301.400 C 358.600 304.260,358.468 307.590,358.307 308.800 C 358.024 310.922,358.034 310.908,358.582 308.400 C 358.895 306.970,359.151 303.820,359.151 301.400 C 359.151 298.980,358.895 295.830,358.582 294.400 C 358.034 291.892,358.024 291.878,358.307 294.000 M114.053 295.657 C 113.688 308.550,124.326 327.455,137.025 336.480 C 142.294 340.223,152.882 345.222,155.483 345.192 C 155.877 345.187,154.580 344.639,152.600 343.973 C 131.513 336.884,117.019 318.872,114.422 296.530 C 114.143 294.125,114.099 294.021,114.053 295.657 M357.632 311.634 C 357.614 311.983,357.229 313.397,356.776 314.777 C 356.323 316.157,356.041 317.374,356.148 317.481 C 356.442 317.776,358.079 312.021,357.856 311.474 C 357.743 311.196,357.650 311.262,357.632 311.634 M354.055 321.661 C 348.381 333.337,337.493 342.266,325.307 345.237 C 324.156 345.518,323.296 345.829,323.396 345.929 C 323.495 346.029,324.437 345.885,325.489 345.610 C 335.678 342.942,344.655 336.672,350.786 327.943 C 352.672 325.257,356.252 318.516,355.950 318.219 C 355.868 318.138,355.015 319.687,354.055 321.661 M157.000 345.600 C 157.440 345.789,158.160 345.938,158.600 345.932 C 159.243 345.923,159.204 345.857,158.400 345.600 C 157.032 345.162,155.981 345.162,157.000 345.600 M162.600 346.592 C 165.241 347.044,178.909 347.128,240.800 347.074 L 315.800 347.009 239.400 346.758 C 197.380 346.619,162.190 346.402,161.200 346.275 C 160.210 346.148,160.840 346.291,162.600 346.592 M317.800 346.400 C 315.891 346.662,315.872 346.676,317.400 346.702 C 318.280 346.717,319.900 346.590,321.000 346.418 C 323.699 345.998,320.850 345.982,317.800 346.400 " stroke="none" fill="#fab32c" fill-rule="evenodd"></path><path id="path1" d="M190.600 34.464 C 188.419 35.593,187.267 36.711,186.363 38.575 C 185.183 41.010,185.183 80.021,186.363 82.316 C 189.820 89.035,200.202 89.431,204.200 82.995 L 205.400 81.064 205.513 61.032 C 205.638 38.856,205.689 39.356,203.028 36.467 C 200.314 33.521,194.295 32.551,190.600 34.464 M111.868 55.426 C 104.999 57.301,102.259 64.549,106.000 70.951 C 106.880 72.457,107.600 73.733,107.600 73.787 C 107.600 73.882,108.248 75.012,114.602 86.000 C 125.497 104.843,125.459 104.800,131.328 104.800 C 139.538 104.800,144.196 96.577,140.143 89.238 C 138.430 86.136,129.970 71.403,128.407 68.800 C 127.813 67.810,126.201 65.069,124.825 62.708 C 120.763 55.739,117.482 53.895,111.868 55.426 M273.553 55.406 C 269.855 56.419,269.448 56.896,263.504 67.200 C 261.410 70.830,258.395 76.050,256.803 78.800 C 249.252 91.844,249.537 91.217,249.537 94.807 C 249.537 102.335,257.138 107.085,264.092 103.901 C 266.747 102.685,266.416 103.153,274.380 89.400 C 277.948 83.240,281.459 77.210,282.183 76.000 C 289.188 64.289,288.049 57.844,278.535 55.366 C 276.060 54.722,276.048 54.722,273.553 55.406 M182.200 105.012 C 181.320 105.329,179.803 105.591,178.828 105.594 C 177.854 105.597,176.504 105.764,175.828 105.965 C 173.946 106.525,171.173 107.218,169.400 107.571 C 167.868 107.876,163.078 109.332,161.400 110.002 C 160.960 110.178,159.340 110.815,157.800 111.418 C 128.632 122.835,105.881 148.174,98.020 178.000 C 97.759 178.990,97.345 180.430,97.099 181.200 C 96.575 182.842,96.094 185.504,95.619 189.400 C 95.431 190.940,95.080 192.829,94.838 193.597 C 94.247 195.481,94.245 216.908,94.836 218.803 C 95.075 219.571,95.427 221.370,95.618 222.800 C 96.155 226.830,96.642 229.296,97.142 230.526 C 97.394 231.145,97.600 232.170,97.600 232.802 C 97.600 233.435,97.780 234.064,98.000 234.200 C 98.220 234.336,98.401 234.842,98.402 235.324 C 98.404 235.806,98.674 236.716,99.002 237.346 C 99.331 237.976,99.600 238.729,99.600 239.019 C 99.600 239.310,100.069 240.684,100.643 242.074 C 101.217 243.463,101.835 244.960,102.016 245.400 C 102.198 245.840,103.030 247.640,103.865 249.400 C 104.700 251.160,105.509 252.894,105.662 253.253 C 105.832 253.653,105.457 254.820,104.700 256.253 C 103.113 259.257,100.400 265.582,100.400 266.277 C 100.400 266.571,100.238 267.123,100.040 267.505 C 99.842 267.887,99.375 269.280,99.003 270.600 C 98.631 271.920,98.163 273.553,97.963 274.228 C 97.763 274.904,97.600 276.096,97.600 276.878 C 97.600 277.660,97.330 279.065,97.000 280.000 C 96.265 282.083,96.127 300.117,96.829 302.403 C 97.065 303.171,97.413 304.790,97.604 306.000 C 98.256 310.155,98.573 311.214,101.298 318.361 C 107.993 335.922,123.205 351.779,139.863 358.563 C 141.368 359.176,142.960 359.825,143.400 360.005 C 144.119 360.299,146.375 361.012,149.821 362.033 C 151.671 362.581,154.707 363.195,157.600 363.605 C 159.030 363.808,161.280 364.145,162.600 364.353 C 165.871 364.870,319.057 364.872,322.000 364.355 C 323.210 364.143,325.280 363.808,326.600 363.612 C 329.193 363.225,331.950 362.489,334.800 361.421 C 335.790 361.050,336.948 360.639,337.373 360.508 C 340.952 359.400,349.300 354.322,354.554 350.056 C 364.484 341.995,373.762 326.546,375.608 315.000 C 375.784 313.900,376.120 312.280,376.354 311.400 C 376.887 309.401,376.890 295.298,376.358 292.600 C 376.141 291.500,375.810 289.790,375.623 288.800 C 375.027 285.649,372.592 278.077,371.963 277.420 C 371.764 277.211,371.600 276.837,371.600 276.590 C 371.600 275.708,367.146 267.849,364.834 264.652 C 357.612 254.666,346.095 246.143,334.400 242.131 C 332.256 241.395,331.600 240.915,331.600 240.082 C 331.600 238.229,324.742 226.295,320.061 220.000 C 315.320 213.626,305.589 204.531,299.414 200.704 L 297.000 199.207 296.487 195.504 C 296.206 193.467,295.810 190.630,295.608 189.200 C 295.406 187.770,294.951 185.430,294.597 184.000 C 294.243 182.570,293.859 180.950,293.742 180.400 C 293.477 179.144,292.446 175.660,292.026 174.600 C 291.852 174.160,291.390 172.810,290.999 171.600 C 290.608 170.390,290.133 169.229,289.944 169.020 C 289.755 168.811,289.600 168.392,289.600 168.090 C 289.600 167.301,285.502 158.790,283.302 155.008 C 274.066 139.135,261.062 126.208,245.200 117.131 C 241.573 115.056,236.308 112.400,235.821 112.400 C 235.695 112.400,234.828 112.044,233.896 111.609 C 230.659 110.100,226.255 108.562,222.400 107.596 C 218.764 106.684,217.306 106.303,216.172 105.965 C 215.496 105.764,214.236 105.598,213.372 105.596 C 212.507 105.593,210.916 105.323,209.836 104.996 C 207.034 104.146,184.568 104.158,182.200 105.012 M50.975 115.117 C 42.171 120.027,42.745 129.197,52.200 134.698 C 53.960 135.721,56.930 137.451,58.800 138.540 C 60.670 139.630,64.450 141.817,67.200 143.400 C 69.950 144.984,74.180 147.430,76.600 148.836 C 85.994 154.293,94.017 151.240,94.705 141.946 C 95.114 136.416,93.911 135.032,83.500 129.050 C 79.815 126.932,73.785 123.452,70.100 121.314 C 57.184 113.824,54.723 113.027,50.975 115.117 M330.200 115.917 C 321.302 120.802,300.770 132.899,299.471 134.023 C 292.627 139.941,297.186 151.600,306.343 151.600 C 309.631 151.600,309.090 151.858,324.600 142.902 C 344.889 131.186,344.893 131.184,345.693 127.329 C 347.669 117.814,338.733 111.232,330.200 115.917 M201.200 122.796 C 207.665 123.285,210.875 123.860,219.000 125.985 C 244.580 132.673,268.158 156.951,275.539 184.200 C 277.706 192.201,277.736 192.135,272.467 190.856 C 259.631 187.740,246.014 187.748,233.400 190.877 C 231.640 191.314,229.550 191.831,228.756 192.025 C 215.637 195.239,199.640 205.638,188.274 218.343 C 186.228 220.630,185.888 220.857,184.899 220.595 C 176.795 218.451,159.962 218.969,151.000 221.640 C 140.383 224.804,128.818 230.935,122.800 236.590 C 120.885 238.389,119.791 238.922,119.305 238.292 C 118.388 237.101,116.424 231.204,115.078 225.600 C 111.455 210.515,112.154 193.493,116.991 179.000 C 127.581 147.274,157.089 124.674,190.361 122.806 C 193.133 122.650,195.580 122.499,195.800 122.471 C 196.020 122.442,198.450 122.588,201.200 122.796 M28.600 196.465 C 21.333 200.234,21.615 211.078,29.080 214.938 C 30.221 215.528,32.535 215.600,50.393 215.600 L 70.427 215.600 72.378 214.611 C 79.276 211.116,79.255 200.074,72.344 196.572 L 70.427 195.600 50.313 195.618 C 30.757 195.635,30.156 195.658,28.600 196.465 M318.792 196.380 C 311.624 200.171,311.751 211.523,319.000 214.848 C 321.520 216.004,359.591 215.990,362.122 214.832 C 369.557 211.430,369.505 199.855,362.039 196.256 C 359.828 195.191,320.830 195.302,318.792 196.380 M264.000 205.385 C 279.612 208.624,290.946 214.742,301.200 225.464 C 308.440 233.034,314.923 243.926,317.175 252.303 C 317.871 254.895,319.784 256.551,323.057 257.397 C 352.985 265.132,367.500 295.058,354.339 321.891 C 347.444 335.949,335.000 344.706,319.200 346.618 C 312.053 347.483,168.148 347.463,162.377 346.597 C 127.291 341.327,105.896 307.210,116.645 273.672 C 125.942 244.667,155.050 229.538,186.283 237.478 C 191.114 238.706,193.539 237.642,197.275 232.657 C 213.107 211.527,240.211 200.449,264.000 205.385 M78.000 261.531 C 76.130 262.586,71.630 265.167,68.000 267.267 C 64.370 269.368,59.690 272.075,57.600 273.284 C 50.167 277.583,47.611 279.262,46.832 280.355 C 40.302 289.525,50.412 300.567,60.481 295.262 C 64.464 293.164,83.686 282.063,88.555 279.048 C 102.054 270.692,91.835 253.732,78.000 261.531 " stroke="none" fill="#241b14" fill-rule="evenodd"></path><path id="path2" d="M244.600 205.189 C 226.315 207.390,209.795 217.015,197.899 232.396 C 193.140 238.550,191.666 239.112,184.687 237.430 C 151.295 229.385,120.351 249.393,114.829 282.600 C 109.810 312.782,131.560 341.890,162.361 346.213 C 168.667 347.099,312.268 347.083,319.400 346.196 C 359.474 341.214,373.079 290.158,340.766 266.016 C 335.610 262.164,329.960 259.579,322.208 257.527 C 319.118 256.709,317.665 254.978,316.054 250.196 C 308.456 227.631,289.230 211.106,264.400 205.800 C 260.895 205.051,248.836 204.679,244.600 205.189 " stroke="none" fill="#fbfbfb" fill-rule="evenodd"></path></g></svg>