<?xml version="1.0" encoding="UTF-8" standalone="no"?>
<svg
   xmlns:dc="http://purl.org/dc/elements/1.1/"
   xmlns:cc="http://creativecommons.org/ns#"
   xmlns:rdf="http://www.w3.org/1999/02/22-rdf-syntax-ns#"
   xmlns:svg="http://www.w3.org/2000/svg"
   xmlns="http://www.w3.org/2000/svg"
   xmlns:xlink="http://www.w3.org/1999/xlink"
   xmlns:sodipodi="http://sodipodi.sourceforge.net/DTD/sodipodi-0.dtd"
   xmlns:inkscape="http://www.inkscape.org/namespaces/inkscape"
   version="1.1"
   id="svg5033"
   xml:space="preserve"
   width="1920"
   height="1080"
   viewBox="0 0 1920 1080"
   sodipodi:docname="gruvbox-dark-archlinux2-scalable.svg"
   inkscape:version="1.0.2 (e86c870879, 2021-01-15)"
   inkscape:export-filename="/home/fjall/1577101987penguin-silhouette-3-freesvg.org3.png"
   inkscape:export-xdpi="96"
   inkscape:export-ydpi="96"><metadata
     id="metadata5039"><rdf:RDF><cc:Work
         rdf:about=""><dc:format>image/svg+xml</dc:format><dc:type
           rdf:resource="http://purl.org/dc/dcmitype/StillImage" /><dc:title /></cc:Work></rdf:RDF></metadata><defs
     id="defs5037"><marker
       style="overflow:visible"
       id="Arrow1Lstart"
       refX="0"
       refY="0"
       orient="auto"
       inkscape:stockid="Arrow1Lstart"
       inkscape:isstock="true"><path
         transform="matrix(0.8,0,0,0.8,10,0)"
         style="fill:#c53d3d;fill-opacity:0.795004;fill-rule:evenodd;stroke:none;stroke-width:1pt;stroke-opacity:1"
         d="M 0,0 5,-5 -12.5,0 5,5 Z"
         id="path2155" /></marker><clipPath
       clipPathUnits="userSpaceOnUse"
       id="clipPath5049"><path
         d="M 0,600 H 600 V 0 H 0 Z"
         id="path5047"
         inkscape:connector-curvature="0" /></clipPath><linearGradient
       x1="112.49854"
       y1="6.1372099"
       x2="112.49853"
       y2="129.3468"
       id="path1082_2_"
       gradientUnits="userSpaceOnUse"
       gradientTransform="translate(287,-83)"><stop
         id="stop193"
         style="stop-color:#ffffff;stop-opacity:0"
         offset="0" /><stop
         id="stop195"
         style="stop-color:#ffffff;stop-opacity:0.27450982"
         offset="1" /><midPointStop
         offset="0"
         style="stop-color:#FFFFFF"
         id="midPointStop197" /><midPointStop
         offset="0.5"
         style="stop-color:#FFFFFF"
         id="midPointStop199" /><midPointStop
         offset="1"
         style="stop-color:#000000"
         id="midPointStop201" /></linearGradient><linearGradient
       x1="541.33502"
       y1="104.50665"
       x2="606.91248"
       y2="303.14029"
       id="linearGradient2544"
       xlink:href="#path1082_2_"
       gradientUnits="userSpaceOnUse"
       gradientTransform="matrix(-0.3937741,0,0,0.393752,357.51969,122.00151)" /><linearGradient
       id="linearGradient3388"><stop
         id="stop3390"
         style="stop-color:#000000;stop-opacity:0"
         offset="0" /><stop
         id="stop3392"
         style="stop-color:#000000;stop-opacity:0.37113401"
         offset="1" /></linearGradient><linearGradient
       x1="490.72305"
       y1="237.72447"
       x2="490.72305"
       y2="183.9644"
       id="linearGradient4416"
       xlink:href="#linearGradient3388"
       gradientUnits="userSpaceOnUse"
       gradientTransform="matrix(0.749107,0,0,0.749107,-35.459862,91.44108)" /></defs><sodipodi:namedview
     pagecolor="#ffffff"
     bordercolor="#666666"
     borderopacity="1"
     objecttolerance="10"
     gridtolerance="10"
     guidetolerance="10"
     inkscape:pageopacity="0"
     inkscape:pageshadow="2"
     inkscape:window-width="1920"
     inkscape:window-height="1052"
     id="namedview5035"
     showgrid="false"
     inkscape:zoom="0.5359992"
     inkscape:cx="900.69555"
     inkscape:cy="478.66126"
     inkscape:window-x="0"
     inkscape:window-y="28"
     inkscape:window-maximized="1"
     inkscape:current-layer="g5041"
     inkscape:document-rotation="0"
     inkscape:snap-global="true"
     showguides="true"
     inkscape:guide-bbox="true"
     fit-margin-top="0"
     fit-margin-left="0"
     fit-margin-right="0"
     fit-margin-bottom="0"
     inkscape:snap-intersection-paths="true"><inkscape:grid
       type="xygrid"
       id="grid997"
       originx="725.49429"
       originy="-129.70111" /></sodipodi:namedview><g
     id="g5041"
     inkscape:groupmode="layer"
     inkscape:label="penguin-clipart-publicdomainvectors.org"
     transform="matrix(1.3333333,0,0,-1.3333333,725.49429,670.29889)"><g
       id="g1027"
       inkscape:export-filename="/home/fjall/g1027.png"
       inkscape:export-xdpi="96"
       inkscape:export-ydpi="96"><rect
         style="fill:#ebdbb2;fill-opacity:1;fill-rule:nonzero;stroke-width:78.7272;stroke-linecap:round;stroke-linejoin:round;paint-order:stroke markers fill"
         id="rect835"
         width="1440"
         height="810"
         x="-544.12073"
         y="-502.72418"
         transform="scale(1,-1)" /><path
         d="m 175.86498,173.94259 c -6.78485,-16.63462 -10.87713,-27.51561 -18.43117,-43.65574 4.63157,-4.90946 10.3166,-10.62679 19.54907,-17.08393 -9.92581,4.0844 -16.69643,8.18504 -21.7562,12.4403 -9.66773,-20.17317 -24.81426,-48.908963 -55.551465,-104.137446 24.158405,13.947067 42.885575,22.545577 60.338395,25.826548 -0.74944,3.223292 -1.17551,6.70991 -1.14657,10.347821 l 0.0286,0.773932 c 0.38333,15.477653 8.4348,27.379958 17.97252,26.571814 9.53774,-0.808139 16.95131,-14.017914 16.56797,-29.495567 -0.0722,-2.912404 -0.4006,-5.714115 -0.97457,-8.312661 17.26332,-3.377012 35.79025,-11.953507 59.62177,-25.711887 -4.69911,8.651393 -8.89347,16.449995 -12.89895,23.877376 -6.30925,4.890094 -12.89012,11.254567 -26.31383,18.144513 9.22669,-2.397481 15.83287,-5.163541 20.98228,-8.255327 -40.72465,75.822234 -44.02247,85.897434 -57.98787,118.670254 z"
         id="path2518"
         style="fill:#282828;fill-opacity:1;fill-rule:evenodd;stroke:none;stroke-width:8.5136;stroke-linecap:round;stroke-linejoin:round;stroke-miterlimit:4;stroke-dasharray:none;stroke-opacity:1;paint-order:stroke fill markers" /><path
         id="path1001"
         style="fill:#8ec07c;fill-opacity:1;stroke:none;stroke-width:2.1835;stroke-linejoin:round;stroke-miterlimit:4;stroke-dasharray:none;stroke-opacity:1;paint-order:stroke markers fill"
         d="M 895.87927,124.37861 V 106.01436 H 399.19491 c -3.47432,6.60805 -6.66325,12.73772 -9.54735,18.36425 z m -151.40519,0 V 106.01436 H 247.78972 c -3.47432,6.60805 -6.66325,12.73772 -9.54735,18.36425 z m 123.09534,0 V 106.01436 H 370.88506 c -3.47432,6.60805 -6.66325,12.73772 -9.54735,18.36425 z m -151.40519,0 V 106.01436 H 219.47987 c -3.47432,6.60805 -6.66325,12.73772 -9.54735,18.36425 z" /><path
         id="path1003"
         style="fill:#83a598;fill-opacity:1;stroke:none;stroke-width:1.89096;stroke-linejoin:round;stroke-miterlimit:4;stroke-dasharray:none;stroke-opacity:1;paint-order:stroke markers fill"
         d="M 895.87927,106.01436 V 87.648958 H 408.93954 c -3.50418,6.551813 -6.74672,12.663452 -9.74463,18.365402 z m -151.40519,0 V 87.648958 H 257.53435 c -3.50418,6.551813 -6.74673,12.663452 -9.74463,18.365402 z m 123.09534,0 V 87.648958 H 380.62969 c -3.50418,6.551813 -6.74673,12.663452 -9.74463,18.365402 z m -151.40519,0 V 87.648958 H 229.2245 c -3.50418,6.551813 -6.74673,12.663452 -9.74463,18.365402 z" /><path
         id="path1005"
         style="fill:#fabd2f;fill-opacity:1;stroke:none;stroke-width:1.54397;stroke-linejoin:round;stroke-miterlimit:4;stroke-dasharray:none;stroke-opacity:1;paint-order:stroke markers fill"
         d="M 895.87927,87.648958 V 69.284692 H 418.82396 c -3.51658,6.496337 -6.804,12.604757 -9.88442,18.364266 z m -151.40519,0 V 69.284692 H 267.41877 c -3.51658,6.496337 -6.804,12.604757 -9.88442,18.364266 z m 123.09534,0 V 69.284692 H 390.51411 c -3.51658,6.496337 -6.804,12.604757 -9.88442,18.364266 z m -151.40519,0 V 69.284692 H 239.10892 c -3.51658,6.496337 -6.804,12.604757 -9.88442,18.364266 z" /><path
         id="path1007"
         style="fill:#fb4934;fill-opacity:1;stroke:none;stroke-width:1.09175;stroke-linejoin:round;stroke-miterlimit:4;stroke-dasharray:none;stroke-opacity:1;paint-order:stroke markers fill"
         d="M 895.87927,69.284692 V 50.92043 h -467.0559 c -3.46206,6.340276 -6.90554,12.64883 -9.99941,18.364262 z m -151.40519,0 V 50.92043 h -467.0559 c -3.46205,6.340276 -6.90554,12.64883 -9.99941,18.364262 z m 123.09534,0 V 50.92043 h -467.0559 c -3.46206,6.340276 -6.90554,12.64883 -9.99941,18.364262 z m -151.40519,0 V 50.92043 h -467.0559 c -3.46205,6.340276 -6.90554,12.64883 -9.99941,18.364262 z" /><path
         id="path1009"
         style="fill:#8ec07c;fill-opacity:1;stroke:none;stroke-width:2.1835;stroke-linejoin:round;stroke-miterlimit:4;stroke-dasharray:none;stroke-opacity:1;paint-order:stroke markers fill"
         d="m -544.12073,124.37861 v -18.36425 h 496.684362 c 3.47432,6.60805 6.66325,12.73772 9.54735,18.36425 z m 151.40519,0 v -18.36425 h 496.68436 c 3.47432,6.60805 6.66325,12.73772 9.54735,18.36425 z m -123.09534,0 v -18.36425 h 496.684362 c 3.47432,6.60805 6.66325,12.73772 9.5473505,18.36425 z m 151.40519,0 v -18.36425 h 496.68436 c 3.47432,6.60805 6.66325,12.73772 9.54735,18.36425 z" /><path
         id="path1011"
         style="fill:#83a598;fill-opacity:1;stroke:none;stroke-width:1.89096;stroke-linejoin:round;stroke-miterlimit:4;stroke-dasharray:none;stroke-opacity:1;paint-order:stroke markers fill"
         d="M -544.12073,106.01436 V 87.648958 h 486.939732 c 3.50418,6.551813 6.74672,12.663452 9.74463,18.365402 z m 151.40519,0 V 87.648958 H 94.224192 c 3.50418,6.551813 6.746728,12.663452 9.744628,18.365402 z m -123.09534,0 V 87.648958 h 486.939732 c 3.50418,6.551813 6.74673,12.663452 9.74463,18.365402 z m 151.40519,0 V 87.648958 h 486.93973 c 3.50418,6.551813 6.74673,12.663452 9.74463,18.365402 z" /><path
         id="path1013"
         style="fill:#fabd2f;fill-opacity:1;stroke:none;stroke-width:1.54397;stroke-linejoin:round;stroke-miterlimit:4;stroke-dasharray:none;stroke-opacity:1;paint-order:stroke markers fill"
         d="M -544.12073,87.648958 V 69.284692 h 477.055312 c 3.51658,6.496337 6.804,12.604757 9.88442,18.364266 z m 151.40519,0 V 69.284692 H 84.339772 c 3.51658,6.496337 6.804,12.604757 9.88442,18.364266 z m -123.09534,0 V 69.284692 h 477.055312 c 3.51658,6.496337 6.804,12.604757 9.88442,18.364266 z m 151.40519,0 V 69.284692 h 477.05531 c 3.51658,6.496337 6.804,12.604757 9.88442,18.364266 z" /><path
         id="path1015"
         style="fill:#fb4934;fill-opacity:1;stroke:none;stroke-width:1.09175;stroke-linejoin:round;stroke-miterlimit:4;stroke-dasharray:none;stroke-opacity:1;paint-order:stroke markers fill"
         d="M -544.12073,69.284692 V 50.92043 h 467.055902 c 3.46206,6.340276 6.90554,12.64883 9.99941,18.364262 z m 151.40519,0 V 50.92043 H 74.340362 c 3.46205,6.340276 6.90554,12.64883 9.99941,18.364262 z m -123.09534,0 V 50.92043 h 467.055902 c 3.46206,6.340276 6.90554,12.64883 9.99941,18.364262 z m 151.40519,0 V 50.92043 h 467.0559 c 3.46205,6.340276 6.90554,12.64883 9.99941,18.364262 z" /></g><g
       id="g956"
       transform="translate(46.384326,0.71141601)" /><g
       id="g944"
       transform="translate(96.725563,0.71141601)" /></g></svg>
