<svg width="16" height="16" fill="none" xmlns="http://www.w3.org/2000/svg"><g fill-rule="evenodd" clip-rule="evenodd"><path d="M10.175 5.245c-.228 0-.443.03-.647.087a1.528 1.528 0 0 0-.539.264c-.154.12-.275.274-.365.462-.09.185-.135.408-.135.668 0 .33.083.613.246.847.166.234.416.432.751.594.132.063.255.124.368.185.114.06.212.122.293.187.084.065.15.135.198.212a.481.481 0 0 1 .072.26c0 .073-.015.14-.045.203a.451.451 0 0 1-.138.159.696.696 0 0 1-.227.105 1.17 1.17 0 0 1-.318.038c-.207 0-.412-.042-.616-.125a1.822 1.822 0 0 1-.565-.382v1.111c.155.093.339.163.55.21.214.045.438.068.673.068.23 0 .447-.025.653-.076a1.49 1.49 0 0 0 .545-.25c.155-.118.278-.271.368-.459.091-.19.137-.424.137-.702 0-.201-.026-.378-.078-.528a1.27 1.27 0 0 0-.224-.406 1.65 1.65 0 0 0-.353-.317 3.379 3.379 0 0 0-.46-.267 6.195 6.195 0 0 1-.339-.174 1.878 1.878 0 0 1-.255-.174.751.751 0 0 1-.16-.188.455.455 0 0 1-.008-.43.474.474 0 0 1 .145-.16.683.683 0 0 1 .228-.101c.09-.025.189-.039.298-.039a1.63 1.63 0 0 1 .52.087 1.54 1.54 0 0 1 .498.26V5.437a2.02 2.02 0 0 0-.479-.143 3.223 3.223 0 0 0-.592-.048Zm-4.387.083-1.562 4.984h1.047l.303-1.109h1.526l.305 1.109h1.054L6.934 5.328H5.788Zm.56.89h-.024c-.01.146-.035.29-.075.434l-.467 1.689h1.099L6.42 6.666a2.496 2.496 0 0 1-.072-.448Z" fill="#F07178"/><path d="M4.372 3.016c-.579 0-.997.155-1.255.464-.258.306-.386.84-.386 1.6v1.233c0 .704-.2 1.055-.6 1.055v1.018c.4 0 .6.339.6 1.017v1.327c0 .756.13 1.282.39 1.577.26.295.678.442 1.251.442v-1.034c-.224 0-.385-.076-.485-.227-.098-.15-.146-.407-.146-.768V9.586c0-.903-.202-1.469-.607-1.697v-.023c.405-.232.607-.79.607-1.676V5.013c0-.642.21-.963.631-.963V3.016Zm7.33 0V4.05c.42 0 .63.321.63.963v1.134c0 .921.202 1.498.604 1.73v.022c-.402.222-.603.773-.603 1.654v1.177c0 .358-.05.61-.15.758-.1.152-.26.227-.481.227v1.034c.576 0 .992-.147 1.247-.442.258-.295.386-.832.386-1.61V9.42c0-.69.202-1.034.604-1.034V7.368c-.402 0-.604-.348-.604-1.045V5.057c0-.745-.128-1.27-.386-1.577-.258-.31-.674-.464-1.247-.464Z" fill="#82AAFF"/></g></svg>