<svg width="16" height="16" fill="none" xmlns="http://www.w3.org/2000/svg"><path d="M13.236 6.884c-.59-.562-3.536-.913-4.465-1.015.045-.106.083-.215.115-.327.127-.055.263-.107.405-.15.017.051.098.245.144.336 1.87.052 1.965-1.38 2.042-1.771.074-.383.07-.754.711-1.43-.955-.277-2.329.428-2.789 1.477a2.885 2.885 0 0 0-.517-.141C8.759 3.37 8.119 2 6.442 2 4.315 2 2 3.74 2 6.688c0 2.477 1.703 4.648 2.665 4.648.42 0 .782-.312.867-.592.07.192.29.789.36.94.107.226.597.42.811.187.276.152.782.244 1.058-.162.53.111 1-.203 1.01-.578.261-.014.39-.377.332-.667-.042-.213-.49-.977-.665-1.241.346.28 1.223.358 1.33 0 .557.435 1.426.207 1.495-.147.678.175 1.456-.21 1.328-.675 1.089-.074.95-1.225.644-1.517Z" fill="#434F65"/><path fill-rule="evenodd" clip-rule="evenodd" d="M11.105 3.151c-.372.313-.667.817-.902 1.28.158.11.467.368.602.503.219-.265.292-.639.365-1.015.084-.43.169-.864.474-1.14-.854.047-1.63.638-1.963 1.345.125.06.248.129.37.206.24-.524.644-1.015 1.054-1.179ZM9.853 4.967c-.013.062-.02.198-.02.216.016-.027.053-.103.079-.158a8.09 8.09 0 0 1 .02-.043c.205.039.473.104.63.177-.184.118-.498.248-.933.257-.063-.136-.127-.362-.12-.494.107-.003.311.037.344.045Z" fill="#89DDFF"/><path fill-rule="evenodd" clip-rule="evenodd" d="M9.632 7.064Zm0 0c.828.063 2.196.186 3.043.304-.054-.274-.2-.352-.66-.475-.494.052-1.749.175-2.383.171ZM8.218 8.841V8.84c.358.388 1.265.348 1.256-.004.723.366 1.36.05 1.202-.3.714.236 1.228-.193.963-.55.49.112.814-.05.956-.281-.214-.055-.897-.19-1.61-.327.107.17-.37.559-.788.365.195.437-.664.801-1.082.49.045.352-.808.555-1.08.161.07.187.128.33.183.448Z" fill="#2ECC71"/><path d="M9.115 8.232c.418.311 1.277-.052 1.082-.49.418.194.895-.196.788-.365a76.617 76.617 0 0 0-1.928-.352c.122.006.323.02.575.04.634.003 1.889-.12 2.383-.172-.8-.202-2.435-.496-3.564-.568a1.614 1.614 0 0 1-.316.341c-.494 1.038-1.39 1.728-2.38 1.728a3.21 3.21 0 0 1-.973-.163c-.226.24-1.188.422-1.969.041a3.984 3.984 0 0 0 3.646 2.402c1.339 0 1.932-1.358 1.803-1.717-.032-.087-.157-.377-.227-.563.272.393 1.125.19 1.08-.163Z" fill="#FFCB6B"/><path d="M8.304 5.498c.118-.063.527-.31.916-.402a1.703 1.703 0 0 1-.014-.13c-.255.062-.737.267-1.013-.016.583.175.873-.155 1.301-.155.255 0 .619.07.906.182-.231-.211-.987-.85-1.924-.852a1.33 1.33 0 0 0-.172 1.373Z" fill="#CFD2D3"/><path d="M4.782 8.23c.362.116.685.164.973.164.99 0 1.886-.69 2.38-1.728-.366.303-1 .562-1.992.562.883-.199 1.643-.636 2.03-1.275-.272-.43-.567-1.38.18-2.132-.115-.367-.674-1.334-1.912-1.334-2.16 0-3.95 1.795-3.95 4.2 0 .57.115 1.104.322 1.585.78.38 1.743.199 1.969-.041Z" fill="#F07178"/><path d="M5.43 4.568c0 .547.447.99.998.99a.994.994 0 0 0 .997-.99.994.994 0 0 0-.997-.991.994.994 0 0 0-.998.99Z" fill="#FFCB6B"/><path d="M5.83 4.568c0 .327.268.593.598.593.33 0 .597-.266.597-.593a.595.595 0 0 0-.597-.594.595.595 0 0 0-.598.594Z" fill="#343944"/><path d="M6.428 4.52c.192 0 .348-.097.348-.216 0-.118-.156-.215-.348-.215-.193 0-.348.097-.348.215 0 .12.155.215.348.215Z" fill="#fff"/></svg>