<svg xmlns="http://www.w3.org/2000/svg" width="32" height="32"><defs><linearGradient id="a" x1="50%" x2="50%" y1="0%" y2="100%"><stop offset="0%" stop-color="#EA7D7F"/><stop offset="100%" stop-color="#D14748"/></linearGradient><filter id="b" width="141.7%" height="131.2%" x="-20.8%" y="-15.6%" filterUnits="objectBoundingBox"><feOffset dx="-1" in="SourceAlpha" result="shadowOffsetOuter1"/><feColorMatrix in="shadowOffsetOuter1" result="shadowMatrixOuter1" values="0 0 0 0 0 0 0 0 0 0 0 0 0 0 0 0 0 0 0.2 0"/><feMerge><feMergeNode in="shadowMatrixOuter1"/><feMergeNode in="SourceGraphic"/></feMerge></filter></defs><g fill="none" fill-rule="evenodd"><path fill="url(#a)" d="m27.866 15.716-1.011-.613a.597.597 0 0 0-.019-.145.597.597 0 0 1-.018-.145l.866-.828a.32.32 0 0 0 .09-.145.751.751 0 0 0 .018-.18 1.167 1.167 0 0 0-.09-.145.327.327 0 0 0-.127-.109l-1.117-.396a.591.591 0 0 1-.053-.145.798.798 0 0 1-.019-.146l.686-.973a.569.569 0 0 0 .053-.161.257.257 0 0 0-.018-.161.548.548 0 0 0-.109-.146.237.237 0 0 0-.18-.071l-1.154-.18-.146-.288.506-1.044a.376.376 0 0 0 .018-.199.685.685 0 0 0-.053-.161.226.226 0 0 0-.127-.108.446.446 0 0 0-.161-.037l-1.192.037a1.01 1.01 0 0 1-.09-.109 1.01 1.01 0 0 0-.09-.108l.252-1.153c.025-.072.025-.132 0-.18l-.072-.145a.316.316 0 0 0-.161-.09.814.814 0 0 0-.162-.018l-1.154.288a.54.54 0 0 1-.127-.09.54.54 0 0 0-.127-.09l.072-1.19a.293.293 0 0 0-.054-.18.355.355 0 0 0-.127-.108.223.223 0 0 0-.161-.071.348.348 0 0 0-.162.037l-1.082.468a1.79 1.79 0 0 1-.127-.072 1.79 1.79 0 0 0-.127-.071l-.18-1.153a1.167 1.167 0 0 0-.09-.145.327.327 0 0 0-.127-.109.584.584 0 0 0-.18-.036.354.354 0 0 0-.18.071l-.938.685a.593.593 0 0 0-.145-.053.802.802 0 0 0-.146-.019l-.397-1.116a.624.624 0 0 0-.108-.145.233.233 0 0 0-.18-.071c-.048-.025-.102-.025-.162 0a.49.49 0 0 0-.162.108l-.794.865a.599.599 0 0 1-.145-.019.599.599 0 0 0-.146-.018l-.614-1.01a1.362 1.362 0 0 0-.145-.127.281.281 0 0 0-.18-.053.25.25 0 0 0-.146.053 1.108 1.108 0 0 0-.145.127l-.614 1.01a.599.599 0 0 0-.146.018.599.599 0 0 1-.145.019l-.829-.865a.236.236 0 0 0-.127-.108c-.06-.025-.114-.025-.161 0a.244.244 0 0 0-.18.071.566.566 0 0 0-.109.145l-.397 1.116a.599.599 0 0 0-.146.019.753.753 0 0 0-.145.053l-.974-.685a.223.223 0 0 0-.162-.071.348.348 0 0 0-.288.145.775.775 0 0 0-.09.145l-.18 1.153a1.79 1.79 0 0 0-.127.071 1.79 1.79 0 0 1-.127.072L9.67 6.02a.348.348 0 0 0-.162-.037.223.223 0 0 0-.161.071.383.383 0 0 0-.127.109.275.275 0 0 0-.053.18l.071 1.19a.54.54 0 0 0-.127.089.54.54 0 0 1-.127.09L7.83 7.424a.814.814 0 0 0-.162.018.316.316 0 0 0-.161.09.32.32 0 0 0-.09.145.318.318 0 0 0 .018.18l.252 1.153a1.01 1.01 0 0 0-.09.108 1.01 1.01 0 0 1-.09.109L6.316 9.19a.433.433 0 0 0-.162.037.236.236 0 0 0-.127.108.223.223 0 0 0-.072.161c0 .06.013.126.037.199l.506 1.044-.146.288-1.19.18c-.048 0-.097.024-.146.071a.503.503 0 0 0-.109.146.26.26 0 0 0-.018.161c.01.058.028.112.053.161l.686.973a.323.323 0 0 1-.037.146.323.323 0 0 0-.037.145l-1.118.396a.383.383 0 0 0-.127.109.775.775 0 0 0-.09.145c0 .072.006.132.019.18a.336.336 0 0 0 .09.145l.866.828a.597.597 0 0 1-.019.145.597.597 0 0 0-.018.145l-1.012.613a.236.236 0 0 0-.108.127.431.431 0 0 0-.037.162.39.39 0 0 0 .037.18.25.25 0 0 0 .108.108l1.012.648c0 .047.006.096.018.145.012.05.019.097.019.145l-.866.793a.315.315 0 0 0-.09.162.81.81 0 0 0-.019.161.416.416 0 0 0 .09.161.484.484 0 0 0 .127.09l1.118.434c0 .047.012.096.037.145.024.05.037.098.037.145l-.686.936a.569.569 0 0 0-.053.162.257.257 0 0 0 .018.16.321.321 0 0 0 .109.162.242.242 0 0 0 .145.053l1.191.217a.4.4 0 0 1 .072.108l.072.146-.506 1.08a.346.346 0 0 0-.037.162c0 .06.024.114.072.162a.236.236 0 0 0 .127.108c.06.025.113.037.161.037l1.191-.037a.54.54 0 0 0 .09.127l.09.09-.251 1.152a.376.376 0 0 0-.019.199c.013.06.043.102.09.127a.49.49 0 0 0 .162.108c.06.025.114.025.162 0l1.154-.288c.048.047.09.083.127.108.037.025.067.06.09.108l-.037 1.153c0 .072.018.132.053.18.035.048.078.096.127.145a.57.57 0 0 0 .162.053c.06.011.114.005.161-.018l1.083-.505c.048.025.09.048.127.071.037.023.08.047.127.072l.18 1.153a.654.654 0 0 0 .09.18.355.355 0 0 0 .127.108h.162l.161-.072.974-.684a.593.593 0 0 0 .146.053c.05.01.098.028.145.053l.397 1.08a.321.321 0 0 0 .109.162.294.294 0 0 0 .18.053c.048.025.102.025.162 0a.433.433 0 0 0 .127-.071l.828-.865h.289l.614 1.01c.048.048.096.09.145.127a.23.23 0 0 0 .146.053.294.294 0 0 0 .18-.053c.048-.035.096-.078.145-.127l.614-1.01h.289l.794.865c.048.024.102.048.162.071.06.023.114.023.161 0a.294.294 0 0 0 .18-.053c.048-.035.072-.089.072-.161l.434-1.081a.593.593 0 0 1 .145-.053.593.593 0 0 0 .146-.053l.937.684a.354.354 0 0 0 .18.072h.18a.383.383 0 0 0 .127-.109.579.579 0 0 0 .09-.18L21 25.66a1.79 1.79 0 0 0 .127-.072 1.79 1.79 0 0 1 .127-.071l1.083.505c.048.024.102.03.162.018a.687.687 0 0 0 .161-.053 1.36 1.36 0 0 0 .127-.145.28.28 0 0 0 .053-.18l-.071-1.153a.873.873 0 0 1 .127-.108.873.873 0 0 0 .127-.108l1.154.288c.048.025.102.025.162 0a.49.49 0 0 0 .161-.108.372.372 0 0 0 .072-.127.292.292 0 0 0 0-.199l-.252-1.152.09-.09.09-.127 1.191.037a.433.433 0 0 0 .162-.037.236.236 0 0 0 .127-.108.569.569 0 0 0 .053-.162.257.257 0 0 0-.018-.161l-.506-1.081.072-.146.071-.108 1.154-.217a.294.294 0 0 0 .18-.053.323.323 0 0 0 .109-.161.238.238 0 0 0 .019-.161.685.685 0 0 0-.054-.162l-.685-.936c0-.047.006-.096.018-.145a.75.75 0 0 1 .053-.145l1.118-.434a.54.54 0 0 0 .127-.09.38.38 0 0 0 .09-.161.81.81 0 0 0-.019-.161.315.315 0 0 0-.09-.162l-.866-.793v-.145l.037-.145 1.012-.648a.246.246 0 0 0 .108-.109.39.39 0 0 0 .037-.18.431.431 0 0 0-.037-.16.236.236 0 0 0-.108-.128h.011Zm-6.746 8.358a.722.722 0 0 1-.45-.325.799.799 0 0 1-.127-.54.721.721 0 0 1 .326-.45.667.667 0 0 1 .54-.09c.19.048.34.15.45.307.11.157.14.343.09.558a.679.679 0 0 1-.307.434.78.78 0 0 1-.524.108l.002-.002Zm-.36-2.306a.592.592 0 0 0-.487.072.532.532 0 0 0-.27.396l-.36 1.692a9.3 9.3 0 0 1-1.75.558 9.233 9.233 0 0 1-3.805 0 7.823 7.823 0 0 1-1.768-.594l-.36-1.693a.69.69 0 0 0-.289-.396.534.534 0 0 0-.468-.072l-1.48.289a6.344 6.344 0 0 1-.397-.434 7.94 7.94 0 0 1-.36-.468h7.251l.037-.071v-2.523c0-.047-.012-.077-.037-.09a.16.16 0 0 0-.072-.018h-2.128V16.83h2.272c.12 0 .348.054.685.161.337.108.578.45.723 1.026.048.168.114.474.198.918.085.444.163.762.236.954.048.217.198.475.45.775.252.3.523.45.813.45h3.68c-.12.167-.247.33-.38.486-.131.157-.27.319-.415.486l-1.514-.325-.005.007Zm-9.92 2.269a.84.84 0 0 1-.54-.109.558.558 0 0 1-.288-.433.663.663 0 0 1 .09-.54.734.734 0 0 1 .45-.325.654.654 0 0 1 .54.09.61.61 0 0 1 .289.45.663.663 0 0 1-.09.54.734.734 0 0 1-.45.325v.002ZM8.135 13.014a.697.697 0 0 1 0 .54.66.66 0 0 1-.36.396.747.747 0 0 1-.56 0 .661.661 0 0 1-.378-.36.65.65 0 0 1 .36-.935.716.716 0 0 1 .94.36h-.002Zm-.83 1.98 1.515-.684a.598.598 0 0 0 .342-.36.668.668 0 0 0-.018-.504l-.29-.722h1.227v5.62H7.555a11.96 11.96 0 0 1-.235-1.189 8.417 8.417 0 0 1-.09-1.224 6.215 6.215 0 0 1 .071-.936h.005Zm6.71-.539v-1.657h2.957c.097 0 .302.06.614.18s.469.348.469.684c0 .29-.139.494-.416.614-.277.12-.572.18-.884.18h-2.743.003ZM24.8 15.931c0 .12-.006.233-.018.341-.012.108-.019.21-.019.307h-.902c-.048 0-.078.012-.09.037a.25.25 0 0 0-.019.108v.433c0 .481-.114.8-.341.955a1.515 1.515 0 0 1-.705.27 1.223 1.223 0 0 1-.648-.109c-.216-.097-.336-.217-.36-.36-.145-.768-.331-1.29-.56-1.567a5.88 5.88 0 0 0-.883-.846 5.714 5.714 0 0 0 1.226-1.026c.384-.42.577-.906.577-1.46 0-.6-.163-1.087-.487-1.459-.325-.372-.62-.654-.885-.846-.409-.264-.8-.433-1.172-.505-.373-.072-.619-.108-.74-.108H9.47a8.371 8.371 0 0 1 2.2-1.8 8.343 8.343 0 0 1 2.706-.974l1.117 1.153c.12.12.27.186.45.198.18.013.33-.054.45-.198l1.226-1.153a8.573 8.573 0 0 1 3.516 1.494 8.86 8.86 0 0 1 2.507 2.755l-.828 1.91a.537.537 0 0 0-.037.504c.072.17.192.289.36.36l1.623.721c0 .145.006.29.018.434.013.144.019.289.019.433l.004-.002Zm-9.306-9.582A.694.694 0 0 1 16 6.133c.192 0 .36.072.506.216.12.145.18.32.18.524a.599.599 0 0 1-.217.486.694.694 0 0 1-.506.217.694.694 0 0 1-.506-.217.653.653 0 0 1-.198-.523.653.653 0 0 1 .235-.487Zm8.332 6.7a.65.65 0 0 1 .397-.397.605.605 0 0 1 .54.037.594.594 0 0 1 .379.378c.06.18.054.366-.018.558a.661.661 0 0 1-.38.36.747.747 0 0 1-.558 0 .66.66 0 0 1-.36-.397.697.697 0 0 1 0-.539Z"/><g fill="#F4BF75" fill-rule="nonzero" filter="url(#b)" transform="translate(20 16)"><path d="M10.5 5.333h-.75V3.81C9.75 1.707 8.07 0 6 0 3.93 0 2.25 1.707 2.25 3.81v1.523H1.5c-.825 0-1.5.686-1.5 1.524v7.62C0 15.313.675 16 1.5 16h9c.825 0 1.5-.686 1.5-1.524V6.857c0-.838-.675-1.524-1.5-1.524ZM6 12.19c-.825 0-1.5-.685-1.5-1.523 0-.838.675-1.524 1.5-1.524s1.5.686 1.5 1.524S6.825 12.19 6 12.19Zm2.325-6.857h-4.65V3.81c0-1.303 1.043-2.362 2.325-2.362 1.282 0 2.325 1.059 2.325 2.362v1.523Z"/></g></g></svg>