<svg width="16" height="16" fill="none" xmlns="http://www.w3.org/2000/svg"><g fill="#F78C6C"><path d="M8.337 6.05c-3.91.017-7.779-1.094-4.953-2.17-1.178.975 1.875 1.626 4.935 1.643 3.053.016 6.112-.6 5.199-1.54 2.34 1.03-1.466 2.053-5.18 2.068Z"/><path d="M2.96 7.543A9.905 9.905 0 0 1 2.498 5.7c1.085 1.591 10.671 1.634 11.747 0-.216 1.238-.602 2.397-1.159 3.408-.42.636-.84 1.193-1.26 1.795a4.302 4.302 0 0 0-.37 1.057c-.866 1.334-5.14 1.523-6.152 0a4.409 4.409 0 0 0-.386-1.057c-.715-.928-1.445-2.002-1.783-2.9-.45.434-.548.963-.467 1.548.073.522.352.954.773 1.261.386.307.772.455 1.227.455-.216.068-.455.181-.67.216-.557.102-1.046 0-1.5-.353-.432-.352-.705-.806-.739-1.363a2.355 2.355 0 0 1 .523-1.613c.205-.26.43-.46.678-.61Z"/></g><path d="M5.85 3.215c.862-.073 1.023.284.726.41-1.378-.457-1.72.575-.409.465 1.193-.102 1.182-.909 2.931-1.068 1.364-.125 2.125.296 2.227.807.08.398-.251.764-1.238.863-1.29.13-1.96-.598-.966-.75.046.194.284.398.852.341.41-.034.75-.181.705-.409-.046-.238-.478-.375-1.16-.318-1.385.125-1.726.886-2.908.989-1.536.178-2.373-1.164-.76-1.33Z" fill="#FFCB6B"/></svg>