<svg width="16" height="16" fill="none" xmlns="http://www.w3.org/2000/svg"><path fill-rule="evenodd" clip-rule="evenodd" d="m7.87 10.269.231 1.394c-.147.08-.384.154-.7.223A5.09 5.09 0 0 1 6.263 12c-1.249-.023-2.187-.4-2.814-1.12-.633-.726-.95-1.646-.95-2.76.028-1.32.407-2.331 1.13-3.04C4.377 4.366 5.303 4 6.423 4c.424 0 .79.04 1.096.109.305.068.531.142.678.228L7.87 5.76l-.6-.194a3.214 3.214 0 0 0-.785-.086c-.656-.006-1.198.206-1.622.629-.43.417-.65 1.057-.667 1.908 0 .777.209 1.383.61 1.829.401.44.967.668 1.69.674l.752-.069c.243-.045.446-.108.622-.182Zm-.718-2.84h1.13V6.286h1.131v1.143h1.13V8.57h-1.13v1.143h-1.13V8.571h-1.13V7.43Zm5.087 0h-1.13V8.57h1.13v1.143h1.13V8.571H14.5V7.43h-1.13V6.286h-1.13v1.143Z" fill="#3965BD"/></svg>