<svg width="16" height="16" fill="none" xmlns="http://www.w3.org/2000/svg"><path fill-rule="evenodd" clip-rule="evenodd" d="M8 3.375h5.6c.77 0 1.4.619 1.4 1.375v.518A1.99 1.99 0 0 0 14 5h-.4v-.25H2.4v6.875H5V13H2.4c-.77 0-1.4-.619-1.4-1.375l.007-8.25C1.007 2.619 1.63 2 2.4 2h4.2L8 3.375Z" fill="#F44336"/><g clip-path="url(#a)"><path d="m9.953 11.09-.857.47c-.494-.484-.961-.72-1.233-1.087-.347-.468-.236-1.083.531-1.69 1.67-1.271 3.292-1.32 3.686-.823.363.456-.262 1.446-1.323 1.802-.65.22-1.27.228-1.591-.135-.043-.06-.11-.006-.088.05.212.633 1.182.59 1.909.415 1.356-.328 2.373-2.068 1.13-2.747C10.304 6.496 7.14 8.43 7.005 9.79c-.077.774.927 1.322 1.765 1.952-.66.353-1.142.68-1.306.96-.167.264-.227.545-.102.845.235.53 1.055.282 1.36.065.485-.345.865-1.027.54-1.82l.495-.284.007.007-.026.088c-.154.497-.105.966.136 1.313.102.147.327.163.456.05.131-.117.236-.403.402-.76-.042.374-.01.685.213.709.138.014.264-.118.37-.295.277-.464.537-1.038.796-1.655.052.255.132.489.245.7.028.055.025.091-.014.138l-.48.59c-.232.27-.15.41.16.39.438-.04.978-.324.852-.91-.047-.218-.107-.25-.059-.307.185-.264.363-.587.51-.873.047.248.121.494.25.71-.31.279-.534.57-.522.903.017.132.125.217.254.187.341-.051.733-.365.78-.608.028-.138.018-.274-.057-.483 1.383-.463 2.21.571 1.544 1.026a.238.238 0 0 0-.069.05c-.02.029-.011.062.029.061.066 0 .118-.032.166-.06.66-.389.178-1.467-.881-1.483a2.011 2.011 0 0 0-.893.185c-.183-.3-.243-.576-.192-.8.025-.106.059-.21.09-.314.014-.054.01-.103-.103-.127a.873.873 0 0 0-.372.028c-.09.025-.078.084-.108.165-.07.364-.337.772-.587 1.205a1.032 1.032 0 0 1-.146-.594c.008-.123.062-.284.104-.415.02-.055.001-.092-.102-.12-.177-.025-.35.008-.422.052-.057.036-.072.242-.148.41-.313.687-.653 1.513-.796 1.712-.087-.052.076-.623.212-1.137.048-.154-.144-.25-.295-.141.146-.776-.526-.726-1.053-.06a.185.185 0 0 1-.054.046Zm-.96 1.287a1.14 1.14 0 0 1-.407.79c-.612.491-.969.174-.66-.356.13-.273.563-.55 1.024-.83.035.133.053.263.043.396Zm1.14.098c-.176-.421.058-1.217.465-1.512.149-.088.214-.066.203.021a2.418 2.418 0 0 1-.068.304 8.981 8.981 0 0 1-.38 1.004c-.105.224-.18.277-.22.183Zm1.901.08.443-.517c.019.192-.308.576-.443.518Zm1.305-.295c-.024.006-.034-.011-.02-.082.06-.211.17-.394.345-.546.08.222-.008.51-.325.628Z" fill="#FF9CAC"/></g><defs><clipPath id="a"><path fill="#fff" transform="translate(7 6)" d="M0 0h9v9H0z"/></clipPath></defs></svg>