<svg width="16" height="16" fill="none" xmlns="http://www.w3.org/2000/svg"><path fill-rule="evenodd" clip-rule="evenodd" d="M8 3.375h5.6c.77 0 1.4.619 1.4 1.375v.518A1.99 1.99 0 0 0 14 5h-.4v-.25H2.4v6.875H5V13H2.4c-.77 0-1.4-.619-1.4-1.375l.007-8.25C1.007 2.619 1.63 2 2.4 2h4.2L8 3.375Z" fill="#FF7042"/><rect opacity=".2" x="6.222" y="6.222" width="8.556" height="8.556" rx="1" fill="#F5F7F9"/><rect x="7.444" y="7.444" width="2.444" height="2.444" rx="1" fill="#3965BD"/><rect x="11.111" y="7.444" width="2.444" height="2.444" rx="1" fill="#C3E88D"/><rect x="11.111" y="11.111" width="2.444" height="2.444" rx="1" fill="#FC8289"/><rect x="7.444" y="11.111" width="2.444" height="2.444" rx="1" fill="#FF9CAC"/><rect x="7" y="7" width="3" height="3" rx="1.5" fill="#00B6C2"/><rect x="11" y="7" width="3" height="3" rx="1.5" fill="#C3E88D"/><rect x="11" y="11" width="3" height="3" rx="1.5" fill="#FC8289"/><rect x="7" y="11" width="3" height="3" rx="1.5" fill="#FF9CAC"/></svg>