<svg width="16" height="16" fill="none" xmlns="http://www.w3.org/2000/svg"><path opacity=".8" fill-rule="evenodd" clip-rule="evenodd" d="M2.4 2h4.2L8 3.375h5.6c.77 0 1.4.619 1.4 1.375v.518A1.99 1.99 0 0 0 14 5H7a2 2 0 0 0-2 2v6H2.4c-.77 0-1.4-.619-1.4-1.375l.007-8.25C1.007 2.619 1.63 2 2.4 2Z" fill="#4E5579"/><path fill-rule="evenodd" clip-rule="evenodd" d="M7.222 6.222a1 1 0 0 0-1 1v6.556a1 1 0 0 0 1 1h6.556a1 1 0 0 0 1-1V7.222a1 1 0 0 0-1-1H7.222Zm3.525 4.486.313-.158 2.5-1.254-.011 2.849-2.814 1.412.012-2.85ZM13.38 8.92 10.5 7.444l-1.222.611-1.701.865 1.835.898 1.077.553 1.076-.54 1.814-.911Zm-4.87 1.634.516.235.003-.694 1.203.615-.012 2.83-2.781-1.426.012-2.829 1.062.543-.003.726Z" fill="#F78C6C"/></svg>