<svg width="16" height="16" fill="none" xmlns="http://www.w3.org/2000/svg"><path fill-rule="evenodd" clip-rule="evenodd" d="M13.6 3.375H8L6.6 2H2.4c-.77 0-1.393.619-1.393 1.375L1 11.625C1 12.381 1.63 13 2.4 13H5v-1.375H2.4V4.75h11.2V5h.4c.364 0 .706.097 1 .268V4.75c0-.756-.63-1.375-1.4-1.375Z" fill="#80CBC4"/><path fill-rule="evenodd" clip-rule="evenodd" d="M7.222 6.222a1 1 0 0 0-1 1v6.556a1 1 0 0 0 1 1h6.556a1 1 0 0 0 1-1V7.222a1 1 0 0 0-1-1H7.222Zm3.525 4.486.313-.157 2.5-1.255-.011 2.849-2.814 1.412.012-2.85ZM13.38 8.92 10.5 7.444l-1.222.612-1.701.864 1.835.898 1.077.553 1.076-.54 1.814-.911Zm-4.87 1.634.516.235.003-.693 1.203.615-.012 2.828-2.781-1.425.012-2.829 1.062.543-.003.726Z" fill="#F78C6C"/></svg>