<svg width="16" height="16" fill="none" xmlns="http://www.w3.org/2000/svg"><path fill-rule="evenodd" clip-rule="evenodd" d="M8 2C4.66 2 2 4.66 2 8c0 3.338 2.66 6 6 6 3.338 0 6-2.66 6-6s-2.66-6-6-6ZM3.304 8.052l4.644 4.644a4.654 4.654 0 0 1-4.644-4.644Zm.105-1.095 5.635 5.634A4.703 4.703 0 0 0 12.696 8H9.617v.887h2.035c-.26 1.253-1.2 2.296-2.4 2.713L4.348 6.695a3.78 3.78 0 0 1 3.6-2.556 3.83 3.83 0 0 1 3.183 1.67l.677-.574A4.74 4.74 0 0 0 8 3.305a4.703 4.703 0 0 0-4.591 3.652Z" fill="#FF9CAC"/></svg>