<svg width="16" height="16" fill="none" xmlns="http://www.w3.org/2000/svg"><path d="m8.004 13.457 2.207-6.729H5.796l2.208 6.73Z" fill="#FC8289"/><path d="M8.004 13.457 5.796 6.728H2.7l5.303 6.729Z" fill="#FFCB6B"/><path d="m2.701 6.728-.67 2.045a.45.45 0 0 0 .165.506l5.808 4.178L2.7 6.728Z" fill="#E2AC1D"/><path d="M2.701 6.728h3.095l-1.33-4.052c-.069-.209-.367-.209-.435 0L2.7 6.728Z" fill="#FC8289"/><path d="m8.004 13.457 2.207-6.729h3.095l-5.302 6.729Z" fill="#FFCB6B"/><path d="m13.306 6.728.671 2.045a.45.45 0 0 1-.166.506l-5.807 4.178 5.302-6.729Z" fill="#E2AC1D"/><path d="M13.306 6.728h-3.095l1.33-4.052c.069-.209.367-.209.435 0l1.33 4.052Z" fill="#FC8289"/></svg>