<svg width="16" height="16" fill="none" xmlns="http://www.w3.org/2000/svg"><path fill-rule="evenodd" clip-rule="evenodd" d="M3.293 8.317a.258.258 0 0 0-.256-.346c-.266.022-.45.59.115.78.464.155.803-.204 1.338-.758 1.196-1.238 2.64-1.358 3.521-.108.363-.685 1.794-1.827 3.976.541.802.87 1.52.052 1.125-.397a.23.23 0 0 0-.352.289h-.034c-.82-.748.893-1.443 1.233-.18.35 1.9-1.604 2.208-3.169 1.517-3.025-1.553-3.057-1.136-5.985.144a2.48 2.48 0 0 1-2.441-.276c-.528-.519-.495-1.752.19-2 .699-.288 1.29.328.74.794Z" fill="#FFCB6B"/></svg>