<svg width="16" height="16" fill="none" xmlns="http://www.w3.org/2000/svg"><path fill="#FFCB6B" d="M4.25 4.25h7.5v7.5h-7.5z"/><path d="m3 3 .313 2.5L4.25 8 8 4.25l-2.5-.938L3 3Zm0 10 2.5-.313L8 11.75 4.25 8l-.938 2.5L3 13Zm10 0-.313-2.5L11.75 8 8 11.75l2.5.938L13 13Zm0-10-2.5.313L8 4.25 11.75 8l.938-2.5L13 3Z" fill="#F78C6C"/><path d="m3 3 5 1.25L5.5 3H3Z" fill="#FFCB08"/><path d="M3 3v2.5L4.25 8 3 3Zm0 10 1.25-5L3 10.5V13Z" fill="#FFF200"/><path d="M3 13h2.5L8 11.75 3 13Z" fill="#F78C6C"/><path d="m13 13-5-1.25L10.5 13H13Z" fill="#F7941E"/><path d="M13 13v-2.5L11.75 8 13 13Zm0-10-1.25 5L13 5.5V3Z" fill="#F15922"/><path d="M13 3h-2.5L8 4.25 13 3Z" fill="#FFCB08"/></svg>