<svg width="16" height="16" fill="none" xmlns="http://www.w3.org/2000/svg"><g fill="#FC8289"><path d="m10.12 5.474-.675 1.368c.222.206.378.477.44.785h.51c.058-.291.202-.553.407-.756l-.682-1.397Z"/><path d="m8.877 6.511 1.243-2.52 1.24 2.536c.049-.016.098-.029.147-.042L12.685 3H7.552l1.175 3.475a2.5 2.5 0 0 1 .15.036ZM8.45 8.74a.824.824 0 0 0 .688-1.277.81.81 0 0 0-.091-.117l-.004-.004a.609.609 0 0 0-.11-.095l-.004-.003c-.01-.006-.023-.016-.036-.023-.003 0-.003-.003-.006-.003l-.04-.023h-.003l-.042-.023h-.003a.2.2 0 0 0-.04-.016c-.003 0-.006-.003-.01-.003l-.032-.014c-.003 0-.007-.003-.013-.003-.013-.003-.026-.01-.04-.013h-.003l-.045-.01c-.003 0-.007 0-.013-.003-.013-.003-.023-.003-.036-.007-.007 0-.01 0-.016-.003l-.033-.003H8.39c-.013 0-.023.003-.036.003h-.013c-.013.003-.026.003-.04.007h-.01l-.045.01a.828.828 0 0 0-.626.801.836.836 0 0 0 .828.822Zm3.458-1.65h-.006c-.013 0-.023-.003-.036-.003h-.043c-.016 0-.032 0-.052.003h-.016c-.013 0-.026.004-.04.004-.003 0-.01 0-.012.003l-.05.01h-.003l-.045.01-.013.003a.184.184 0 0 0-.04.013c-.003 0-.006.003-.01.003a.629.629 0 0 0-.045.02l-.046.02c-.003 0-.006.003-.01.003a.244.244 0 0 0-.039.023s-.003 0-.003.003a.491.491 0 0 0-.085.059l-.003.003a.723.723 0 0 0-.206.239.824.824 0 0 0 .715 1.234c.454 0 .822-.37.822-.825a.831.831 0 0 0-.734-.825ZM5.04 8.74a.824.824 0 0 0 0-1.65.824.824 0 0 0 0 1.65Z"/><path d="M11.827 9.378c-.68 0-1.25-.468-1.413-1.097h-.548a1.464 1.464 0 0 1-1.639 1.08c-.189.291-.414.56-.678.808a4.493 4.493 0 0 1-1.566.976l-.134.049-.124-.066c-.685-.353-1.038-1.07-.914-1.763a1.264 1.264 0 0 1-.225-.06c-.013.024-.023.05-.036.076-.209.432-.427.877-.506 1.355-.085.51-.12 1.443.597 1.94A1.73 1.73 0 0 0 5.653 13c.708 0 1.472-.38 2.28-.782.634-.314 1.286-.641 1.965-.808a8.28 8.28 0 0 1 .77-.138c.46-.065.898-.13 1.253-.337a1.44 1.44 0 0 0 .708-1.004c.046-.256.02-.514-.065-.753-.215.124-.466.2-.737.2Z"/></g></svg>