<svg width="32" height="32" xmlns="http://www.w3.org/2000/svg"><g fill="none" fill-rule="evenodd"><path d="M16.012 9.321h3.384c-1.247 2.04-2.625 4.286-4.001 6.538h-3.387c1.378-2.248 2.754-4.498 4.004-6.538Z" fill="#888"/><path d="M8.003 9.321h3.386l-2.004 3.271c-.666 1.09-1.333 2.178-2.001 3.265l1.999 3.272a868.235 868.235 0 0 0 2.004 3.266H8a827.893 827.893 0 0 1-2.004-3.266L4 15.857l1.999-3.266c.667-1.091 1.335-2.181 2.004-3.27Z" fill="#7ACCEE"/><path d="M9.979 11.625H6.592c-.435.707-.867 1.415-1.299 2.12L4 15.857h3.384c.429-.704.864-1.41 1.296-2.115.432-.705.864-1.411 1.299-2.117Z" fill="#7ACCEE"/><path d="M5.41 13.555h3.385c.434-.706.866-1.414 1.298-2.12.432-.705.864-1.406 1.295-2.114H8.003c-.429.704-.864 1.411-1.296 2.116-.432.704-.863 1.412-1.298 2.118Z" fill="#7ACCEE"/><path d="M8.002 9.319c1.38 2.252 2.76 4.5 4.007 6.538h3.387l-4.007-6.536-3.387-.002Z" fill="#80CBC4"/><path d="M19.396 9.321h-3.384a6946.29 6946.29 0 0 0 2.001 3.271 1719.5 1719.5 0 0 0 2.004 3.265c-.67 1.092-1.337 2.183-2.004 3.272l-2.001 3.266h3.387c.667-1.086 1.334-2.175 2.001-3.266.667-1.092 1.335-2.182 2.004-3.272-.672-1.088-1.336-2.175-2.004-3.266-.668-1.09-1.337-2.177-2.004-3.27Z" fill="#F4BF75"/><path d="M13.984 13.555H10.6c-.435-.706-.867-1.414-1.299-2.12-.432-.705-.866-1.406-1.296-2.114h3.384c.429.704.864 1.411 1.296 2.116.432.704.864 1.412 1.299 2.118Z" fill="#80CBC4"/><path d="M17.994 11.621h-3.39L13.31 13.74c-.435.706-.868 1.412-1.3 2.118h3.386l1.303-2.12c.434-.707.866-1.412 1.296-2.116Z" fill="#9DBD58"/><path d="M13.417 13.56h3.387l1.296-2.12 1.296-2.12h-3.384l-1.299 2.12-1.296 2.118Z" fill="#9DBD58"/><path d="M21.995 13.56h-3.386l-1.301-2.119-1.296-2.12h3.384c.432.708.865 1.414 1.299 2.12.432.705.866 1.416 1.3 2.118Z" fill="#F4BF75"/><path d="M23.99 9.321h-3.387c.667 1.094 1.334 2.184 1.999 3.271a827.5 827.5 0 0 0 2.007 3.265c-.67 1.092-1.338 2.183-2.004 3.272-.666 1.089-1.333 2.178-2.001 3.266h3.386c.668-1.086 1.335-2.175 2.002-3.266.667-1.092 1.334-2.182 2.003-3.272l-2.004-3.266a974.21 974.21 0 0 1-2.002-3.27Z" fill="#D14748"/><path d="M26.587 13.56H23.2c-.437-.705-.87-1.41-1.301-2.118-.431-.707-.863-1.414-1.296-2.12h3.386l1.296 2.12c.432.706.866 1.412 1.302 2.118Zm-4.572 6.536H25.4l1.296-2.117c.432-.707.866-1.414 1.303-2.122h-3.39l-1.3 2.12-1.295 2.119Z" fill="#D14748"/><path d="M17.423 20.096h3.386l1.296-2.118 1.299-2.12h-3.387c-.434.707-.867 1.414-1.298 2.12l-1.296 2.118Z" fill="#F4BF75"/><path d="M5.407 18.164h3.386c.429.707.864 1.413 1.296 2.118.432.704.864 1.411 1.299 2.115H8c-.435-.703-.868-1.408-1.301-2.115-.433-.705-.861-1.413-1.293-2.118Z" fill="#7ACCEE"/></g></svg>