<svg width="16" height="16" fill="none" xmlns="http://www.w3.org/2000/svg"><path d="M12.767 2.345c.06.048.1.11.122.19a.65.65 0 0 1 .01.27.906.906 0 0 1-.109.304c-.012.013-.028.013-.047 0a.091.091 0 0 1-.037-.048c.012-.075-.014-.139-.08-.19-.066-.05-.168-.075-.306-.075-.258 0-.516.096-.777.29a3.91 3.91 0 0 0-.757.763c-.245.316-.474.68-.687 1.09a10.37 10.37 0 0 0-.927 2.572c-.091.43-.137.822-.137 1.176 0 .19.053.285.16.285a.335.335 0 0 0 .221-.095c.072-.064.156-.158.25-.285.019-.012.036-.01.051.005.016.016.02.036.015.061-.126.19-.273.348-.443.475-.17.126-.323.19-.46.19-.12 0-.203-.035-.25-.105a.464.464 0 0 1-.07-.265c0-.298.062-.67.187-1.115.126-.446.294-.917.504-1.414.21-.496.453-.99.73-1.484.275-.494.562-.938.86-1.333a5.57 5.57 0 0 1 .9-.963c.3-.247.583-.37.846-.37a.36.36 0 0 1 .23.071ZM3.473 13.86a.358.358 0 0 1-.122-.19.644.644 0 0 1-.01-.27.91.91 0 0 1 .109-.304c.012-.013.028-.013.047 0a.09.09 0 0 1 .037.048c-.012.075.015.139.08.19.066.05.168.075.306.075.258 0 .516-.096.777-.29a3.91 3.91 0 0 0 .757-.763c.245-.316.474-.68.687-1.09a10.362 10.362 0 0 0 .927-2.572c.091-.43.137-.822.137-1.176 0-.19-.053-.284-.16-.284a.334.334 0 0 0-.221.094 1.87 1.87 0 0 0-.25.285c-.019.012-.036.01-.051-.005-.016-.016-.02-.036-.015-.062a1.88 1.88 0 0 1 .443-.474c.17-.126.323-.19.46-.19.12 0 .203.035.25.105.047.07.07.158.07.265 0 .298-.062.67-.187 1.115-.126.446-.294.917-.504 1.414-.21.496-.453.99-.73 1.484-.275.493-.562.938-.86 1.333a5.568 5.568 0 0 1-.9.963c-.3.247-.583.37-.846.37a.36.36 0 0 1-.23-.071Z" fill-rule="evenodd" clip-rule="evenodd" fill="#C3E88D" stroke="#C3E88D" stroke-width=".5"/></svg>