<svg width="16" height="16" fill="none" xmlns="http://www.w3.org/2000/svg"><path d="M10.966 12.098c-1.4.823-3.326.908-5.262.063A8.274 8.274 0 0 1 2 8.932c.4.34.867.612 1.368.85 2 .955 4 .89 5.407.002l-.002-.002C6.771 8.219 5.07 6.18 3.802 4.515c-.267-.272-.467-.612-.668-.918 1.535 1.427 3.97 3.228 4.838 3.738-1.835-1.97-3.47-4.417-3.403-4.35 2.903 2.991 5.605 4.69 5.605 4.69.09.051.159.094.214.132a4.53 4.53 0 0 0 .153-.472c.467-1.733-.066-3.704-1.234-5.335 2.702 1.665 4.304 4.791 3.636 7.408-.017.07-.036.14-.056.209l.023.03c1.335 1.698.968 3.5.8 3.16-.723-1.443-2.063-1.002-2.745-.71Z" fill="#FC8289"/></svg>