<svg width="16" height="16" fill="none" xmlns="http://www.w3.org/2000/svg"><path fill-rule="evenodd" clip-rule="evenodd" d="M7.5 4c-1.733 0-2.817.778-3.25 2.333.65-.777 1.408-1.07 2.275-.875.494.111.848.433 1.24.79C8.4 6.828 9.138 7.5 10.75 7.5c1.733 0 2.817-.778 3.25-2.333-.65.777-1.408 1.07-2.275.875-.495-.111-.848-.433-1.24-.79C9.85 4.672 9.112 4 7.5 4ZM4.25 7.5c-1.733 0-2.817.778-3.25 2.333.65-.777 1.408-1.07 2.275-.875.494.111.848.433 1.24.79C5.15 10.328 5.888 11 7.5 11c1.733 0 2.817-.778 3.25-2.333-.65.777-1.408 1.07-2.275.875-.494-.111-.848-.433-1.24-.79C6.6 8.172 5.862 7.5 4.25 7.5Z" fill="#89DDFF"/></svg>