<svg width="16" height="16" fill="none" xmlns="http://www.w3.org/2000/svg"><path fill-rule="evenodd" clip-rule="evenodd" d="M1.007 5H5.22l.007 1.412h-.202c-.066-.504-.255-.845-.567-1.022-.175-.098-.438-.152-.786-.161v3.685c0 .257.045.428.135.512.09.085.277.127.562.127v.177H1.875v-.177c.273 0 .455-.043.545-.128.09-.086.135-.256.135-.511V5.229c-.342.01-.604.063-.786.16-.335.183-.524.524-.567 1.023H1L1.007 5Zm4.597 6.23v-.177c.2-.007.343-.034.427-.082.13-.073.195-.21.195-.41V7.172c0-.205-.067-.343-.202-.413-.077-.044-.217-.07-.42-.082V6.5h4.033v1.412h-.17c-.09-.452-.24-.76-.454-.927-.213-.166-.6-.25-1.163-.25-.215 0-.35.023-.409.067-.058.045-.087.133-.087.265v1.62c.399.005.669-.067.81-.217.141-.149.25-.422.325-.818h.177v2.365H8.49c-.05-.399-.152-.68-.306-.842-.154-.163-.43-.245-.829-.245v1.696c0 .148.038.248.115.302.076.053.232.08.47.08.446 0 .81-.086 1.093-.26.283-.173.533-.497.752-.974h.195l-.284 1.457H5.604Zm4.669-1.677c.178-.032.305-.065.383-.1A.935.935 0 0 0 11 9.167l1.224-1.548-1.385-2.034a1.367 1.367 0 0 0-.27-.309.524.524 0 0 0-.29-.097V5h2.423v.178a2.02 2.02 0 0 0-.45.054c-.073.025-.11.085-.11.178 0 .041.009.081.027.12.018.039.044.084.079.136l.68 1.053c.383-.535.613-.865.69-.988.078-.123.116-.225.116-.307 0-.1-.057-.169-.17-.205a1.522 1.522 0 0 0-.342-.041V5h1.75v.178c-.31.03-.555.134-.735.312-.18.18-.56.676-1.138 1.489l1.271 1.976c.166.257.289.417.367.478a.644.644 0 0 0 .313.12v.177h-2.38v-.177c.205-.01.34-.023.407-.041.102-.03.153-.09.153-.178a.453.453 0 0 0-.032-.142 1.176 1.176 0 0 0-.114-.22l-.705-1.135-.266.355c-.226.303-.378.515-.458.636-.132.203-.198.346-.198.43 0 .124.08.208.242.254.091.027.2.04.325.04v.178h-1.75v-.177Z" fill="#2ECC71"/></svg>