<svg width="16" height="16" fill="none" xmlns="http://www.w3.org/2000/svg"><circle cx="8" cy="8" r="6" fill="#35394B"/><path d="M9.07 5.099c-.245.314-.674.551-1.07.504-.085-.407.151-.815.372-1.075.281-.314.726-.528 1.11-.528.024.408-.13.808-.412 1.099Zm.375.594c.257 0 .943.074 1.367.695-.032.02-.812.43-.812 1.343.037 1.04.984 1.405 1 1.405-.016.02-.143.497-.518.998-.298.431-.629.866-1.13.866-.478 0-.65-.287-1.2-.287-.593 0-.76.287-1.213.287-.502 0-.857-.458-1.171-.885-.408-.56-.755-1.437-.767-2.28-.009-.446.081-.884.31-1.257a1.86 1.86 0 0 1 1.526-.885c.482-.016.91.314 1.204.314.282 0 .808-.314 1.404-.314Z" fill-rule="evenodd" clip-rule="evenodd" fill="#CBCEDC"/></svg>