<svg width="16" height="16" fill="none" xmlns="http://www.w3.org/2000/svg"><path fill-rule="evenodd" clip-rule="evenodd" d="M11.155 7.015c-.014-.09.34.085-.176-.481l.177.481Zm.623.504c-.015-.09-.283-.42-.8-.985-.009-.11.175-.27.547-.476l1.055-.918c.235-.3.375-.78.42-1.441l-.014-.155c-.04-.466-.383-.843-1.026-1.133-.38-.255-1.063-.39-2.05-.411-.82.069-1.888.356-3.202.859a12.43 12.43 0 0 1-1.236.771l.007.08a.329.329 0 0 0 .124-.048c.053-.004.082.02.087.067l.082-.045.04-.002.002.038c.002.038-.284.26-.863.664l.044.071-.04.003-.089-.031c.003.024-.04.04-.123.047l.005.044.096.104a.349.349 0 0 1-.13-.026c-.188.016-.371.15-.552.402l.046.071c.157-.142.25-.213.275-.216l.01.117a.372.372 0 0 0-.123.047l.1.148a3.21 3.21 0 0 1 .627-.522c.113.028.173.065.176.104l.087-.008c.62-.455 1.235-.782 1.844-.985l.007.08c-.113.167-.19.253-.231.257a.251.251 0 0 0 .06.15c.01.103-.268.793-.828 2.069C4.938 9.275 3.87 11.47 3 12.889a.283.283 0 0 0 .05.114c.215-.05.35-.102.407-.152l.046-.005.007.08.08-.006.081-.046c.003.024.03.036.085.03l.008.081c.007.08-.04.2-.136.363-.087.097-.18.301-.279.614l.003.038.079-.008a4.96 4.96 0 0 0 .79-1.126c1.01-.292 1.78-.58 2.316-.863.537-.044.946-.187 1.224-.416l-.004-.043-.202.059-.046.005-.004-.043c.394-.06.667-.145.818-.265.768-.584 1.348-1 1.741-1.244.806-.586 1.33-1.157 1.57-1.71l.144-.827ZM4.651 4.798l-.04.004-.007-.113.166-.022.002.058c-.027.004-.067.026-.12.073Zm-.811 7.978a.521.521 0 0 0-.257-.051l-.01-.117c-.005-.046.022-.077.08-.088.052-.005.084.033.088.11.14-.17.217-.256.23-.259l.09.037c-.028.238-.103.358-.221.368Zm8.67-8.966c-.041.005-.123-.12-.241-.37l-.007-.075c.077-.006.156.117.24.373l.007.072Zm-.116-.887-.033.078-1.177-.485c.784.026 1.19.161 1.21.407ZM7.423 7.182l-.167.021-.007-.113.167-.021.007.113Zm-.136-2.575.042-.001.01.117c-.038 0-.09.059-.153.167l-.006-.08c.074-.087.113-.155.107-.203Zm-.29.814.037.156-.1.002-.036-.155.1-.003Zm-.241.292.08-.008c-.008.129-.044.197-.109.203l-.04.002c.05-.086.074-.153.069-.197Zm-.138.404.047-.005.002.038-.074.125-.08.006-.002-.039c.079-.006.114-.047.107-.125Zm-.08.365-.04.194-.069.003-.027-.193.136-.004Zm-1.405 3.796c-.053.266-.11.403-.172.405l-.001-.037c-.015-.132.044-.254.173-.368Zm-.19.53.005.042c.008.057-.036.09-.13.093l-.005-.042c-.008-.05.034-.08.13-.094Zm-.131 1.107.126-.017.004.06a.275.275 0 0 0-.122.065l-.079.01a.108.108 0 0 1 .07-.118Zm3.564-1.093c-.703.344-1.117.576-1.24.699-.761.26-1.139.423-1.132.487-.676.264-1.121.46-1.335.58a.472.472 0 0 1-.22-.057c-.01-.136.052-.244.183-.333a.715.715 0 0 1 .34.052c.125-.063.344-.135.655-.212l-.008-.08-.25.021c.031-.043.272-.155.725-.336l.125-.01.002.037c-.214.02-.333.08-.358.192.004.051.034.071.087.067.161-.1.24-.16.237-.176.306-.058 1.152-.496 2.535-1.311l.007.072c.003.038-.115.137-.353.308Zm-2.123.69a.82.82 0 0 0 .519-.237c.058-.006.09.017.092.067-.099.01-.29.09-.565.246l-.042.003-.004-.078Zm3.426-2.6-1.063.832c-.79.512-1.212.77-1.276.773-1.256.684-2.039 1.039-2.342 1.064l-.045.006c.038-.14.596-1.272 1.68-3.399.476-.042 1.228-.26 2.251-.66l.25-.021c.518-.045.906.055 1.161.293l.014.154c-.19.545-.401.864-.63.957ZM7.604 7.78l.17-.037.002.097-.17.038-.002-.098Zm2.399-.425.126-.012c.116.055.176.102.18.145l.002.038c-.11.009-.213-.047-.308-.171Zm.34-1.91c-.11.13-.414.353-.91.667-.164.015-.773.247-1.828.705a.323.323 0 0 0-.168-.03l-.007-.073c-.012-.15.056-.337.205-.567.082-.427.17-.672.27-.732l.877-1.954c-.008-.121.18-.214.564-.278l.125-.013.01.112c.378-.056.614-.09.705-.098.699-.06 1.062.082 1.09.416l.08-.006-.016-.198.086-.007c.205.112.315.248.33.406.01.11-.05.246-.178.409-.053.004-.084-.034-.09-.11l-.085.008-.02.238c-.354.522-.612.791-.77.806-.145.197-.234.295-.27.298Zm.54 1.367c-.073-.048-.131-.07-.175-.067l-.008-.117.079-.007.175.102c.007.056-.016.084-.072.09Zm.558.655c.079.03.126.064.136.095l-.04.01.003.002a.072.072 0 0 0-.024.004l-.06.046-.015-.157Zm.054.408-.008-.077.127-.057.01.075-.129.059Z" fill="#FFCB6B"/></svg>