<svg width="16" height="16" fill="none" xmlns="http://www.w3.org/2000/svg"><g fill="#FC8289"><path fill-rule="evenodd" clip-rule="evenodd" d="M10.007 5.77a247.115 247.115 0 0 1 1.402-.255c.087-.016.164-.03.31.16l.553.75c.27.369.541.737.576.78.065.08.049.145-.072.181l-1.075.314-.273.079c.4.583 1.16 1.698 1.225 1.803.088.142.008.184-.122.242a210.61 210.61 0 0 1-3.213 1.258l-.01.003c-.245.082-.358.12-.52-.128-.123-.188-.789-1.5-1.115-2.145-.618.176-1.749.499-2.075.585-.318.083-.454-.125-.506-.254l-.466-1.101a578.935 578.935 0 0 1-1.58-3.75c-.117-.303.012-.36.13-.37.117-.012 1.769-.162 1.984-.172.204-.01.233.037.315.172l.015.024 2.38 4.35 2.993-.783-.99-1.535c-.083-.125.001-.183.134-.208Zm-4.4 3.12c-.087.022-.09.013-.1-.018v-.004c-.01-.033-1.993-4.503-2.02-4.559-.028-.055-.027-.1 0-.1.013 0 .447-.041.865-.082l.772-.073c.046-.003.05.006.061.03l.009.017 2.234 4.217.013.024c.029.051.034.062-.033.08l-1.802.469Zm4.7-2.774.877 1.315 1.137-.307c.065-.015.114-.04.085-.08l-.14-.196c-.23-.318-.66-.914-.701-.975-.053-.08-.091-.07-.134-.06l-.005.002c-.045.01-1.041.208-1.102.217-.062.008-.041.046-.017.084Zm1.833 3.285-.006-.011-.469-.696a27.013 27.013 0 0 0-.303-.46 49.097 49.097 0 0 1-.218-.332c-.036-.056-.056-.067-.142-.038l-2.918.83s.896 1.695.965 1.803c.069.11.11.1.164.075.032-.014 1.01-.377 1.82-.677.558-.206 1.036-.383 1.07-.397.077-.03.061-.057.037-.097Z"/><path d="m11.383 5.52.04.247-.04-.247Zm-1.376.25-.045-.246.045.246Zm1.402-.255-.045-.246.045.246Zm.31.16.198-.15-.199.15Zm.553.75.201-.147-.201.148Zm.576.78-.194.158.194-.158Zm-.072.181-.07-.24.07.24Zm-1.075.314-.07-.24.07.24Zm-.273.079-.07-.24-.33.096.194.285.207-.141Zm1.225 1.803-.212.131.212-.131Zm-.122.242-.103-.228.103.228Zm-3.213 1.258-.079-.237.079.237Zm-.01.003-.078-.237.079.237Zm-.52-.128.21-.137-.21.137ZM7.673 8.812l.223-.113-.093-.184-.2.056.07.24Zm-2.075.585.064.242-.064-.242Zm-.506-.254.231-.094-.231.094Zm-.466-1.101.23-.098-.23.098Zm-1.58-3.75-.233.091.233-.09Zm.13-.37.022.248-.022-.249ZM5.16 3.75l.013.25-.013-.25Zm.315.172-.213.13.213-.13Zm.015.024.22-.12-.007-.01-.213.13Zm2.38 4.35-.219.12.094.172.19-.05-.064-.241Zm2.993-.783.064.242.334-.088-.188-.29-.21.136Zm-.99-1.535-.21.137.21-.137ZM5.507 8.872l.24-.072-.24.072Zm.098.019.06.242h.001l-.06-.242Zm-.1-.023.24-.071v-.003l-.24.074ZM3.487 4.31l.225-.11-.225.11Zm.866-.182-.024-.249.024.25Zm0 0 .023.25-.023-.25Zm.772-.073.015.25-.015-.25Zm.061.03.227-.106-.227.106Zm.009.017.22-.117-.22.117Zm2.234 4.217.221-.117-.22.117Zm.013.024.22-.12-.22.12Zm-.033.08-.064-.243.064.242Zm3.776-.991-.208.139.1.15.173-.048-.065-.241Zm-.877-1.315-.21.136.002.003.208-.139Zm2.014 1.008-.058-.243h-.001l.059.243Zm.085-.08-.204.145.204-.145Zm-.14-.196.202-.146-.203.146Zm0 0-.204.146.203-.146Zm-.701-.975.208-.139-.208.139Zm-.134-.06.06.243-.06-.243Zm-.005.002.06.242-.06-.242Zm-1.102.217.035.247h.001l-.036-.247Zm1.81 3.358.215-.128-.004-.006-.004-.006-.207.14Zm.006.01-.215.128v.001l.215-.128Zm-.475-.706-.216.126.004.007.005.007.207-.14Zm-.303-.46-.208.137.208-.138Zm-.218-.332.21-.134-.21.134Zm-.142-.038.069.241.013-.005-.082-.236Zm-2.918.83-.068-.24-.297.084.144.273.221-.117Zm.965 1.803-.212.134.212-.134Zm.164.075-.106-.226.106.226Zm1.82-.677-.086-.234.087.234Zm1.07-.397-.092-.232.092.232Zm-.759-4.225c-.102.016-1.252.227-1.382.251l.09.492a254.1 254.1 0 0 1 1.37-.25l-.078-.493Zm.02-.004a.986.986 0 0 1-.02.004l.078.494.032-.006-.09-.492Zm.553.256a.677.677 0 0 0-.286-.24c-.121-.047-.227-.023-.267-.016l.09.492.027-.004a.087.087 0 0 1-.028-.005c-.009-.004-.008-.006.004.005a.48.48 0 0 1 .062.07l.398-.302Zm.556.753c-.238-.325-.48-.653-.556-.753l-.398.302c.073.097.31.42.551.747l.403-.296Zm.569.77-.001-.002a.16.16 0 0 1-.004-.005l-.013-.017a13.04 13.04 0 0 1-.174-.235l-.377-.511-.403.296c.267.362.544.74.584.789l.388-.316Zm-.195.578c.08-.024.217-.08.27-.23.057-.157-.026-.288-.075-.349l-.388.316c.004.005-.004-.003-.01-.024a.174.174 0 0 1 .003-.111.163.163 0 0 1 .056-.078c.012-.009.016-.008.002-.004l.142.48Zm-1.076.314 1.076-.314-.142-.48-1.074.314.14.48Zm-.273.079.273-.08-.14-.48-.273.08.14.48Zm1.368 1.431c-.069-.11-.836-1.234-1.231-1.812l-.413.282c.402.589 1.158 1.695 1.219 1.793l.425-.263Zm-.233.602a1.16 1.16 0 0 0 .111-.055.426.426 0 0 0 .133-.118.337.337 0 0 0 .061-.236.469.469 0 0 0-.072-.193l-.425.263c.012.02.003.013 0-.013a.165.165 0 0 1 .03-.11c.016-.025.032-.031.02-.024a.714.714 0 0 1-.063.03l.205.456ZM9.396 11.32c.107-.036.889-.34 1.645-.636.757-.297 1.52-.6 1.592-.632l-.204-.456-.004.002c-.003 0-.006.002-.01.004a4.91 4.91 0 0 1-.144.058l-.361.144-1.052.414c-.768.302-1.529.597-1.619.627l.157.475Zm-.009.003.01-.003-.158-.475-.009.003.157.475Zm-.808-.23c.095.146.217.272.402.299.083.012.16 0 .222-.014.061-.014.126-.036.184-.055l-.157-.475a1.77 1.77 0 0 1-.14.043c-.033.008-.04.006-.037.006.027.004.011.025-.056-.077l-.418.274Zm-1.13-2.169c.164.324.412.814.635 1.247.219.424.424.815.495.923l.418-.274a19.22 19.22 0 0 1-.468-.878c-.222-.431-.47-.92-.633-1.243l-.446.225Zm-1.787.715c.33-.087 1.464-.41 2.08-.587l-.138-.48c-.62.177-1.747.498-2.07.583l.128.484Zm-.802-.402a.72.72 0 0 0 .24.315.65.65 0 0 0 .562.087l-.127-.484a.242.242 0 0 1-.101.01.097.097 0 0 1-.043-.018.226.226 0 0 1-.068-.098l-.463.188ZM4.396 8.14l.464 1.098.463-.188-.466-1.105-.46.195ZM2.813 4.383c.083.215 1.006 2.394 1.583 3.756l.46-.195c-.58-1.37-1.497-3.537-1.576-3.742l-.467.181Zm.34-.71a.428.428 0 0 0-.344.195c-.095.158-.061.346.004.515l.467-.18a.386.386 0 0 1-.03-.108c0-.012.003.005-.013.031a.111.111 0 0 1-.048.044c-.007.003-.007.002.01 0l-.046-.498ZM5.148 3.5a149.1 149.1 0 0 0-1.995.172l.046.498c.121-.01 1.765-.16 1.974-.17l-.025-.5Zm.54.291c-.03-.05-.088-.155-.19-.22a.575.575 0 0 0-.35-.071l.025.5a.389.389 0 0 1 .072 0c.006.001-.003 0-.016-.008-.012-.008-.016-.014-.009-.005.009.011.02.028.042.065l.426-.26Zm.015.024-.015-.024-.426.26c.004.009.01.017.015.026l.426-.262ZM8.09 8.177l-2.38-4.35-.44.24 2.381 4.35.44-.24Zm2.71-.906-2.993.784.127.484 2.993-.784-.127-.484ZM9.663 6.115l.99 1.533.42-.27a511.08 511.08 0 0 0-.992-1.537l-.418.274Zm.298-.59a.492.492 0 0 0-.295.153.332.332 0 0 0-.075.235c.005.08.037.15.072.202l.418-.274c-.006-.01.006.005.008.039a.167.167 0 0 1-.037.115c-.02.025-.039.032-.035.03a.186.186 0 0 1 .036-.01l-.092-.49ZM5.268 8.942l.007.023a.271.271 0 0 0 .184.176c.057.015.106.01.13.007a.719.719 0 0 0 .078-.016l-.12-.485-.024.005a.206.206 0 0 1 .073.007.228.228 0 0 1 .15.139c.002.004.003.007.001.001l-.479.143Zm0-.003v.003l.48-.143-.002-.003-.479.143ZM3.261 4.42l.023.052a108.743 108.743 0 0 1 .299.67 2300.932 2300.932 0 0 1 1.686 3.81l.004.008-.006-.018.478-.148-.006-.015a.27.27 0 0 0-.01-.025 8.328 8.328 0 0 0-.083-.19l-.228-.515a1816.83 1816.83 0 0 0-1.708-3.85l-.449.22Zm.224-.46a.267.267 0 0 0-.222.117.288.288 0 0 0-.048.159c0 .072.023.137.046.184l.449-.22c-.004-.009.006.006.006.042a.212.212 0 0 1-.037.116.233.233 0 0 1-.193.102v-.5Zm.842-.081a662 662 0 0 1-.84.08h-.002v.5l.046-.002a12.955 12.955 0 0 0 .259-.025l.584-.056-.047-.497Zm0 0 .047.497-.047-.498Zm.782-.075c-.033.002-.408.039-.782.075l.047.497a614.98 614.98 0 0 1 .746-.07l.018-.002-.03-.5Zm.302.174c-.001-.002-.011-.024-.025-.045a.279.279 0 0 0-.092-.09c-.081-.047-.166-.04-.185-.039l.03.5-.016-.001a.221.221 0 0 1-.156-.098c-.009-.014-.014-.025-.009-.014l.453-.213Zm.002.005-.002-.005-.453.213.015.028.44-.236ZM7.65 8.201 5.415 3.984l-.442.235 2.234 4.216.442-.234Zm.011.02a1.31 1.31 0 0 1-.01-.02l-.443.234c.006.011.012.02.015.028l.438-.242Zm-.19.442a.446.446 0 0 0 .087-.03.275.275 0 0 0 .142-.164.28.28 0 0 0-.01-.19c-.01-.025-.025-.05-.029-.058l-.438.242c.01.018.007.013.004.005a.214.214 0 0 1-.004-.148.226.226 0 0 1 .112-.135c.016-.008.026-.01.01-.006l.127.484Zm-1.803.47c.091-.023 1.77-.46 1.804-.47l-.127-.483-1.798.468.121.485Zm5.725-1.84-.877-1.315-.416.277.877 1.315.416-.278Zm.87-.412a75.846 75.846 0 0 0-.975.263l-.123.033-.034.01a.917.917 0 0 1-.009.002h-.002l.065.242.065.241h.003l.01-.003.033-.01a370.054 370.054 0 0 1 .885-.239l.137-.036.043-.012.014-.003.004-.001h.001l-.117-.487Zm-.06.308a.216.216 0 0 1-.033-.165.213.213 0 0 1 .1-.143l.007-.003-.013.003.115.487a.456.456 0 0 0 .174-.077.288.288 0 0 0 .108-.172.285.285 0 0 0-.05-.22l-.407.29Zm-.14-.194.14.194.408-.29-.142-.197-.405.293Zm0 0 .406-.293-.405.293Zm-.705-.983c.044.066.48.669.705.982l.406-.292c-.232-.322-.658-.911-.695-.968l-.416.278Zm.135.044c.014-.004.008-.002-.002 0a.17.17 0 0 1-.066-.007c-.06-.017-.079-.055-.067-.037l.416-.278a.384.384 0 0 0-.21-.165c-.096-.028-.183 0-.194.002l.123.485Zm-.005.001.005-.001-.123-.485-.004.001.122.485Zm-1.127.222a70.74 70.74 0 0 0 1.127-.222l-.122-.485-.047.01a28.853 28.853 0 0 1-.486.097 112.644 112.644 0 0 1-.531.103l-.014.002.073.495Zm.158-.298c-.006-.009-.005-.007-.002-.002 0 .002.016.031.017.075a.226.226 0 0 1-.079.18c-.045.038-.09.044-.095.045l-.071-.495a.31.31 0 0 0-.159.07.274.274 0 0 0-.096.218c.003.06.023.106.033.126a.522.522 0 0 0 .031.054l.42-.27Zm1.4 3.536.007.011.43-.255-.006-.01-.43.254Zm-.46-.683.468.695.415-.279-.469-.696-.414.28Zm-.304-.463a157.421 157.421 0 0 1 .267.406l.028.043.432-.251c-.02-.035-.179-.275-.31-.474l-.417.276Zm-.221-.335c.022.036.119.182.22.335l.418-.276a26.573 26.573 0 0 1-.216-.327l-.422.268Zm.15.064c.017-.005.018-.004.01-.003a.189.189 0 0 1-.155-.054c-.01-.011-.012-.018-.005-.007l.422-.268c-.016-.025-.073-.12-.191-.157a.386.386 0 0 0-.243.017l.163.472Zm-2.93.835 2.918-.83-.137-.481-2.918.83.137.48Zm1.107 1.428-.004-.006a1.365 1.365 0 0 1-.05-.088l-.117-.217a164.695 164.695 0 0 1-.745-1.402l-.029-.054-.007-.014-.002-.003v-.001l-.222.116-.22.117v.001l.002.004.007.014.029.054a476.987 476.987 0 0 0 .418.788c.228.43.476.894.517.96l.423-.269Zm-.153-.017c-.01.005 0 0 .016-.004a.178.178 0 0 1 .09.005.141.141 0 0 1 .057.033c.005.004 0 .001-.01-.017l-.423.268a.43.43 0 0 0 .223.192c.126.04.23-.01.259-.024l-.212-.453Zm1.84-.685a1323.54 1323.54 0 0 0-1.638.608c-.1.037-.182.068-.202.077l.211.453.166-.062.434-.162 1.202-.445-.173-.469Zm1.064-.395-.008.003a4.231 4.231 0 0 1-.09.034l-.235.087-.731.271.173.469c.554-.205 1.038-.384 1.076-.4l-.185-.464Zm-.085.263c.008.014.004.008 0-.002a.207.207 0 0 1-.013-.115.212.212 0 0 1 .072-.128c.02-.017.034-.021.026-.018l.184.465c.039-.016.184-.074.211-.237a.294.294 0 0 0-.02-.164c-.012-.027-.028-.052-.031-.058l-.43.257Z"/></g></svg>