<svg width="16" height="16" fill="none" xmlns="http://www.w3.org/2000/svg"><rect width="5" height="7" rx="1.13" transform="scale(-1 1) rotate(31.47 -7.05 -16.796)" fill="#89DDFF"/><path fill-rule="evenodd" clip-rule="evenodd" d="M13.053 11.021a.982.982 0 0 0-.336-1.347l-2.603-1.563a.982.982 0 0 0-1.347.336l-1.82 3.032a.982.982 0 0 0 .336 1.347l2.603 1.563a.982.982 0 0 0 1.347-.336l1.82-3.032Z" fill="#C792EA"/><path fill-rule="evenodd" clip-rule="evenodd" d="M3.384 7.766c-.069.144-1.398.898-1.365 1.069.033.17 1.624.763 1.747.896s.607 1.783.772 1.827c.166.044.989-1.258 1.134-1.32.146-.06 1.774.205 1.843.062.07-.144-1.013-1.54-1.046-1.712-.033-.17.49-1.656.367-1.79-.123-.132-1.615.306-1.78.262-.167-.044-1.472-1.228-1.617-1.166-.146.061.015 1.729-.055 1.872Z" fill="#3965BD"/></svg>