<svg width="16" height="16" fill="none" xmlns="http://www.w3.org/2000/svg"><path d="M8.325 2.308a.532.532 0 0 0-.371.153l-.006.004-3.477 2.01 3.468 3.469v.002l4.17 4.17.795-1.432-2.866-6.882L8.7 2.465a.53.53 0 0 0-.375-.157Z" fill="#2ECC71"/><path d="m4.479 4.467-2.01 3.475-.003.005a.526.526 0 0 0 .003.747l1.665 1.666 6.513 2.562 1.473-.818-.04-.04-.01.002-4.083-4.09h-.005L4.479 4.467Z" fill="#3965BD"/><path d="M4.47 4.469 8.019 8.02h.005l4.084 4.089 1.555-.297.002-4.6-1.642-1.608c-.36-.353-.912-.58-1.467-.655l.001-.017-6.087-.464Z" fill="#3965BD"/><path d="m4.474 4.473 3.551 3.55v.005l4.086 4.087-.297 1.554h-4.6l-1.607-1.642c-.353-.36-.58-.913-.654-1.468l-.018.001-.46-6.087Z" fill="#2ECC71"/></svg>