<svg width="16" height="16" fill="none" xmlns="http://www.w3.org/2000/svg"><path fill-rule="evenodd" clip-rule="evenodd" d="M4.5 9.217c0 2.45 1.67 4.435 3.728 4.435.254 0 .5-.029.734-.083v-2.65c0-.488.393-.887.873-.887h.786v-.314c0-.668.29-1.267.75-1.673-.388-.727-1.027-1.445-1.788-2.053C8.16 4.857 8.685 2 8.685 2s-1.022.56-1.563 1.266C5.98 4.76 4.5 7.211 4.5 9.217Z" fill="#5654BC"/><path fill-rule="evenodd" clip-rule="evenodd" d="M15.25 10.667h-.375v-.762C14.875 8.853 14.035 8 13 8c-1.035 0-1.875.853-1.875 1.905v.762h-.375a.758.758 0 0 0-.75.762v3.81c0 .418.338.761.75.761h4.5c.412 0 .75-.343.75-.762v-3.81a.758.758 0 0 0-.75-.761ZM13 14.095a.758.758 0 0 1-.75-.762c0-.419.338-.762.75-.762s.75.343.75.762c0 .42-.338.762-.75.762Zm-1.162-4.19v.762h2.325v-.762c0-.652-.522-1.181-1.163-1.181s-1.162.53-1.162 1.18Z" fill="#FFCB6B"/></svg>