<svg width="16" height="16" fill="none" xmlns="http://www.w3.org/2000/svg"><path opacity=".8" fill-rule="evenodd" clip-rule="evenodd" d="M2.4 2h4.2L8 3.375h5.6c.77 0 1.4.619 1.4 1.375v1.274A2.354 2.354 0 0 0 14.667 6H8.333A2.333 2.333 0 0 0 6 8.333V13H2.4c-.77 0-1.4-.619-1.4-1.375l.007-8.25C1.007 2.619 1.63 2 2.4 2Z" fill="#4A616C"/><rect opacity=".1" x="8" y="8" width="7" height="7" rx="1" fill="#252D3A"/><path d="M9.167 12.375s.291-.292 1.166-.292 1.459.584 2.334.584 1.166-.292 1.166-.292v-3.5s-.291.292-1.166.292-1.459-.584-2.334-.584-1.166.292-1.166.292v3.5Z" fill="#FC8289" stroke="#FC8289" stroke-width=".5" stroke-linecap="round" stroke-linejoin="round"/><path d="M9.167 14.417 9 9" stroke="#FFCB6B" stroke-width=".5" stroke-linecap="round" stroke-linejoin="round"/></svg>