<svg width="16" height="16" fill="none" xmlns="http://www.w3.org/2000/svg"><path opacity=".8" fill-rule="evenodd" clip-rule="evenodd" d="M2.4 2h4.2L8 3.375h5.6c.77 0 1.4.619 1.4 1.375V5H8a2 2 0 0 0-2 2v6H2.4c-.77 0-1.4-.619-1.4-1.375l.007-8.25C1.007 2.619 1.63 2 2.4 2Z" fill="#474C60"/><path fill-rule="evenodd" clip-rule="evenodd" d="M10.97 7a.32.32 0 0 0-.159.042L8.16 8.55a.322.322 0 0 0-.16.28v3.026c0 .113.06.217.16.273l2.651 1.514c.1.056.22.056.32 0l2.65-1.514a.314.314 0 0 0 .16-.273V8.83a.322.322 0 0 0-.16-.279l-2.65-1.508A.32.32 0 0 0 10.97 7" fill="#A9EFA3"/><mask id="a" mask-type="alpha" maskUnits="userSpaceOnUse" x="8" y="7" width="6" height="7"><path fill-rule="evenodd" clip-rule="evenodd" d="M10.97 7a.32.32 0 0 0-.159.042L8.16 8.55a.322.322 0 0 0-.16.28v3.026c0 .113.06.217.16.273l2.651 1.514c.1.056.22.056.32 0l2.65-1.514a.314.314 0 0 0 .16-.273V8.83a.322.322 0 0 0-.16-.279l-2.65-1.508A.32.32 0 0 0 10.97 7" fill="#fff"/></mask><g mask="url(#a)"><path fill-rule="evenodd" clip-rule="evenodd" d="m10.699 6.432 3.466 6.003-2.979 1.72L7.72 8.152l2.979-1.72Z" fill="#2ECC71"/></g></svg>