<svg width="16" height="16" fill="none" xmlns="http://www.w3.org/2000/svg"><path fill-rule="evenodd" clip-rule="evenodd" d="M13.6 3.375H8L6.6 2H2.4c-.77 0-1.393.619-1.393 1.375L1 11.625C1 12.381 1.63 13 2.4 13H5v-1.375H2.4V4.75h11.2V5h.4c.364 0 .706.097 1 .268V4.75c0-.756-.63-1.375-1.4-1.375Z" fill="#FF4081"/><rect x="6.222" y="6.222" width="8.556" height="8.556" rx="1" fill="#FFCB6B"/><path fill="#090A0F" d="M7.444 8.667h6.111v4.889H7.444z"/><path d="M12.598 12.24c.377.503-.63.87-1.036.142l-.55.32.033.055c.208.35.532.555.97.614.96.114 1.587-.498 1.247-1.367-.242-.497-.875-.59-1.245-.836-.217-.127-.172-.394.003-.502.135-.083.447-.094.608.24l.527-.34c-.416-.75-1.4-.6-1.694-.259-.401.471-.287.997.066 1.334.275.263.705.352 1.07.599Zm-2.492 1.062c.304-.123.482-.377.529-.755.004-.038.007-2.479.007-2.479h-.669l-.005 2.414c-.015.156-.109.268-.245.29-.233.038-.388-.03-.55-.333l-.544.33c.233.547.936.749 1.477.533Zm-2.441-6.24h5.67c.334 0 .602.27.602.603v5.67a.601.601 0 0 1-.602.602h-5.67a.601.601 0 0 1-.603-.602v-5.67c0-.334.27-.603.603-.603Z" fill="#FFCB6B"/></svg>