<svg width="16" height="16" fill="none" xmlns="http://www.w3.org/2000/svg"><g clip-path="url(#a)"><path opacity=".8" fill-rule="evenodd" clip-rule="evenodd" d="M2.4 2h4.2L8 3.375h5.6c.77 0 1.4.619 1.4 1.375v.518A1.99 1.99 0 0 0 14 5H7a2 2 0 0 0-2 2v6H2.4c-.77 0-1.4-.619-1.4-1.375l.007-8.25C1.007 2.619 1.63 2 2.4 2Z" fill="#90A4AE"/><rect opacity=".1" x="7.222" y="6.222" width="8.556" height="8.556" rx="1" fill="#252D3A"/><path d="M11.672 6.375c-2.373 0-4.297 1.893-4.297 4.23 0 1.868 1.231 3.453 2.939 4.012.215.039.293-.092.293-.204l-.006-.787c-1.195.256-1.447-.499-1.447-.499-.196-.488-.478-.618-.478-.618-.39-.263.03-.257.03-.257.431.03.659.435.659.435.383.647 1.006.46 1.25.352.04-.273.15-.46.273-.565-.954-.107-1.957-.47-1.957-2.09 0-.463.168-.84.442-1.135-.044-.108-.192-.538.042-1.12 0 0 .36-.113 1.182.433a4.15 4.15 0 0 1 2.151.001c.82-.547 1.18-.433 1.18-.433.236.582.088 1.012.044 1.119.275.296.441.673.441 1.135 0 1.625-1.005 1.982-1.962 2.087.155.131.292.388.292.783 0 .565-.006 1.02-.006 1.16 0 .113.078.245.296.203 1.706-.56 2.936-2.145 2.936-4.013 0-2.335-1.924-4.229-4.297-4.229Z" fill="#697DA5"/></g><defs><clipPath id="a"><path fill="#fff" d="M0 0h16v16H0z"/></clipPath></defs></svg>