<svg width="16" height="16" fill="none" xmlns="http://www.w3.org/2000/svg"><path d="m1.17 6.819.227-.29 2.884-.001-.185.29H1.17Zm2.616.712.096-.29-3.655.003-.227.29 3.786-.003Zm-.105.716.028-.29-1.663.001-.161.29 1.796-.001Zm10.603 2.268c-1.6.881-3.784.508-4.369-1.402a3.454 3.454 0 0 1-1.58 1.554c-1.592.752-3.753.096-4.03-1.966C4.1 6.725 5.7 5.504 6.644 5.196c1.503-.468 2.985.082 3.498 1.45l-1.614.424c-.172-.478-1.104-.821-1.82-.303-1.127.695-1.106 2.444.255 2.704.707.09 1.182-.258 1.537-.796l-1.75.005.563-1.214H9.94c1.137-3.21 5.574-3.07 6.025-.185.16 1.025-.19 2.414-1.68 3.235Zm-1.458-3.97c-1.214.26-1.517 1.333-1.33 2.02.2.732.973 1.212 1.953.753 1.572-.735 1.16-3.157-.623-2.774Z" fill="#89DDFF"/></svg>