<svg width="16" height="16" fill="none" xmlns="http://www.w3.org/2000/svg"><g fill="#FF9CAC"><path d="m4.004 11.129-.43-.253 4.79-8.454.43.253-4.79 8.454Z" stroke="#FF9CAC" stroke-width=".5"/><path d="M3.476 10.2h9.578v.506H3.476V10.2Z" stroke="#FF9CAC" stroke-width=".5"/><path fill-rule="evenodd" clip-rule="evenodd" d="m7.827 3.138 4.791 2.819.248-.439L8.076 2.7l-.249.439Zm-4.162 7.347 4.791 2.819.248-.439-4.79-2.819-.249.439Z"/><path d="m12.618 5.957-.127.215.22.129.125-.221-.218-.123Zm-4.79-2.82-.218-.123-.122.214.212.125.127-.215Zm5.038 2.381.218.124.121-.214-.212-.125-.127.215ZM8.076 2.7l.126-.215-.219-.129-.125.221.217.123Zm.38 10.604-.127.216.22.129.125-.221-.218-.123Zm-4.79-2.818-.218-.124-.122.214.212.125.127-.215Zm5.038 2.38.218.124.121-.214-.212-.125-.127.215Zm-4.79-2.819.126-.215-.219-.129-.125.221.217.123Zm8.831-4.305-4.791-2.82-.254.431 4.792 2.819.253-.431Zm-.096-.346-.248.438.435.247.248-.438-.435-.247Zm-4.7-2.48 4.79 2.819.254-.431-4.79-2.819-.254.43Zm.096.346.248-.438-.435-.247-.248.438.435.247Zm.538 9.827L3.792 10.27l-.254.431 4.791 2.819.254-.431Zm-.096-.346-.248.438.435.247.248-.438-.435-.247Zm-4.7-2.48 4.79 2.819.254-.431-4.79-2.819-.254.43Zm.096.346.248-.438-.435-.247-.248.438.435.247Z"/><path d="m3.915 5.954-.249-.438 4.791-2.819.249.439-4.791 2.818Z" stroke="#FF9CAC" stroke-width=".5"/><path fill-rule="evenodd" clip-rule="evenodd" d="M12.18 10.512 7.74 2.675l.43-.253 4.01 7.079v1.011Zm.175.307h-.174v-.307l.174.307Zm0 0h.322v-.442l.283.498-.43.254-.175-.31Zm.322-.442-.496-.876V5.18h.496v5.196ZM3.855 5.181h.497v5.638h-.497V5.18Z"/><path d="m7.74 2.675-.126-.215-.212.124.121.214.217-.123Zm.43-.253.218-.123-.125-.221-.22.129.127.215Zm4.01 8.397h-.25v.25h.25v-.25Zm.497 0v.25h.25v-.25h-.25Zm.283.056.127.216.212-.125-.122-.214-.217.123Zm-.43.254-.218.123.126.22.219-.128-.127-.215Zm-.35-5.948v-.25h-.25v.25h.25Zm.497 0h.25v-.25h-.25v.25Zm-8.325 0h.25v-.25h-.25v.25Zm-.497 0v-.25h-.25v.25h.25Zm.497 5.638v.25h.25v-.25h-.25Zm-.497 0h-.25v.25h.25v-.25Zm3.668-8.02 4.44 7.837.435-.247-4.44-7.837-.435.246Zm.52-.592-.43.253.254.43.43-.252-.253-.431Zm4.355 7.17L8.388 2.3l-.435.246 4.01 7.079.435-.246Zm.033 1.135v-1.01h-.5v1.011h.5Zm-.076.057h-.174v.5h.174v-.5Zm.076.25v-.307h-.5v.307h.5Zm-.468-.183.174.306.435-.246-.174-.307-.435.247Zm.714-.067h-.322v.5h.322v-.5Zm-.25-.192v.442h.5v-.442h-.5Zm.75.375-.282-.498-.435.246.282.499.435-.247Zm-.52.592.43-.253-.254-.43-.43.252.254.431Zm-.52-.402.175.31.435-.247-.175-.31-.435.247Zm.758-.688-.497-.876-.435.246.497.876.435-.246ZM12.43 9.5V5.18h-.5V9.5h.5Zm-.25-4.07h.496v-.5h-.496v.5Zm.246-.25v5.196h.5V5.181h-.5Zm-8.075-.25h-.497v.5h.497v-.5Zm.25 5.888V5.18h-.5v5.638h.5Zm-.747.25h.497v-.5h-.497v.5Zm-.25-5.888v5.638h.5V5.18h-.5Z"/><path d="m8.372 13.09-.217-.383 4.167-2.452.217.383-4.167 2.451Z" stroke="#FF9CAC" stroke-width=".5"/><path fill-rule="evenodd" clip-rule="evenodd" d="M7.223 3.097c0 .588.466 1.063 1.043 1.063S9.31 3.685 9.31 3.097c0-.589-.467-1.064-1.044-1.064s-1.043.475-1.043 1.064ZM3.577 6.47c.5.293 1.14.12 1.427-.39a1.077 1.077 0 0 0-.383-1.454 1.035 1.035 0 0 0-1.427.39 1.076 1.076 0 0 0 .383 1.454Zm8.332 4.904c.5.292 1.14.118 1.426-.39.29-.51.12-1.159-.383-1.454a1.035 1.035 0 0 0-1.426.39 1.076 1.076 0 0 0 .383 1.454Zm-8.712-.39A1.077 1.077 0 0 1 3.58 9.53a1.035 1.035 0 0 1 1.427.39 1.077 1.077 0 0 1-.383 1.454 1.034 1.034 0 0 1-1.427-.39Zm8.715-6.358c-.5.296-.67.945-.383 1.454.287.51.927.683 1.427.39.499-.295.67-.945.382-1.453a1.035 1.035 0 0 0-1.426-.39Zm-3.646 9.341a1.053 1.053 0 0 1-1.043-1.063c0-.589.466-1.064 1.043-1.064s1.044.475 1.044 1.064c0 .585-.467 1.063-1.044 1.063Z"/><path d="m5.004 6.08-.218-.123.218.123Zm-1.427.39.127-.215-.127.215Zm1.044-1.844.127-.215-.127.215Zm-1.427.39.218.123-.218-.122Zm10.141 5.967-.217-.123.217.123Zm-1.426.39.126-.215-.126.216Zm1.043-1.843.127-.216-.127.216Zm-1.426.39.218.123-.218-.123ZM3.58 9.53l-.126-.216h-.001l.127.216Zm-.383 1.454-.217.122.217-.123Zm1.81-1.064.217-.123-.217.123Zm-.383 1.454.126.216.001-.001-.127-.215Zm6.905-5.294-.218.123.218-.123Zm.383-1.454-.127-.215.127.215Zm1.043 1.844.127.216-.127-.216Zm.383-1.453.218-.123v-.001l-.218.124ZM8.266 3.91a.803.803 0 0 1-.793-.813h-.5c0 .721.574 1.313 1.293 1.313v-.5Zm.794-.813a.803.803 0 0 1-.794.813v.5c.72 0 1.294-.592 1.294-1.313h-.5Zm-.794-.814c.435 0 .794.359.794.814h.5c0-.722-.574-1.314-1.294-1.314v.5Zm-.793.814c0-.455.359-.814.793-.814v-.5c-.72 0-1.293.592-1.293 1.314h.5Zm-2.687 2.86a.785.785 0 0 1-1.082.298l-.253.43a1.285 1.285 0 0 0 1.77-.482l-.435-.246Zm-.292-1.115c.38.225.513.723.292 1.115l.435.246a1.327 1.327 0 0 0-.473-1.792l-.254.43Zm-1.082.297a.785.785 0 0 1 1.082-.297l.253-.431a1.285 1.285 0 0 0-1.77.483l.435.245Zm.292 1.116a.826.826 0 0 1-.292-1.116l-.435-.245a1.326 1.326 0 0 0 .474 1.792l.252-.431Zm9.413 4.606a.785.785 0 0 1-1.082.297l-.253.431a1.285 1.285 0 0 0 1.771-.483l-.436-.245Zm-.291-1.116a.822.822 0 0 1 .292 1.115l.434.247a1.322 1.322 0 0 0-.473-1.793l-.253.431Zm-1.082.298a.785.785 0 0 1 1.082-.297l.253-.432a1.285 1.285 0 0 0-1.77.483l.435.246Zm.291 1.115a.826.826 0 0 1-.291-1.115l-.436-.246a1.326 1.326 0 0 0 .474 1.792l.253-.431ZM3.453 9.315a1.327 1.327 0 0 0-.473 1.791l.435-.245a.827.827 0 0 1 .292-1.116l-.254-.43Zm1.77.481a1.285 1.285 0 0 0-1.77-.482l.253.432a.785.785 0 0 1 1.083.298l.435-.248Zm-.472 1.793a1.327 1.327 0 0 0 .473-1.792l-.435.246a.827.827 0 0 1-.293 1.115l.255.43Zm-1.771-.483c.355.63 1.146.847 1.77.484l-.252-.432a.784.784 0 0 1-1.083-.297l-.435.245Zm8.767-5.149a.827.827 0 0 1 .292-1.115l-.255-.43a1.327 1.327 0 0 0-.473 1.791l.436-.246Zm1.082.298a.785.785 0 0 1-1.082-.298l-.436.246c.355.63 1.15.847 1.77.483l-.252-.431Zm.291-1.116a.827.827 0 0 1-.292 1.116l.255.43a1.327 1.327 0 0 0 .473-1.791l-.435.245Zm-1.082-.297a.785.785 0 0 1 1.083.298l.434-.247a1.285 1.285 0 0 0-1.77-.482l.253.431Zm-5.065 8.062c0 .721.574 1.313 1.293 1.313v-.5a.803.803 0 0 1-.793-.813h-.5Zm1.293-1.314c-.72 0-1.293.592-1.293 1.314h.5c0-.455.359-.814.793-.814v-.5Zm1.294 1.314c0-.722-.574-1.314-1.294-1.314v.5c.435 0 .794.359.794.814h.5Zm-1.294 1.313c.72 0 1.294-.595 1.294-1.313h-.5c0 .452-.36.813-.794.813v.5Z"/></g></svg>