<svg width="16" height="16" fill="none" xmlns="http://www.w3.org/2000/svg"><path d="M11.217 7.94 9.806 2.938a1 1 0 0 0-1.21-.697l-6.61 1.685a1 1 0 0 0-.718 1.232l2.148 7.89a1 1 0 0 0 1.214.706l6.68-1.72a1 1 0 0 0 .713-1.24l-.518-1.837-1.282-.541a1.785 1.785 0 0 1-1.225.499c-.92 0-1.668-.708-1.668-1.578 0-.87.748-1.578 1.668-1.578.919 0 1.667.708 1.667 1.578 0 .127-.016.25-.046.368l.599.235ZM7.646 5.02s-.21.1-.249.172l-.004.008.018.016c.14.118.348.295.593.54a1.947 1.947 0 0 0-.322.227 9.168 9.168 0 0 0-.531-.481l-.01-.008c-.047.084-.095.263-.095.263s-.197-.678-.284-.85c.123.045.708.14.884.113Zm-2.039 8.058c-.779.195-1.52-.055-1.655-.559-.126-.47.32-.993 1.012-1.22-.443-1.347-.771-3.302-.107-5.43a.26.26 0 0 1-.025-.013c-.072-.042-.305-.02-.305-.02.165-.065.607-.446.688-.547.02.19.225.866.225.866s-.123-.112-.21-.164c-.634 2.045-.31 3.927.118 5.219.697-.1 1.34.142 1.425.604.105.567-.387 1.07-1.166 1.264Zm4.764-1.252c-.779.195-1.52-.055-1.655-.558-.101-.378.167-.791.637-1.056-.173-.043-.735-.181-.908-.192l.283-.108-1.35-1.226a2.361 2.361 0 0 1-.682.186l-.537 1.676.29-.003c-.219.015-.67.644-.67.644s-.153-.737-.232-.92l.225.197.51-1.589c-.48-.046-.856-.271-.949-.616-.135-.504.387-1.07 1.166-1.265l.019-.004c-.14-.143-.51-.517-.644-.61l.3.054-.346-1.197c-.707.114-1.343-.135-1.467-.597-.135-.504.387-1.07 1.165-1.265.78-.195 1.52.056 1.655.559.124.46-.302.973-.971 1.206l.337 1.17.246-.151c-.145.1-.2.626-.216.817.127-.027.252-.042.375-.047a1.95 1.95 0 0 0-.032.352c0 .968.716 1.78 1.671 1.982l.384.348.125-.253c-.072.171.212.7.286.834.148-.08.315-.146.496-.19.003-.002.007-.002.01-.003a9.206 9.206 0 0 0-.269-.921c.127-.041.248-.094.361-.158a9.6 9.6 0 0 1 .3 1.019c.627-.04 1.175.198 1.253.621.104.568-.387 1.07-1.166 1.264Zm1.606-3.484-.057.124-1.148-.524-.205.418 1.153.527-.053.126 3.023 1.302.31-.67-3.023-1.303Z" fill="#FFCB6B"/></svg>