<svg width="16" height="16" fill="none" xmlns="http://www.w3.org/2000/svg"><path d="M11.483 5.501v1.193h.192a1 1 0 0 1 1 1v3.962a1 1 0 0 1-1 1H7.712a1 1 0 0 1-1-1v-.192H5.52v1.385a1 1 0 0 0 1 1h6.348a1 1 0 0 0 1-1V6.501a1 1 0 0 0-1-1h-1.385Z" fill="#FC8289"/><path d="M9.246 8.777c.493.66-.824 1.139-1.355.186l-.722.419.044.073c.272.458.697.726 1.27.803 1.257.15 2.077-.651 1.632-1.789-.316-.65-1.145-.774-1.629-1.094-.284-.166-.225-.517.004-.657.177-.11.585-.124.795.312l.69-.445c-.544-.981-1.831-.784-2.217-.338-.525.617-.375 1.305.087 1.747.359.344.923.46 1.401.783Zm-3.262 1.39c.398-.16.631-.493.693-.988.005-.05.009-3.244.009-3.244H5.81l-.006 3.16c-.02.204-.143.351-.321.38-.305.049-.509-.04-.72-.437l-.713.431c.305.718 1.226.982 1.934.698ZM2.789 2h7.422c.437 0 .789.352.789.789v7.422a.787.787 0 0 1-.789.789H2.79a.787.787 0 0 1-.79-.789V2.79c0-.438.352-.79.789-.79Z" fill="#FFCB6B"/></svg>