<svg width="16" height="16" fill="none" xmlns="http://www.w3.org/2000/svg"><g fill-rule="evenodd" clip-rule="evenodd"><path d="M6.068 6.767c-.779 0-1.526.644-1.505 1.657 0 1.045.694 1.658 1.612 1.658.384 0 .811-.138 1.142-.36l-.32-.559c-.235.137-.46.2-.694.2-.427 0-.758-.2-.843-.685h1.932c.01-.074.032-.222.032-.391.01-.855-.46-1.52-1.356-1.52Zm3.01 1.331.139.052c.416.137.875.38.875.96 0 .581-.459 1.024-1.313 1.024-.405 0-.896-.18-1.217-.443l.417-.612c.288.221.555.327.821.327.289 0 .417-.106.417-.264 0-.196-.277-.301-.582-.417l-.07-.026c-.384-.148-.842-.412-.842-.93 0-.58.49-.992 1.216-.992.491 0 .854.211 1.12.412l-.426.56c-.235-.17-.448-.264-.683-.264-.235 0-.363.095-.363.253 0 .18.22.261.49.36Zm2.578-.003c.047.017.095.035.144.055.416.137.875.38.875.96 0 .581-.46 1.024-1.313 1.024-.405 0-.896-.18-1.217-.443l.427-.612c.288.221.555.327.822.327.288 0 .416-.106.416-.264 0-.196-.277-.301-.582-.417l-.069-.026c-.384-.148-.843-.412-.843-.93 0-.58.491-.992 1.217-.992.49 0 .854.211 1.12.412l-.426.56c-.235-.17-.449-.264-.684-.264-.234 0-.362.095-.362.253 0 .179.214.26.475.357Zm-5.577-.62c-.299 0-.555.2-.62.622h1.153c0-.359-.149-.623-.533-.623Z" fill="#69A7D3"/><path d="M3.39 5.5h-.567c-.576 0-.832.222-.832.908 0 .454.064.707.064 1.098 0 .221-.139.454-.555.475v.549c.416.01.555.243.555.464 0 .39-.064.623-.064 1.077 0 .686.256.908.822.908h.416v-.486h-.128c-.267 0-.352-.105-.352-.454 0-.348.032-.644.032-1.034 0-.486-.16-.676-.48-.75v-.031c.32-.074.48-.264.48-.75 0-.38-.032-.686-.032-1.034 0-.349.074-.444.352-.444h.29V5.5Zm10.555 2.006c0-.412.064-.655.064-1.098 0-.686-.256-.908-.822-.908h-.416v.486h.128c.288 0 .352.095.352.443 0 .327-.032.654-.032 1.035 0 .485.16.675.48.75v.03c-.32.075-.48.265-.48.75 0 .38.032.686.032 1.035 0 .359-.074.454-.352.454v.01h-.128V11h.416c.566 0 .822-.222.822-.908 0-.454-.064-.686-.064-1.098 0-.221.139-.454.555-.475V7.97c-.416-.01-.555-.243-.555-.464Z" fill="#89DDFF"/><path d="M4.34 9.079V5.5h-.95v3.526c0 .644.223 1.066.874 1.066.203 0 .363-.032.48-.074l-.106-.686c-.064.01-.299-.053-.299-.253Z" fill="#69A7D3"/></g></svg>