<svg width="16" height="16" fill="none" xmlns="http://www.w3.org/2000/svg"><path d="m7.607 2.003-.182.017a6.015 6.015 0 0 0-5.371 5.107c-.048.33-.054.427-.054.874s.006.545.054.874a6.024 6.024 0 0 0 4.104 4.847c.39.126.8.212 1.267.263.182.02.968.02 1.15 0a6.06 6.06 0 0 0 2.162-.632c.103-.053.123-.067.109-.079-.01-.007-.45-.596-.977-1.31l-.96-1.296L7.707 8.89a166.267 166.267 0 0 0-1.21-1.778c-.005-.001-.01.79-.013 1.755-.003 1.69-.004 1.758-.025 1.798a.213.213 0 0 1-.104.106c-.037.019-.07.023-.247.023h-.203l-.054-.034a.219.219 0 0 1-.078-.086l-.025-.053.002-2.351.004-2.353.036-.046a.321.321 0 0 1 .087-.072c.048-.023.067-.025.27-.025.239 0 .279.009.341.077.018.019.669 1 1.447 2.18l2.368 3.586.95 1.44.048-.033c.426-.277.876-.67 1.233-1.081a5.967 5.967 0 0 0 1.412-3.067c.048-.33.054-.427.054-.874s-.006-.544-.054-.874a6.024 6.024 0 0 0-5.354-5.109 15.374 15.374 0 0 0-.985-.015Zm2.456 3.629a.236.236 0 0 1 .119.138c.01.03.011.683.01 2.153l-.004 2.108-.372-.57-.373-.57V7.358c0-.99.005-1.548.012-1.575a.24.24 0 0 1 .116-.148c.048-.024.065-.027.25-.027.173 0 .204.003.242.024Z" fill="#82AAFF"/></svg>