<svg width="16" height="16" fill="none" xmlns="http://www.w3.org/2000/svg"><path d="M12.855 4.185c-.096-.123-.202-.24-.296-.364a2.256 2.256 0 0 0-.32-.358 6.002 6.002 0 0 0-2.614-1.26 6.844 6.844 0 0 0-1.012-.117 6.523 6.523 0 0 0-1.04-.005c-.657.064-1.347.123-1.97.352a5.444 5.444 0 0 0-1.624.97c-.247.21-.441.471-.645.722-.212.26-.409.526-.574.817-.356.628-.659 1.325-.702 2.055-.01.18 0 .36.019.54.02.18.037.379.095.552.009.024.026.048.025.076 0 .025-.026.038-.023.065.003.027.029.032.036.056.01.034 0 .067.001.102.003.078.032.155.05.23.02.086.01.142-.017.224.033-.02.065-.042.1-.06.026.106.06.209.085.314a.425.425 0 0 0 .13.253c0-.134-.035-.246-.053-.377l.05.012c-.05.049.047.176.065.223.032-.032.059-.051.106-.047-.017-.042-.025-.087-.042-.129-.014-.032-.044-.065-.05-.088-.004-.022.007-.039-.005-.065-.01-.02-.033-.03-.043-.05-.028-.055.016-.11.007-.17-.019-.135-.064-.266-.08-.401-.014-.119.015-.265-.078-.358-.058.047-.045.164-.13.131-.065-.025-.047-.126.018-.109 0-.06-.025-.082.005-.134.028-.048.068-.081.091-.135.05-.116.059-.252.067-.376.02-.283.077-.537.17-.806.177-.511.434-.996.715-1.458.525-.863 1.311-1.61 2.243-2.022a5.42 5.42 0 0 1 .895-.3c.301-.073.611-.066.917-.097-.256.361-.503.732-.772 1.084-.258.337-.522.67-.779 1.01-.266.351-.5.725-.747 1.09-.122.179-.244.357-.369.534-.06.085-.124.162-.191.241-.033.039-.032.072-.048.117-.017.047-.048.088-.073.13l-.03-.055c-.059.095-.111.193-.17.288-.032.053-.141.155-.042.191l-.06.05c.028.033.07.05.098.084a.665.665 0 0 0 .023-.03c.01.075.038-.004.056-.027.022-.03.043-.059.068-.085.05-.052.11-.094.163-.145.106-.104.201-.222.296-.337.21-.257.396-.533.614-.784-.023.26-.031.52-.053.779-.01.123.003.244-.01.368a3.137 3.137 0 0 0-.024.38c.003.26.017.515 0 .774-.007.104.013.203.013.306 0 .066-.018.156.066.156 0 .166-.058.317-.045.486.006.077-.008.15-.008.226 0 .088.07.153.069.236-.052 0-.085-.016-.11.031-.02.041.003.125.006.17.005.08.003.162 0 .243-.001.048.012.182-.025.223-.038.042-.11.027-.163.028-.1.003-.198.003-.297.002-.19 0-.38.008-.57.01-.384.005-.767-.005-1.152.013-.16.007-.343.016-.494.078-.067.027-.07.055-.097.116-.006.014-.036.012-.04.031-.006.032.03.07.039.1a.462.462 0 0 0 .053-.028l-.04.065.13-.049c0 .028.155.002.193.005.062.006.122.024.182.036.167.034.34.04.51.05.322.016.642.014.964.013.336 0 .672.012 1.008.004.322-.007.644-.023.965-.033.66-.022 1.318-.017 1.977-.059a59.842 59.842 0 0 1 1.986-.101c.365-.011.73-.025 1.096-.05.36-.024.739-.059 1.098-.03l-.061.052c.105.001-.061.154-.072.172-.02.03-.023.07-.042.1-.02.032-.041.031-.068.056l-.02.04c-.019.032-.017.065-.037.097-.044.072-.062.086-.15.115l.06.02c-.024.013-.002.04-.014.08-.016.05-.057.099-.089.14a1.843 1.843 0 0 1-.263.273c-.153.134-.285.286-.448.41-.162.122-.332.24-.505.347-.17.105-.347.194-.515.302-.178.113-.366.173-.56.252-.189.077-.369.172-.573.201-.215.031-.433.053-.649.081-.22.03-.431.063-.654.064-.089 0-.176.01-.264-.008-.11-.02-.206-.04-.317-.047a2.34 2.34 0 0 1-.597-.105c-.078-.026-.123-.027-.2-.032-.093-.007-.176-.057-.268-.067-.076-.009-.082-.035-.144-.066-.083-.042-.167-.066-.248-.119-.077-.05-.154-.1-.24-.134-.087-.035-.181-.05-.268-.085-.078-.032-.144-.085-.213-.13-.077-.052-.148-.07-.23-.102-.176-.066-.336-.204-.473-.327-.124-.112-.327-.145-.391-.306-.024-.06-.063-.069-.111-.112a2.093 2.093 0 0 0-.232-.183c-.157-.106-.251-.254-.357-.406-.04-.057-.092-.155-.154-.192-.06-.035-.082.047-.153.047l.276.436c-.028-.02-.066-.015-.089-.043-.014-.017-.009-.051-.022-.065-.037-.04-.12-.021-.168-.028.064.102.127.224.175.316.052.102.165.167.228.261-.09.02.031.151.056.18.03.034.068.062.098.096.045.049.035.077.035.14.05-.05.06-.026.104.01a.492.492 0 0 0 .099.057.421.421 0 0 0 .05-.01c.004 0 .065.036.075.043.005.003.004.026.02.035.041.022.065.014.102.048.133.123.255.257.404.365.334.242.723.456 1.1.625.186.084.379.145.578.194.216.052.43.124.648.165.168.032.345.08.516.085.104.003.206-.004.31.002.029.002.237.002.13.05.24.047.472.03.715.02.108-.006.225-.067.328-.063.016.001.03.021.055.018.02-.003.032-.023.05-.03.045-.021.083-.013.131-.016.202-.015.38-.085.594-.125.031-.006.086-.005.114-.025.034-.024.019-.043.04-.073.038-.057.16-.144.23-.138l-.04.04c.044-.003.113.006.151-.018.036-.023.034-.064.066-.088.027-.02.081-.017.114-.026a1.15 1.15 0 0 0 .197-.077c.055-.028.102-.041.156-.06.038-.014.067-.036.106-.05l.066-.023.02-.022c.015.007.03.009.045.005.068-.016.121-.064.178-.103h-.097c.025-.014.062-.053.091-.054.02 0 .038.029.06.034.05.012.222-.06.178-.132.039-.022.053.012.083.003a.194.194 0 0 0 .06-.045c.039-.047.003-.074.038-.122.038-.052.11-.077.16-.116.029-.023.057-.063.094-.072a.222.222 0 0 0 .076-.058c.014-.026.04-.044.061-.063.072-.064.149-.123.219-.189a4.6 4.6 0 0 0 .408-.448c.236-.292.433-.62.605-.954.048-.093.076-.242.189-.273.057-.016.122-.005.181-.008a.527.527 0 0 0 .218-.063c-.081-.127-.297-.34-.242-.503.075-.216.171-.43.223-.655a6.487 6.487 0 0 0 .16-1.594c-.016-.653-.033-1.32-.244-1.944a5.461 5.461 0 0 0-.878-1.623ZM6.22 4.96c-.003.004-.017.022 0 0 .025-.033.049-.046.068-.08a.38.38 0 0 1 .1-.13c.036-.028.05-.049.077-.085.022-.031.048-.06.071-.088.017-.02.043-.089.05-.035.05-.07.12-.153.139-.229a.067.067 0 0 1-.023-.02.072.072 0 0 1 .025-.038.292.292 0 0 1 .06-.074c.022-.016.039-.006.065-.024.029-.02.05-.066.072-.092.023-.026.063-.053.074-.086.008-.021-.009-.06.002-.074l.04.08c.017-.043.042-.086.057-.13.018-.05-.002-.046.006-.083.01-.045.072-.101.098-.14l.124-.178c.15-.22.284-.454.475-.641.672.846 1.273 1.737 1.873 2.635-.329 0-.653-.019-.982.006-.327.025-.653.058-.981.069-.647.02-1.296.074-1.944.066.153-.209.296-.424.454-.629Zm3.997 1.641.017.688c-.065-.184-.175-.345-.281-.507a1.868 1.868 0 0 0-.415-.462 2.372 2.372 0 0 0-.542-.285s.882-.022.99-.022c.08 0 .114.03.159.095.102.147.068.322.072.493Zm-4.204-.435c.322-.014.644-.026.965-.047-.2.121-.368.285-.525.456-.16.175-.33.345-.461.544.017-.317.032-.635.021-.953Zm.302 4.2c-.057.005-.236.037-.275-.01-.04-.049-.004-.194-.004-.27-.022-.325-.06-.649-.058-.975.074.173.15.326.26.479.052.072.099.151.157.218.038.044.162.075.168.134.005.043-.05.05-.017.1.025.037.102.055.14.074.064.034.118.083.182.12.088.05.19.067.282.111-.278.005-.558.001-.835.02Zm.773-.474.018.008c.005.003.006.003-.002 0-.156-.069-.304-.136-.427-.257-.06-.059-.13-.116-.183-.182-.052-.062-.086-.137-.126-.206-.079-.135-.206-.262-.259-.408-.014-.041-.05-.124-.1-.052-.034.047.017.123.03.17-.02 0-.046.01-.06.027.005-.243-.01-.485-.004-.728.084.059.137-.069.156-.13.013-.043.014-.09.03-.132.007-.022.051-.076.046-.098-.013-.055-.065-.02-.04-.09.017-.048.063-.08.08-.133.015-.042.042-.18.08-.204l-.003.033c.084-.049.13-.083.15-.18.019-.087.08-.134.131-.205a.567.567 0 0 1 .183-.186c.073-.042.131-.137.208-.164.046-.016.076-.018.126-.05.027-.017.066-.04.08-.07.012-.024 0-.038.016-.059.042-.05.18-.081.24-.11.088-.04.178-.096.278-.094-.06.114.145.042.196.06 0-.11.023-.13.135-.131.122-.002.248-.006.37.014.239.039.44.19.634.326.202.14.394.27.534.478.061.09.11.188.139.293.035.129.082.281.072.415-.009.116-.038.23-.046.348a1.013 1.013 0 0 1-.111.402c-.015.029-.056.075-.047.108.009.031.039.024.04.056.002.03-.04.102-.05.128-.021.05-.042.1-.065.15-.188.403-.48.748-.914.888-.462.148-1.09.2-1.535-.035Zm2.033.374c.062-.036.12-.077.177-.12.04-.031.086-.091.13-.113l-.002.002c-.013.01-.027.027-.036.036l.01-.01.032-.029c.074-.073.166-.124.242-.194.07-.065.133-.14.19-.218.124-.17.214-.36.307-.548.005.386.05.77.1 1.154l-1.15.04Zm3.607-.091c-.205-.009-.414 0-.62.001-.242 0-.483.006-.724.023-.108.007-.216.01-.324.012-.043.002-.097.013-.138.007-.046-.007-.064-.033-.1-.06l-.012.025c-.032-.034-.034-.095-.03-.138.002-.016.012-.039.018-.06.034.007.068-.104.065-.122a.146.146 0 0 0-.032-.075c-.017-.023-.02 0-.032-.03-.008-.023.003-.08.003-.102.03.024.03-.032.056-.051.025-.019.057-.017.087-.017-.026-.046-.027-.095-.036-.145-.015-.083-.02-.076.063-.104-.049-.024-.068-.02-.084-.071-.012-.04 0-.093-.003-.135a.387.387 0 0 0-.023-.135c-.022-.047-.07-.048-.067-.093l.086.034c-.018-.064-.054-.122-.07-.186-.016-.064-.007-.128-.007-.193l.044.011c-.004-.042.003-.065-.01-.104-.008-.02-.025-.036-.032-.056-.02-.06-.006-.131-.006-.192l.04.016c-.01-.044.037-.072.063-.098-.05 0-.05.007-.064-.028-.008-.022 0-.063-.002-.087-.005-.066-.031-.111-.03-.171l.018-.72c.488.644.872 1.361 1.358 2.006.13.173.637.838.668.878.018.024.082.083.082.118.002.08-.155.044-.205.042Zm.608-2.8a5.74 5.74 0 0 1-.05-.049c-.01.03-.01.108-.062.091-.006.084.02.167.011.251a.781.781 0 0 1 .043-.029c-.011.062.056.12.047.18-.01.068-.055.022-.078.048-.026.03-.013.193.002.222.014.028.04.036.05.07.014.043 0 .097-.008.14-.037.19-.024.375-.04.566-.01.111-.03.046-.1.047-.08 0-.028.118-.015.164-.062-.005-.049.078-.05.118-.004.074-.04.13-.05.2-.228-.333-.43-.684-.663-1.014-.241-.342-.474-.69-.714-1.032-.238-.34-.451-.695-.686-1.037-.045-.066-.116-.132-.142-.207-.027-.075-.019-.186-.02-.265 0-.085.005-.17.002-.255-.003-.092.012-.113.075-.176h-.46c-.1 0-.171-.108-.221-.18-.076-.11-.15-.222-.225-.333-.185-.273-.385-.536-.583-.8-.373-.495-.72-1.012-1.124-1.484.256.032.514.033.77.07.252.038.503.088.748.158.463.13.907.325 1.333.547.094.049.191.095.282.15.103.061.181.147.264.233.173.183.336.373.499.564.276.325.582.644.747 1.044.102.249.174.519.232.78.03.136.027.274.053.408l.03.16a.212.212 0 0 0 .024.051c.013.03.017.078.05.045.036.182.037.37.03.555Zm-9.672.363.03-.021c-.066.02-.064-.04-.046-.082.026-.06.09-.1.126-.154a.267.267 0 0 0 .06.05c.044-.056.088-.111.135-.165.046.064.114.035.061.126-.032.055-.076.1-.118.148.012.026.037.04.033.076-.007.066-.119.187-.165.236-.041.043-.08.023-.11.073-.016.028-.006.054-.033.083-.018.019-.046.027-.064.045-.036.035-.049.095-.091.12-.053.033-.103.025-.101-.036-.035.006-.069.017-.103.026.037-.06.072-.127.117-.182.033-.039.076-.067.11-.105.035-.04.05-.091.083-.132.031-.038.056-.06.076-.106Z" fill="#FC8289" stroke="#FC8289" stroke-width=".2" stroke-linejoin="round"/></svg>