<svg width="16" height="16" fill="none" xmlns="http://www.w3.org/2000/svg"><g fill-rule="evenodd" clip-rule="evenodd"><path d="M8 1 1.994 4.51v7L8 15l6-3.55.007-6.9L8 1Zm5.477 10.15L8 14.39l-5.481-3.186v-6.39L8 1.61l5.483 3.24-.006 6.3Z" fill="#6B7394"/><path d="M12.784 6.827 9.973 8.482l-.002 3.963 2.824-1.662-.01-3.956Z" fill="#89DDFF"/><path d="m11.641 6.151 1.143.676-2.811 1.655-.002 3.963-1.307-.76.01-3.748 2.967-1.786Z" fill="#3965BD"/><path d="m11.256 5.175.001.733-3.052 1.841.004 4.05-.71.417-.002-4.788 3.759-2.253Z" fill="#C3E88D"/><path d="m10.004 4.435 1.252.74-3.759 2.253.002 4.788-1.402-.816-.002-4.694 3.909-2.27Z" fill="#C3E88D"/><path d="M9.613 3.303v.884l-4.008 2.35v5.049l-.701.408.013-5.856 4.696-2.835Z" fill="#BB80B3"/><path d="M8.08 2.392 3.265 5.197v5.839l1.648.958.005-5.856 4.7-2.835-1.538-.911Z" fill="#FF9CAC"/></g></svg>