<svg width="16" height="16" fill="none" xmlns="http://www.w3.org/2000/svg"><path d="M8.56 14s-1.19-2.756-.888-5.284c.302-2.53 2.26-3.68 3.37-3.804 1.11-.124 1.716.576 1.716.576l.242-.37s-1.594-1.645-3.613-1.46C7.37 3.844 5.976 5.2 5.11 6.845c-.87 1.645-1.374 2.796-1.717 4.523C3.05 13.096 3.191 14 3.191 14H8.56Zm-6.438-2.756 1.049.083-.182 1.069L2 12.272l.122-1.028Zm1.655-2.261.282-.802-.928-.37-.303.864.949.308Zm1.312-2.755.545-.658-.707-.473-.565.637.727.494Zm1.433-2.55.484.597.666-.39-.484-.556-.666.35ZM8.882 3l.122.596.828-.02-.081-.535L8.883 3Zm2.786 1.007.565.308.122-.185-.666-.493-.021.37Zm-.1 1.214v.308l.544.062v-.247l-.545-.123Zm-1.736.267.262.493.384-.308-.08-.329-.566.144Zm-.828.637.404.617-.242.432-.586-.658.424-.391Zm-.807 1.706-.263.535.687.596.161-.679-.585-.452Zm-.323 2.591.847.37-.04-.679-.767-.411-.04.72Zm.485 2.57 1.07.062-.384-.802h-.888l.202.74Z" fill="#FC8289"/></svg>