<svg width="16" height="16" fill="none" xmlns="http://www.w3.org/2000/svg"><path fill-rule="evenodd" clip-rule="evenodd" d="M8 2C4.691 2 2 4.691 2 8s2.691 6 6 6 6-2.691 6-6-2.691-6-6-6Zm1.235 9.18c-.416.172-1.435.593-2.042.058a.838.838 0 0 1-.295-.66c0-.397.104-.755.296-1.413.05-.167.104-.353.163-.565.053-.197.116-.453.116-.656 0-.351-.133-.444-.494-.444-.176 0-.37.063-.547.129l.097-.4c.394-.16.888-.355 1.311-.355.635 0 1.101.317 1.101.919 0 .173-.03.477-.093.687l-.365 1.291c-.075.261-.212.836 0 1.007.208.168.7.079.944-.036l-.098.4-.094.038ZM7.976 5.25a.75.75 0 1 0 1.5 0 .75.75 0 0 0-1.5 0Z" fill="#89DDFF"/></svg>