<svg width="16" height="16" fill="none" xmlns="http://www.w3.org/2000/svg"><path d="M12.45 14H3.463A1.47 1.47 0 0 1 2 12.527V3.473A1.47 1.47 0 0 1 3.463 2h8.995a1.47 1.47 0 0 1 1.463 1.474v9.061A1.482 1.482 0 0 1 12.45 14Z" fill="#F07178"/><path fill-rule="evenodd" clip-rule="evenodd" d="M12.45 14H3.463A1.47 1.47 0 0 1 2 12.527V3.473A1.47 1.47 0 0 1 3.463 2h8.995a1.47 1.47 0 0 1 1.463 1.474v9.061A1.482 1.482 0 0 1 12.45 14Z" fill="#FC8289"/><mask id="a" mask-type="alpha" maskUnits="userSpaceOnUse" x="2" y="2" width="12" height="12"><path fill-rule="evenodd" clip-rule="evenodd" d="M12.45 14H3.463A1.47 1.47 0 0 1 2 12.527V3.473A1.47 1.47 0 0 1 3.463 2h8.995a1.47 1.47 0 0 1 1.463 1.474v9.061A1.482 1.482 0 0 1 12.45 14Z" fill="#fff"/></mask><g mask="url(#a)"><path d="m5.197 6.888.78.786-.78 2.179.841.838-.84 2.118L6.387 14h7.524V6.412l-3.197-3.22V3.8L5.197 6.888Z" fill="#AC4142"/></g><g fill="#fff"><path d="M5.197 6.888s5.51.556 5.51 1.483V6.147s0-.926-5.51-1.482v2.224Zm0 2.965s5.51.556 5.51 1.482V9.112s0-.927-5.51-1.483v2.224Z" opacity=".6"/><path d="M10.715 3.191v2.224s0 .926-5.51 1.482V4.665c-.008 0 5.51-.547 5.51-1.474ZM5.197 7.63s5.51-.556 5.51-1.483v2.224s0 .926-5.51 1.482V7.629Zm0 5.179v-2.224s5.51-.556 5.51-1.482v2.223c.008.01.008.927-5.51 1.483Z"/></g></svg>