<svg width="16" height="16" fill="none" xmlns="http://www.w3.org/2000/svg"><g fill-rule="evenodd" clip-rule="evenodd"><path d="M9.243 7.926a.654.654 0 0 1 .046-.38.654.654 0 0 1 .598-.397h.035a.792.792 0 0 0 0-1.584h-.067a.654.654 0 0 1-.598-.396v-.032a.654.654 0 0 1 .13-.72l.024-.024a.792.792 0 1 0-1.12-1.121l-.024.023a.654.654 0 0 1-.721.131.654.654 0 0 1-.397-.598v-.036a.792.792 0 0 0-1.584 0v.068a.654.654 0 0 1-.396.598h-.032a.654.654 0 0 1-.72-.131l-.024-.024a.792.792 0 1 0-1.121 1.121l.023.024a.654.654 0 0 1 .131.72.654.654 0 0 1-.598.429h-.036a.792.792 0 0 0 0 1.584h.068a.654.654 0 0 1 .598.396.654.654 0 0 1-.131.721l-.024.024a.792.792 0 1 0 1.121 1.121l.024-.024a.654.654 0 0 1 .72-.13.654.654 0 0 1 .429.598v.035a.792.792 0 0 0 1.584 0v-.067a.654.654 0 0 1 .396-.598.654.654 0 0 1 .721.13l.024.024a.792.792 0 1 0 1.121-1.12l-.024-.024a.654.654 0 0 1-.176-.34Zm-.966-1.532a1.883 1.883 0 1 1-3.766 0 1.883 1.883 0 0 1 3.766 0Z" fill="#CBCEDC"/><path d="M13.069 11.275a.36.36 0 0 1-.056-.204.36.36 0 0 1 .224-.325l.018-.008a.437.437 0 1 0-.327-.81l-.034.014a.36.36 0 0 1-.388-.079l-.006-.016a.36.36 0 0 1-.082-.395l.007-.017a.436.436 0 0 0-.566-.576.437.437 0 0 0-.238.234l-.008.017a.36.36 0 0 1-.341.216.36.36 0 0 1-.326-.224l-.008-.018a.436.436 0 1 0-.81.327l.015.034a.36.36 0 0 1-.08.388l-.016.006a.36.36 0 0 1-.395.082l-.017-.007a.437.437 0 1 0-.341.805l.017.007a.36.36 0 0 1 .215.341.36.36 0 0 1-.217.342l-.018.008a.436.436 0 1 0 .327.81l.034-.014a.36.36 0 0 1 .388.079.36.36 0 0 1 .082.395l-.007.017a.436.436 0 0 0 .708.483.438.438 0 0 0 .096-.141l.007-.017a.36.36 0 0 1 .342-.216.36.36 0 0 1 .342.217l.007.019a.436.436 0 1 0 .81-.328l-.014-.034a.36.36 0 0 1 .08-.388.36.36 0 0 1 .395-.082l.017.008a.436.436 0 1 0 .341-.805l-.017-.007a.36.36 0 0 1-.16-.138Zm-.781-.617a1.098 1.098 0 1 1-2.036.823 1.098 1.098 0 0 1 2.036-.823Z" fill="#6B7394"/></g></svg>